  0
SECTION
  2
HEADER
  9
$ACADVER
  1
AC1009
  9
$INSUNITS
 70
     1
  0
ENDSEC
  0
SECTION
  2
TABLES
  0
TABLE
  2
LAYER
 70
     8
  0
LAYER
  2
0
 62
     7
 70
0
  6
CONTINUOUS
  0
LAYER
  2
1
 62
     1
 70
0
  6
CONTINUOUS
  0
LAYER
  2
2
 62
     2
 70
0
  6
CONTINUOUS
  0
LAYER
  2
3
 62
     3
 70
0
  6
CONTINUOUS
  0
LAYER
  2
4
 62
     4
 70
0
  6
CONTINUOUS
  0
LAYER
  2
5
 62
     5
 70
0
  6
CONTINUOUS
  0
LAYER
  2
6
 62
     6
 70
0
  6
CONTINUOUS
  0
LAYER
  2
7
 62
     7
 70
0
  6
CONTINUOUS
  0
ENDTAB
  0
TABLE
  2
STYLE
 70
     1
  0
STYLE
 70
     0
  2
STANDARD
  3
TXT
 40
0.00
 41
1.00
 42
1.00
 50
0.00
 71
     0
  0
ENDTAB
  0
ENDSEC
  0
SECTION
  2
BLOCKS
  0
BLOCK
  8
0
  2
EPAD
 70
0
 10
0.0
 20
0.0
  0
POLYLINE
  8
0
 66
1
 70
1
 40
0.5
 41
0.5
  0
VERTEX
  8
0
 10
-0.25
 20
0.0
 42
1.0
  0
VERTEX
  8
0
 10
0.25
 20
0.0
 42
1.0
  0
SEQEND
  8
0
  0
ENDBLK
  8
0
  0
BLOCK
  8
0
  2
RPAD
 70
0
 10
0.0
 20
0.0
  0
TRACE
  8
0
 10
-0.5
 20
-0.5
 11
-0.5
 21
0.5
 12
0.5
 22
-0.5
 13
0.5
 23
0.5
  0
ENDBLK
  8
0
  0
ENDSEC
0
SECTION
2
ENTITIES
0
POLYLINE
8
0
66
1
40
0.025000
41
0.025000
0
VERTEX
8
0
10
-0.459390
20
-0.044705
0
VERTEX
8
0
10
-0.459390
20
-0.179705
0
VERTEX
8
0
10
-0.474390
20
-0.194705
0
SEQEND
8
0
0
POLYLINE
8
0
66
1
40
0.025000
41
0.025000
0
VERTEX
8
0
10
-0.459390
20
-0.044705
0
VERTEX
8
0
10
-0.459390
20
0.055295
0
SEQEND
8
0
0
POLYLINE
8
0
66
1
40
0.025000
41
0.025000
0
VERTEX
8
0
10
-0.044390
20
-0.194705
0
VERTEX
8
0
10
0.107972
20
-0.347067
0
VERTEX
8
0
10
0.240610
20
-0.347067
0
SEQEND
8
0
0
POLYLINE
8
0
66
1
40
0.025000
41
0.025000
0
VERTEX
8
0
10
-0.044390
20
-0.194705
0
VERTEX
8
0
10
-0.046890
20
-0.192204
0
VERTEX
8
0
10
-0.046890
20
-0.057204
0
VERTEX
8
0
10
-0.059390
20
-0.044705
0
SEQEND
8
0
0
POLYLINE
8
0
66
1
40
0.025000
41
0.025000
0
VERTEX
8
0
10
0.190610
20
-0.494705
0
VERTEX
8
0
10
0.065610
20
-0.494705
0
VERTEX
8
0
10
0.065610
20
-0.554705
0
VERTEX
8
0
10
0.105610
20
-0.594705
0
VERTEX
8
0
10
0.138248
20
-0.594705
0
SEQEND
8
0
0
POLYLINE
8
0
66
1
40
0.025000
41
0.025000
0
VERTEX
8
0
10
0.490610
20
-0.394705
0
VERTEX
8
0
10
0.490610
20
-0.294705
0
SEQEND
8
0
0
POLYLINE
8
0
66
1
40
0.025000
41
0.025000
0
VERTEX
8
0
10
-0.259390
20
-0.369705
0
VERTEX
8
0
10
-0.334390
20
-0.444705
0
VERTEX
8
0
10
-0.409390
20
-0.444705
0
SEQEND
8
0
0
POLYLINE
8
0
66
1
40
0.025000
41
0.025000
0
VERTEX
8
0
10
-0.259390
20
-0.369705
0
VERTEX
8
0
10
-0.209390
20
-0.419705
0
VERTEX
8
0
10
-0.209390
20
-0.494705
0
SEQEND
8
0
0
POLYLINE
8
0
66
1
40
0.025000
41
0.025000
0
VERTEX
8
0
10
-0.259390
20
-0.369705
0
VERTEX
8
0
10
-0.259390
20
-0.194705
0
SEQEND
8
0
0
POLYLINE
8
0
66
1
40
0.030000
41
0.030000
0
VERTEX
8
0
10
0.165610
20
-0.044705
0
VERTEX
8
0
10
0.165610
20
0.055295
0
SEQEND
8
0
0
POLYLINE
8
0
66
1
40
0.030000
41
0.030000
0
VERTEX
8
0
10
0.090610
20
0.055295
0
VERTEX
8
0
10
0.165610
20
0.055295
0
VERTEX
8
0
10
0.190610
20
0.055295
0
SEQEND
8
0
0
POLYLINE
8
0
66
1
40
0.030000
41
0.030000
0
VERTEX
8
0
10
0.165610
20
-0.044705
0
VERTEX
8
0
10
0.165610
20
-0.098406
0
VERTEX
8
0
10
0.205610
20
-0.138406
0
VERTEX
8
0
10
0.240610
20
-0.138406
0
SEQEND
8
0
0
POLYLINE
8
0
66
1
40
0.030000
41
0.030000
0
VERTEX
8
0
10
0.290610
20
-0.044705
0
VERTEX
8
0
10
0.490610
20
-0.044705
0
SEQEND
8
0
0
POLYLINE
8
0
66
1
40
0.030000
41
0.030000
0
VERTEX
8
0
10
0.490610
20
0.105295
0
VERTEX
8
0
10
0.490610
20
-0.044705
0
SEQEND
8
0
0
POLYLINE
8
0
66
1
40
0.030000
41
0.030000
0
VERTEX
8
0
10
0.290610
20
-0.044705
0
VERTEX
8
0
10
0.165610
20
-0.044705
0
SEQEND
8
0
0
POLYLINE
8
0
66
1
40
0.030000
41
0.030000
0
VERTEX
8
0
10
-0.109390
20
0.055295
0
VERTEX
8
0
10
-0.109390
20
0.055295
0
VERTEX
8
0
10
-0.009390
20
0.055295
0
VERTEX
8
0
10
-0.009390
20
0.055295
0
VERTEX
8
0
10
0.090610
20
0.055295
0
SEQEND
8
0
0
POLYLINE
8
0
66
1
40
0.025000
41
0.025000
0
VERTEX
8
0
10
0.240610
20
-0.594705
0
VERTEX
8
0
10
0.248110
20
-0.587205
0
VERTEX
8
0
10
0.290610
20
-0.524705
0
VERTEX
8
0
10
0.315610
20
-0.494705
0
VERTEX
8
0
10
0.415610
20
-0.394705
0
VERTEX
8
0
10
0.490610
20
-0.394705
0
SEQEND
8
0
0
POLYLINE
8
0
66
1
40
0.030000
41
0.030000
0
VERTEX
8
0
10
0.490610
20
-0.494705
0
VERTEX
8
0
10
0.390610
20
-0.594705
0
VERTEX
8
0
10
0.346909
20
-0.594705
0
SEQEND
8
0
0
POLYLINE
8
0
66
1
40
0.025000
41
0.025000
0
VERTEX
8
0
10
-0.459390
20
0.055295
0
VERTEX
8
0
10
-0.504390
20
0.055295
0
VERTEX
8
0
10
-0.504390
20
0.205295
0
SEQEND
8
0
0
POLYLINE
8
0
66
1
40
0.025000
41
0.025000
0
VERTEX
8
0
10
-0.359390
20
0.555295
0
VERTEX
8
0
10
-0.359390
20
0.575295
0
VERTEX
8
0
10
-0.259390
20
0.675295
0
VERTEX
8
0
10
-0.004390
20
0.675295
0
VERTEX
8
0
10
0.045610
20
0.625295
0
SEQEND
8
0
0
POLYLINE
8
0
66
1
40
0.025000
41
0.025000
0
VERTEX
8
0
10
-0.059390
20
0.555295
0
VERTEX
8
0
10
-0.044390
20
0.540295
0
VERTEX
8
0
10
0.114361
20
0.540295
0
VERTEX
8
0
10
0.165610
20
0.591545
0
VERTEX
8
0
10
0.165610
20
0.680295
0
VERTEX
8
0
10
0.115610
20
0.730295
0
VERTEX
8
0
10
-0.299390
20
0.730295
0
VERTEX
8
0
10
-0.494390
20
0.535295
0
VERTEX
8
0
10
-0.599390
20
0.520295
0
VERTEX
8
0
10
-0.634390
20
0.505295
0
VERTEX
8
0
10
-0.634390
20
-0.419705
0
VERTEX
8
0
10
-0.359390
20
-0.694705
0
SEQEND
8
0
0
POLYLINE
8
0
66
1
40
0.025000
41
0.025000
0
VERTEX
8
0
10
0.090610
20
0.355295
0
VERTEX
8
0
10
0.290610
20
0.355295
0
SEQEND
8
0
0
POLYLINE
8
0
66
1
40
0.025000
41
0.025000
0
VERTEX
8
0
10
0.090610
20
0.252933
0
VERTEX
8
0
10
0.315610
20
0.252933
0
VERTEX
8
0
10
0.367972
20
0.305295
0
VERTEX
8
0
10
0.440610
20
0.305295
0
SEQEND
8
0
0
POLYLINE
8
0
66
1
40
0.030000
41
0.030000
0
VERTEX
8
0
10
0.490610
20
0.105295
0
VERTEX
8
0
10
0.565610
20
0.180295
0
VERTEX
8
0
10
0.565610
20
0.380295
0
VERTEX
8
0
10
0.484311
20
0.461594
0
VERTEX
8
0
10
0.090610
20
0.461594
0
SEQEND
8
0
0
POLYLINE
8
0
66
1
40
0.030000
41
0.030000
0
VERTEX
8
0
10
-0.109390
20
0.055295
0
VERTEX
8
0
10
-0.214390
20
0.055295
0
VERTEX
8
0
10
-0.295689
20
0.136594
0
VERTEX
8
0
10
-0.295689
20
0.225295
0
SEQEND
8
0
0
POLYLINE
8
0
66
1
40
0.025000
41
0.025000
0
VERTEX
8
0
10
-0.059390
20
-0.044705
0
VERTEX
8
0
10
-0.208635
20
-0.044705
0
VERTEX
8
0
10
-0.389390
20
0.136050
0
VERTEX
8
0
10
-0.389390
20
0.285295
0
VERTEX
8
0
10
-0.339390
20
0.335295
0
VERTEX
8
0
10
-0.129390
20
0.335295
0
VERTEX
8
0
10
-0.087028
20
0.292933
0
VERTEX
8
0
10
-0.087028
20
0.225295
0
SEQEND
8
0
0
POLYLINE
8
0
66
1
40
0.025000
41
0.025000
0
VERTEX
8
0
10
-0.189390
20
0.225295
0
VERTEX
8
0
10
-0.189390
20
0.213048
0
VERTEX
8
0
10
-0.124158
20
0.147817
0
VERTEX
8
0
10
-0.051748
20
0.147817
0
VERTEX
8
0
10
0.003533
20
0.203097
0
VERTEX
8
0
10
0.003533
20
0.315416
0
VERTEX
8
0
10
0.019837
20
0.331720
0
VERTEX
8
0
10
0.059692
20
0.331720
0
VERTEX
8
0
10
0.084864
20
0.356892
0
VERTEX
8
0
10
0.094113
20
0.366141
0
VERTEX
8
0
10
0.090610
20
0.355295
0
VERTEX
8
0
10
0.084864
20
0.356892
0
VERTEX
8
0
10
-0.089390
20
0.405295
0
VERTEX
8
0
10
-0.504390
20
0.405295
0
SEQEND
8
0
0
POLYLINE
8
0
66
1
40
0.025000
41
0.025000
0
VERTEX
8
0
10
0.240610
20
-0.244705
0
VERTEX
8
0
10
0.257429
20
-0.261523
0
VERTEX
8
0
10
0.271822
20
-0.261523
0
VERTEX
8
0
10
0.271822
20
-0.268678
0
VERTEX
8
0
10
0.318110
20
-0.314966
0
VERTEX
8
0
10
0.318110
20
-0.379168
0
VERTEX
8
0
10
0.202574
20
-0.494705
0
VERTEX
8
0
10
0.190610
20
-0.494705
0
SEQEND
8
0
0
POLYLINE
8
0
66
1
40
0.025000
41
0.025000
0
VERTEX
8
0
10
0.240610
20
-0.594705
0
VERTEX
8
0
10
0.240610
20
-0.598189
0
VERTEX
8
0
10
0.236671
20
-0.602129
0
VERTEX
8
0
10
0.215748
20
-0.623052
0
VERTEX
8
0
10
0.215748
20
-0.626806
0
VERTEX
8
0
10
0.147849
20
-0.694705
0
VERTEX
8
0
10
0.040610
20
-0.694705
0
SEQEND
8
0
0
POLYLINE
8
0
66
1
40
0.030000
41
0.030000
0
VERTEX
8
0
10
0.490610
20
-0.494705
0
VERTEX
8
0
10
0.498489
20
-0.486826
0
VERTEX
8
0
10
0.498489
20
-0.485765
0
VERTEX
8
0
10
0.514549
20
-0.469705
0
VERTEX
8
0
10
0.521676
20
-0.469705
0
VERTEX
8
0
10
0.565610
20
-0.425770
0
VERTEX
8
0
10
0.565610
20
-0.263639
0
VERTEX
8
0
10
0.440377
20
-0.138406
0
VERTEX
8
0
10
0.240610
20
-0.138406
0
SEQEND
8
0
0
POLYLINE
8
0
66
1
40
0.000000
41
0.000000
0
VERTEX
8
0
10
-0.685193
20
-0.835705
0
VERTEX
8
0
10
0.422052
20
-0.835705
0
SEQEND
8
0
0
POLYLINE
8
0
66
1
40
0.000000
41
0.000000
0
VERTEX
8
0
10
-0.685193
20
-0.831768
0
VERTEX
8
0
10
0.418115
20
-0.831768
0
SEQEND
8
0
0
POLYLINE
8
0
66
1
40
0.000000
41
0.000000
0
VERTEX
8
0
10
-0.685193
20
-0.827831
0
VERTEX
8
0
10
0.414178
20
-0.827831
0
SEQEND
8
0
0
POLYLINE
8
0
66
1
40
0.000000
41
0.000000
0
VERTEX
8
0
10
-0.685193
20
-0.823894
0
VERTEX
8
0
10
0.410241
20
-0.823894
0
SEQEND
8
0
0
POLYLINE
8
0
66
1
40
0.000000
41
0.000000
0
VERTEX
8
0
10
-0.685193
20
-0.819957
0
VERTEX
8
0
10
0.406304
20
-0.819957
0
SEQEND
8
0
0
POLYLINE
8
0
66
1
40
0.000000
41
0.000000
0
VERTEX
8
0
10
-0.685193
20
-0.816020
0
VERTEX
8
0
10
0.402367
20
-0.816020
0
SEQEND
8
0
0
POLYLINE
8
0
66
1
40
0.000000
41
0.000000
0
VERTEX
8
0
10
-0.685193
20
-0.812083
0
VERTEX
8
0
10
0.398430
20
-0.812083
0
SEQEND
8
0
0
POLYLINE
8
0
66
1
40
0.000000
41
0.000000
0
VERTEX
8
0
10
-0.685193
20
-0.808146
0
VERTEX
8
0
10
0.395611
20
-0.808146
0
SEQEND
8
0
0
POLYLINE
8
0
66
1
40
0.000000
41
0.000000
0
VERTEX
8
0
10
-0.685193
20
-0.804209
0
VERTEX
8
0
10
0.395611
20
-0.804209
0
SEQEND
8
0
0
POLYLINE
8
0
66
1
40
0.000000
41
0.000000
0
VERTEX
8
0
10
-0.685193
20
-0.800272
0
VERTEX
8
0
10
0.395611
20
-0.800272
0
SEQEND
8
0
0
POLYLINE
8
0
66
1
40
0.000000
41
0.000000
0
VERTEX
8
0
10
-0.685193
20
-0.796335
0
VERTEX
8
0
10
0.395611
20
-0.796335
0
SEQEND
8
0
0
POLYLINE
8
0
66
1
40
0.000000
41
0.000000
0
VERTEX
8
0
10
-0.685193
20
-0.792398
0
VERTEX
8
0
10
0.395611
20
-0.792398
0
SEQEND
8
0
0
POLYLINE
8
0
66
1
40
0.000000
41
0.000000
0
VERTEX
8
0
10
-0.685193
20
-0.788461
0
VERTEX
8
0
10
0.395611
20
-0.788461
0
SEQEND
8
0
0
POLYLINE
8
0
66
1
40
0.000000
41
0.000000
0
VERTEX
8
0
10
-0.685193
20
-0.784524
0
VERTEX
8
0
10
-0.396850
20
-0.784524
0
SEQEND
8
0
0
POLYLINE
8
0
66
1
40
0.000000
41
0.000000
0
VERTEX
8
0
10
-0.321930
20
-0.784524
0
VERTEX
8
0
10
0.003150
20
-0.784524
0
SEQEND
8
0
0
POLYLINE
8
0
66
1
40
0.000000
41
0.000000
0
VERTEX
8
0
10
0.078070
20
-0.784524
0
VERTEX
8
0
10
0.395611
20
-0.784524
0
SEQEND
8
0
0
POLYLINE
8
0
66
1
40
0.000000
41
0.000000
0
VERTEX
8
0
10
-0.685193
20
-0.780587
0
VERTEX
8
0
10
-0.400787
20
-0.780587
0
SEQEND
8
0
0
POLYLINE
8
0
66
1
40
0.000000
41
0.000000
0
VERTEX
8
0
10
-0.317993
20
-0.780587
0
VERTEX
8
0
10
-0.000787
20
-0.780587
0
SEQEND
8
0
0
POLYLINE
8
0
66
1
40
0.000000
41
0.000000
0
VERTEX
8
0
10
0.082007
20
-0.780587
0
VERTEX
8
0
10
0.395611
20
-0.780587
0
SEQEND
8
0
0
POLYLINE
8
0
66
1
40
0.000000
41
0.000000
0
VERTEX
8
0
10
-0.685193
20
-0.776650
0
VERTEX
8
0
10
-0.404724
20
-0.776650
0
SEQEND
8
0
0
POLYLINE
8
0
66
1
40
0.000000
41
0.000000
0
VERTEX
8
0
10
-0.314056
20
-0.776650
0
VERTEX
8
0
10
-0.004724
20
-0.776650
0
SEQEND
8
0
0
POLYLINE
8
0
66
1
40
0.000000
41
0.000000
0
VERTEX
8
0
10
0.085944
20
-0.776650
0
VERTEX
8
0
10
0.395611
20
-0.776650
0
SEQEND
8
0
0
POLYLINE
8
0
66
1
40
0.000000
41
0.000000
0
VERTEX
8
0
10
-0.685193
20
-0.772713
0
VERTEX
8
0
10
-0.408661
20
-0.772713
0
SEQEND
8
0
0
POLYLINE
8
0
66
1
40
0.000000
41
0.000000
0
VERTEX
8
0
10
-0.310119
20
-0.772713
0
VERTEX
8
0
10
-0.008661
20
-0.772713
0
SEQEND
8
0
0
POLYLINE
8
0
66
1
40
0.000000
41
0.000000
0
VERTEX
8
0
10
0.089881
20
-0.772713
0
VERTEX
8
0
10
0.395611
20
-0.772713
0
SEQEND
8
0
0
POLYLINE
8
0
66
1
40
0.000000
41
0.000000
0
VERTEX
8
0
10
-0.685193
20
-0.768776
0
VERTEX
8
0
10
-0.412598
20
-0.768776
0
SEQEND
8
0
0
POLYLINE
8
0
66
1
40
0.000000
41
0.000000
0
VERTEX
8
0
10
-0.306182
20
-0.768776
0
VERTEX
8
0
10
-0.012598
20
-0.768776
0
SEQEND
8
0
0
POLYLINE
8
0
66
1
40
0.000000
41
0.000000
0
VERTEX
8
0
10
0.093818
20
-0.768776
0
VERTEX
8
0
10
0.395611
20
-0.768776
0
SEQEND
8
0
0
POLYLINE
8
0
66
1
40
0.000000
41
0.000000
0
VERTEX
8
0
10
-0.685193
20
-0.764839
0
VERTEX
8
0
10
-0.416535
20
-0.764839
0
SEQEND
8
0
0
POLYLINE
8
0
66
1
40
0.000000
41
0.000000
0
VERTEX
8
0
10
-0.302245
20
-0.764839
0
VERTEX
8
0
10
-0.016535
20
-0.764839
0
SEQEND
8
0
0
POLYLINE
8
0
66
1
40
0.000000
41
0.000000
0
VERTEX
8
0
10
0.097755
20
-0.764839
0
VERTEX
8
0
10
0.395611
20
-0.764839
0
SEQEND
8
0
0
POLYLINE
8
0
66
1
40
0.000000
41
0.000000
0
VERTEX
8
0
10
-0.685193
20
-0.760902
0
VERTEX
8
0
10
-0.420472
20
-0.760902
0
SEQEND
8
0
0
POLYLINE
8
0
66
1
40
0.000000
41
0.000000
0
VERTEX
8
0
10
-0.298308
20
-0.760902
0
VERTEX
8
0
10
-0.020472
20
-0.760902
0
SEQEND
8
0
0
POLYLINE
8
0
66
1
40
0.000000
41
0.000000
0
VERTEX
8
0
10
0.177111
20
-0.760902
0
VERTEX
8
0
10
0.395611
20
-0.760902
0
SEQEND
8
0
0
POLYLINE
8
0
66
1
40
0.000000
41
0.000000
0
VERTEX
8
0
10
-0.685193
20
-0.756965
0
VERTEX
8
0
10
-0.424409
20
-0.756965
0
SEQEND
8
0
0
POLYLINE
8
0
66
1
40
0.000000
41
0.000000
0
VERTEX
8
0
10
-0.294371
20
-0.756965
0
VERTEX
8
0
10
-0.024409
20
-0.756965
0
SEQEND
8
0
0
POLYLINE
8
0
66
1
40
0.000000
41
0.000000
0
VERTEX
8
0
10
0.181048
20
-0.756965
0
VERTEX
8
0
10
0.395611
20
-0.756965
0
SEQEND
8
0
0
POLYLINE
8
0
66
1
40
0.000000
41
0.000000
0
VERTEX
8
0
10
-0.685193
20
-0.753028
0
VERTEX
8
0
10
-0.428346
20
-0.753028
0
SEQEND
8
0
0
POLYLINE
8
0
66
1
40
0.000000
41
0.000000
0
VERTEX
8
0
10
-0.290434
20
-0.753028
0
VERTEX
8
0
10
-0.028346
20
-0.753028
0
SEQEND
8
0
0
POLYLINE
8
0
66
1
40
0.000000
41
0.000000
0
VERTEX
8
0
10
0.184985
20
-0.753028
0
VERTEX
8
0
10
0.395611
20
-0.753028
0
SEQEND
8
0
0
POLYLINE
8
0
66
1
40
0.000000
41
0.000000
0
VERTEX
8
0
10
-0.685193
20
-0.749091
0
VERTEX
8
0
10
-0.432283
20
-0.749091
0
SEQEND
8
0
0
POLYLINE
8
0
66
1
40
0.000000
41
0.000000
0
VERTEX
8
0
10
-0.286497
20
-0.749091
0
VERTEX
8
0
10
-0.032283
20
-0.749091
0
SEQEND
8
0
0
POLYLINE
8
0
66
1
40
0.000000
41
0.000000
0
VERTEX
8
0
10
0.188922
20
-0.749091
0
VERTEX
8
0
10
0.395611
20
-0.749091
0
SEQEND
8
0
0
POLYLINE
8
0
66
1
40
0.000000
41
0.000000
0
VERTEX
8
0
10
-0.685193
20
-0.745154
0
VERTEX
8
0
10
-0.436220
20
-0.745154
0
SEQEND
8
0
0
POLYLINE
8
0
66
1
40
0.000000
41
0.000000
0
VERTEX
8
0
10
-0.282560
20
-0.745154
0
VERTEX
8
0
10
-0.036220
20
-0.745154
0
SEQEND
8
0
0
POLYLINE
8
0
66
1
40
0.000000
41
0.000000
0
VERTEX
8
0
10
0.192859
20
-0.745154
0
VERTEX
8
0
10
0.395611
20
-0.745154
0
SEQEND
8
0
0
POLYLINE
8
0
66
1
40
0.000000
41
0.000000
0
VERTEX
8
0
10
-0.685193
20
-0.741217
0
VERTEX
8
0
10
-0.440157
20
-0.741217
0
SEQEND
8
0
0
POLYLINE
8
0
66
1
40
0.000000
41
0.000000
0
VERTEX
8
0
10
-0.278623
20
-0.741217
0
VERTEX
8
0
10
-0.040157
20
-0.741217
0
SEQEND
8
0
0
POLYLINE
8
0
66
1
40
0.000000
41
0.000000
0
VERTEX
8
0
10
0.196796
20
-0.741217
0
VERTEX
8
0
10
0.395611
20
-0.741217
0
SEQEND
8
0
0
POLYLINE
8
0
66
1
40
0.000000
41
0.000000
0
VERTEX
8
0
10
-0.685193
20
-0.737280
0
VERTEX
8
0
10
-0.444094
20
-0.737280
0
SEQEND
8
0
0
POLYLINE
8
0
66
1
40
0.000000
41
0.000000
0
VERTEX
8
0
10
-0.274686
20
-0.737280
0
VERTEX
8
0
10
-0.044094
20
-0.737280
0
SEQEND
8
0
0
POLYLINE
8
0
66
1
40
0.000000
41
0.000000
0
VERTEX
8
0
10
0.200733
20
-0.737280
0
VERTEX
8
0
10
0.395611
20
-0.737280
0
SEQEND
8
0
0
POLYLINE
8
0
66
1
40
0.000000
41
0.000000
0
VERTEX
8
0
10
-0.685193
20
-0.733343
0
VERTEX
8
0
10
-0.448031
20
-0.733343
0
SEQEND
8
0
0
POLYLINE
8
0
66
1
40
0.000000
41
0.000000
0
VERTEX
8
0
10
-0.270749
20
-0.733343
0
VERTEX
8
0
10
-0.048031
20
-0.733343
0
SEQEND
8
0
0
POLYLINE
8
0
66
1
40
0.000000
41
0.000000
0
VERTEX
8
0
10
0.204670
20
-0.733343
0
VERTEX
8
0
10
0.395611
20
-0.733343
0
SEQEND
8
0
0
POLYLINE
8
0
66
1
40
0.000000
41
0.000000
0
VERTEX
8
0
10
-0.685193
20
-0.729406
0
VERTEX
8
0
10
-0.449389
20
-0.729406
0
SEQEND
8
0
0
POLYLINE
8
0
66
1
40
0.000000
41
0.000000
0
VERTEX
8
0
10
-0.269390
20
-0.729406
0
VERTEX
8
0
10
-0.049389
20
-0.729406
0
SEQEND
8
0
0
POLYLINE
8
0
66
1
40
0.000000
41
0.000000
0
VERTEX
8
0
10
0.208607
20
-0.729406
0
VERTEX
8
0
10
0.395611
20
-0.729406
0
SEQEND
8
0
0
POLYLINE
8
0
66
1
40
0.000000
41
0.000000
0
VERTEX
8
0
10
-0.685193
20
-0.725469
0
VERTEX
8
0
10
-0.449389
20
-0.725469
0
SEQEND
8
0
0
POLYLINE
8
0
66
1
40
0.000000
41
0.000000
0
VERTEX
8
0
10
-0.269390
20
-0.725469
0
VERTEX
8
0
10
-0.049389
20
-0.725469
0
SEQEND
8
0
0
POLYLINE
8
0
66
1
40
0.000000
41
0.000000
0
VERTEX
8
0
10
0.212544
20
-0.725469
0
VERTEX
8
0
10
0.395611
20
-0.725469
0
SEQEND
8
0
0
POLYLINE
8
0
66
1
40
0.000000
41
0.000000
0
VERTEX
8
0
10
-0.685193
20
-0.721532
0
VERTEX
8
0
10
-0.449389
20
-0.721532
0
SEQEND
8
0
0
POLYLINE
8
0
66
1
40
0.000000
41
0.000000
0
VERTEX
8
0
10
-0.269390
20
-0.721532
0
VERTEX
8
0
10
-0.049389
20
-0.721532
0
SEQEND
8
0
0
POLYLINE
8
0
66
1
40
0.000000
41
0.000000
0
VERTEX
8
0
10
0.216481
20
-0.721532
0
VERTEX
8
0
10
0.395611
20
-0.721532
0
SEQEND
8
0
0
POLYLINE
8
0
66
1
40
0.000000
41
0.000000
0
VERTEX
8
0
10
-0.685193
20
-0.717595
0
VERTEX
8
0
10
-0.449389
20
-0.717595
0
SEQEND
8
0
0
POLYLINE
8
0
66
1
40
0.000000
41
0.000000
0
VERTEX
8
0
10
-0.269390
20
-0.717595
0
VERTEX
8
0
10
-0.049389
20
-0.717595
0
SEQEND
8
0
0
POLYLINE
8
0
66
1
40
0.000000
41
0.000000
0
VERTEX
8
0
10
0.220418
20
-0.717595
0
VERTEX
8
0
10
0.395611
20
-0.717595
0
SEQEND
8
0
0
POLYLINE
8
0
66
1
40
0.000000
41
0.000000
0
VERTEX
8
0
10
-0.685193
20
-0.713657
0
VERTEX
8
0
10
-0.449389
20
-0.713657
0
SEQEND
8
0
0
POLYLINE
8
0
66
1
40
0.000000
41
0.000000
0
VERTEX
8
0
10
-0.269390
20
-0.713657
0
VERTEX
8
0
10
-0.049389
20
-0.713657
0
SEQEND
8
0
0
POLYLINE
8
0
66
1
40
0.000000
41
0.000000
0
VERTEX
8
0
10
0.224355
20
-0.713657
0
VERTEX
8
0
10
0.395611
20
-0.713657
0
SEQEND
8
0
0
POLYLINE
8
0
66
1
40
0.000000
41
0.000000
0
VERTEX
8
0
10
-0.685193
20
-0.709720
0
VERTEX
8
0
10
-0.449389
20
-0.709720
0
SEQEND
8
0
0
POLYLINE
8
0
66
1
40
0.000000
41
0.000000
0
VERTEX
8
0
10
-0.269390
20
-0.709720
0
VERTEX
8
0
10
-0.049389
20
-0.709720
0
SEQEND
8
0
0
POLYLINE
8
0
66
1
40
0.000000
41
0.000000
0
VERTEX
8
0
10
0.228292
20
-0.709720
0
VERTEX
8
0
10
0.395611
20
-0.709720
0
SEQEND
8
0
0
POLYLINE
8
0
66
1
40
0.000000
41
0.000000
0
VERTEX
8
0
10
-0.685193
20
-0.705783
0
VERTEX
8
0
10
-0.449389
20
-0.705783
0
SEQEND
8
0
0
POLYLINE
8
0
66
1
40
0.000000
41
0.000000
0
VERTEX
8
0
10
-0.269390
20
-0.705783
0
VERTEX
8
0
10
-0.049389
20
-0.705783
0
SEQEND
8
0
0
POLYLINE
8
0
66
1
40
0.000000
41
0.000000
0
VERTEX
8
0
10
0.232229
20
-0.705783
0
VERTEX
8
0
10
0.395611
20
-0.705783
0
SEQEND
8
0
0
POLYLINE
8
0
66
1
40
0.000000
41
0.000000
0
VERTEX
8
0
10
-0.685193
20
-0.701846
0
VERTEX
8
0
10
-0.449389
20
-0.701846
0
SEQEND
8
0
0
POLYLINE
8
0
66
1
40
0.000000
41
0.000000
0
VERTEX
8
0
10
-0.269390
20
-0.701846
0
VERTEX
8
0
10
-0.049389
20
-0.701846
0
SEQEND
8
0
0
POLYLINE
8
0
66
1
40
0.000000
41
0.000000
0
VERTEX
8
0
10
0.236166
20
-0.701846
0
VERTEX
8
0
10
0.395611
20
-0.701846
0
SEQEND
8
0
0
POLYLINE
8
0
66
1
40
0.000000
41
0.000000
0
VERTEX
8
0
10
-0.685193
20
-0.697909
0
VERTEX
8
0
10
-0.451643
20
-0.697909
0
SEQEND
8
0
0
POLYLINE
8
0
66
1
40
0.000000
41
0.000000
0
VERTEX
8
0
10
-0.269390
20
-0.697909
0
VERTEX
8
0
10
-0.049389
20
-0.697909
0
SEQEND
8
0
0
POLYLINE
8
0
66
1
40
0.000000
41
0.000000
0
VERTEX
8
0
10
0.240103
20
-0.697909
0
VERTEX
8
0
10
0.395611
20
-0.697909
0
SEQEND
8
0
0
POLYLINE
8
0
66
1
40
0.000000
41
0.000000
0
VERTEX
8
0
10
-0.685193
20
-0.693972
0
VERTEX
8
0
10
-0.455580
20
-0.693972
0
SEQEND
8
0
0
POLYLINE
8
0
66
1
40
0.000000
41
0.000000
0
VERTEX
8
0
10
-0.269390
20
-0.693972
0
VERTEX
8
0
10
-0.049389
20
-0.693972
0
SEQEND
8
0
0
POLYLINE
8
0
66
1
40
0.000000
41
0.000000
0
VERTEX
8
0
10
0.244040
20
-0.693972
0
VERTEX
8
0
10
0.395611
20
-0.693972
0
SEQEND
8
0
0
POLYLINE
8
0
66
1
40
0.000000
41
0.000000
0
VERTEX
8
0
10
-0.685193
20
-0.690035
0
VERTEX
8
0
10
-0.459517
20
-0.690035
0
SEQEND
8
0
0
POLYLINE
8
0
66
1
40
0.000000
41
0.000000
0
VERTEX
8
0
10
-0.269390
20
-0.690035
0
VERTEX
8
0
10
-0.049389
20
-0.690035
0
SEQEND
8
0
0
POLYLINE
8
0
66
1
40
0.000000
41
0.000000
0
VERTEX
8
0
10
0.247977
20
-0.690035
0
VERTEX
8
0
10
0.395611
20
-0.690035
0
SEQEND
8
0
0
POLYLINE
8
0
66
1
40
0.000000
41
0.000000
0
VERTEX
8
0
10
-0.685193
20
-0.686098
0
VERTEX
8
0
10
-0.463454
20
-0.686098
0
SEQEND
8
0
0
POLYLINE
8
0
66
1
40
0.000000
41
0.000000
0
VERTEX
8
0
10
-0.269390
20
-0.686098
0
VERTEX
8
0
10
-0.049389
20
-0.686098
0
SEQEND
8
0
0
POLYLINE
8
0
66
1
40
0.000000
41
0.000000
0
VERTEX
8
0
10
0.283566
20
-0.686098
0
VERTEX
8
0
10
0.303954
20
-0.686098
0
SEQEND
8
0
0
POLYLINE
8
0
66
1
40
0.000000
41
0.000000
0
VERTEX
8
0
10
0.389865
20
-0.686098
0
VERTEX
8
0
10
0.395611
20
-0.686098
0
SEQEND
8
0
0
POLYLINE
8
0
66
1
40
0.000000
41
0.000000
0
VERTEX
8
0
10
-0.685193
20
-0.682161
0
VERTEX
8
0
10
-0.467391
20
-0.682161
0
SEQEND
8
0
0
POLYLINE
8
0
66
1
40
0.000000
41
0.000000
0
VERTEX
8
0
10
-0.269390
20
-0.682161
0
VERTEX
8
0
10
-0.049389
20
-0.682161
0
SEQEND
8
0
0
POLYLINE
8
0
66
1
40
0.000000
41
0.000000
0
VERTEX
8
0
10
0.287503
20
-0.682161
0
VERTEX
8
0
10
0.300017
20
-0.682161
0
SEQEND
8
0
0
POLYLINE
8
0
66
1
40
0.000000
41
0.000000
0
VERTEX
8
0
10
0.393802
20
-0.682161
0
VERTEX
8
0
10
0.395611
20
-0.682161
0
SEQEND
8
0
0
POLYLINE
8
0
66
1
40
0.000000
41
0.000000
0
VERTEX
8
0
10
-0.685193
20
-0.678224
0
VERTEX
8
0
10
-0.471328
20
-0.678224
0
SEQEND
8
0
0
POLYLINE
8
0
66
1
40
0.000000
41
0.000000
0
VERTEX
8
0
10
-0.269390
20
-0.678224
0
VERTEX
8
0
10
-0.049389
20
-0.678224
0
SEQEND
8
0
0
POLYLINE
8
0
66
1
40
0.000000
41
0.000000
0
VERTEX
8
0
10
0.291440
20
-0.678224
0
VERTEX
8
0
10
0.296080
20
-0.678224
0
SEQEND
8
0
0
POLYLINE
8
0
66
1
40
0.000000
41
0.000000
0
VERTEX
8
0
10
-0.685193
20
-0.674287
0
VERTEX
8
0
10
-0.475265
20
-0.674287
0
SEQEND
8
0
0
POLYLINE
8
0
66
1
40
0.000000
41
0.000000
0
VERTEX
8
0
10
-0.269390
20
-0.674287
0
VERTEX
8
0
10
-0.049389
20
-0.674287
0
SEQEND
8
0
0
POLYLINE
8
0
66
1
40
0.000000
41
0.000000
0
VERTEX
8
0
10
-0.685193
20
-0.670350
0
VERTEX
8
0
10
-0.479202
20
-0.670350
0
SEQEND
8
0
0
POLYLINE
8
0
66
1
40
0.000000
41
0.000000
0
VERTEX
8
0
10
-0.269390
20
-0.670350
0
VERTEX
8
0
10
-0.049389
20
-0.670350
0
SEQEND
8
0
0
POLYLINE
8
0
66
1
40
0.000000
41
0.000000
0
VERTEX
8
0
10
-0.685193
20
-0.666413
0
VERTEX
8
0
10
-0.483139
20
-0.666413
0
SEQEND
8
0
0
POLYLINE
8
0
66
1
40
0.000000
41
0.000000
0
VERTEX
8
0
10
-0.269390
20
-0.666413
0
VERTEX
8
0
10
-0.049389
20
-0.666413
0
SEQEND
8
0
0
POLYLINE
8
0
66
1
40
0.000000
41
0.000000
0
VERTEX
8
0
10
-0.685193
20
-0.662476
0
VERTEX
8
0
10
-0.487076
20
-0.662476
0
SEQEND
8
0
0
POLYLINE
8
0
66
1
40
0.000000
41
0.000000
0
VERTEX
8
0
10
-0.269390
20
-0.662476
0
VERTEX
8
0
10
-0.049389
20
-0.662476
0
SEQEND
8
0
0
POLYLINE
8
0
66
1
40
0.000000
41
0.000000
0
VERTEX
8
0
10
-0.685193
20
-0.658539
0
VERTEX
8
0
10
-0.491013
20
-0.658539
0
SEQEND
8
0
0
POLYLINE
8
0
66
1
40
0.000000
41
0.000000
0
VERTEX
8
0
10
-0.269390
20
-0.658539
0
VERTEX
8
0
10
-0.049389
20
-0.658539
0
SEQEND
8
0
0
POLYLINE
8
0
66
1
40
0.000000
41
0.000000
0
VERTEX
8
0
10
-0.685193
20
-0.654602
0
VERTEX
8
0
10
-0.494950
20
-0.654602
0
SEQEND
8
0
0
POLYLINE
8
0
66
1
40
0.000000
41
0.000000
0
VERTEX
8
0
10
-0.272213
20
-0.654602
0
VERTEX
8
0
10
-0.046566
20
-0.654602
0
SEQEND
8
0
0
POLYLINE
8
0
66
1
40
0.000000
41
0.000000
0
VERTEX
8
0
10
-0.685193
20
-0.650665
0
VERTEX
8
0
10
-0.498887
20
-0.650665
0
SEQEND
8
0
0
POLYLINE
8
0
66
1
40
0.000000
41
0.000000
0
VERTEX
8
0
10
-0.276150
20
-0.650665
0
VERTEX
8
0
10
-0.042629
20
-0.650665
0
SEQEND
8
0
0
POLYLINE
8
0
66
1
40
0.000000
41
0.000000
0
VERTEX
8
0
10
-0.685193
20
-0.646728
0
VERTEX
8
0
10
-0.502824
20
-0.646728
0
SEQEND
8
0
0
POLYLINE
8
0
66
1
40
0.000000
41
0.000000
0
VERTEX
8
0
10
-0.280087
20
-0.646728
0
VERTEX
8
0
10
-0.038692
20
-0.646728
0
SEQEND
8
0
0
POLYLINE
8
0
66
1
40
0.000000
41
0.000000
0
VERTEX
8
0
10
-0.685193
20
-0.642791
0
VERTEX
8
0
10
-0.506761
20
-0.642791
0
SEQEND
8
0
0
POLYLINE
8
0
66
1
40
0.000000
41
0.000000
0
VERTEX
8
0
10
-0.284024
20
-0.642791
0
VERTEX
8
0
10
-0.034755
20
-0.642791
0
SEQEND
8
0
0
POLYLINE
8
0
66
1
40
0.000000
41
0.000000
0
VERTEX
8
0
10
-0.685193
20
-0.638854
0
VERTEX
8
0
10
-0.510698
20
-0.638854
0
SEQEND
8
0
0
POLYLINE
8
0
66
1
40
0.000000
41
0.000000
0
VERTEX
8
0
10
-0.287961
20
-0.638854
0
VERTEX
8
0
10
-0.030818
20
-0.638854
0
SEQEND
8
0
0
POLYLINE
8
0
66
1
40
0.000000
41
0.000000
0
VERTEX
8
0
10
-0.685193
20
-0.634917
0
VERTEX
8
0
10
-0.514635
20
-0.634917
0
SEQEND
8
0
0
POLYLINE
8
0
66
1
40
0.000000
41
0.000000
0
VERTEX
8
0
10
-0.291898
20
-0.634917
0
VERTEX
8
0
10
-0.026881
20
-0.634917
0
SEQEND
8
0
0
POLYLINE
8
0
66
1
40
0.000000
41
0.000000
0
VERTEX
8
0
10
-0.685193
20
-0.630980
0
VERTEX
8
0
10
-0.518572
20
-0.630980
0
SEQEND
8
0
0
POLYLINE
8
0
66
1
40
0.000000
41
0.000000
0
VERTEX
8
0
10
-0.295835
20
-0.630980
0
VERTEX
8
0
10
-0.022944
20
-0.630980
0
SEQEND
8
0
0
POLYLINE
8
0
66
1
40
0.000000
41
0.000000
0
VERTEX
8
0
10
-0.685193
20
-0.627043
0
VERTEX
8
0
10
-0.522509
20
-0.627043
0
SEQEND
8
0
0
POLYLINE
8
0
66
1
40
0.000000
41
0.000000
0
VERTEX
8
0
10
-0.299772
20
-0.627043
0
VERTEX
8
0
10
-0.019007
20
-0.627043
0
SEQEND
8
0
0
POLYLINE
8
0
66
1
40
0.000000
41
0.000000
0
VERTEX
8
0
10
-0.685193
20
-0.623106
0
VERTEX
8
0
10
-0.526446
20
-0.623106
0
SEQEND
8
0
0
POLYLINE
8
0
66
1
40
0.000000
41
0.000000
0
VERTEX
8
0
10
-0.303709
20
-0.623106
0
VERTEX
8
0
10
-0.015070
20
-0.623106
0
SEQEND
8
0
0
POLYLINE
8
0
66
1
40
0.000000
41
0.000000
0
VERTEX
8
0
10
-0.685193
20
-0.619169
0
VERTEX
8
0
10
-0.530383
20
-0.619169
0
SEQEND
8
0
0
POLYLINE
8
0
66
1
40
0.000000
41
0.000000
0
VERTEX
8
0
10
-0.307646
20
-0.619169
0
VERTEX
8
0
10
-0.011133
20
-0.619169
0
SEQEND
8
0
0
POLYLINE
8
0
66
1
40
0.000000
41
0.000000
0
VERTEX
8
0
10
-0.685193
20
-0.615232
0
VERTEX
8
0
10
-0.534320
20
-0.615232
0
SEQEND
8
0
0
POLYLINE
8
0
66
1
40
0.000000
41
0.000000
0
VERTEX
8
0
10
-0.311583
20
-0.615232
0
VERTEX
8
0
10
-0.007196
20
-0.615232
0
SEQEND
8
0
0
POLYLINE
8
0
66
1
40
0.000000
41
0.000000
0
VERTEX
8
0
10
-0.685193
20
-0.611295
0
VERTEX
8
0
10
-0.538257
20
-0.611295
0
SEQEND
8
0
0
POLYLINE
8
0
66
1
40
0.000000
41
0.000000
0
VERTEX
8
0
10
-0.315520
20
-0.611295
0
VERTEX
8
0
10
-0.003259
20
-0.611295
0
SEQEND
8
0
0
POLYLINE
8
0
66
1
40
0.000000
41
0.000000
0
VERTEX
8
0
10
-0.685193
20
-0.607358
0
VERTEX
8
0
10
-0.542194
20
-0.607358
0
SEQEND
8
0
0
POLYLINE
8
0
66
1
40
0.000000
41
0.000000
0
VERTEX
8
0
10
-0.319457
20
-0.607358
0
VERTEX
8
0
10
0.000678
20
-0.607358
0
SEQEND
8
0
0
POLYLINE
8
0
66
1
40
0.000000
41
0.000000
0
VERTEX
8
0
10
-0.685193
20
-0.603421
0
VERTEX
8
0
10
-0.546131
20
-0.603421
0
SEQEND
8
0
0
POLYLINE
8
0
66
1
40
0.000000
41
0.000000
0
VERTEX
8
0
10
-0.355215
20
-0.603421
0
VERTEX
8
0
10
0.018869
20
-0.603421
0
SEQEND
8
0
0
POLYLINE
8
0
66
1
40
0.000000
41
0.000000
0
VERTEX
8
0
10
-0.685193
20
-0.599484
0
VERTEX
8
0
10
-0.550068
20
-0.599484
0
SEQEND
8
0
0
POLYLINE
8
0
66
1
40
0.000000
41
0.000000
0
VERTEX
8
0
10
-0.359152
20
-0.599484
0
VERTEX
8
0
10
0.014931
20
-0.599484
0
SEQEND
8
0
0
POLYLINE
8
0
66
1
40
0.000000
41
0.000000
0
VERTEX
8
0
10
-0.685193
20
-0.595547
0
VERTEX
8
0
10
-0.554006
20
-0.595547
0
SEQEND
8
0
0
POLYLINE
8
0
66
1
40
0.000000
41
0.000000
0
VERTEX
8
0
10
-0.363089
20
-0.595547
0
VERTEX
8
0
10
0.010994
20
-0.595547
0
SEQEND
8
0
0
POLYLINE
8
0
66
1
40
0.000000
41
0.000000
0
VERTEX
8
0
10
-0.685193
20
-0.591610
0
VERTEX
8
0
10
-0.557943
20
-0.591610
0
SEQEND
8
0
0
POLYLINE
8
0
66
1
40
0.000000
41
0.000000
0
VERTEX
8
0
10
-0.367026
20
-0.591610
0
VERTEX
8
0
10
0.007057
20
-0.591610
0
SEQEND
8
0
0
POLYLINE
8
0
66
1
40
0.000000
41
0.000000
0
VERTEX
8
0
10
-0.685193
20
-0.587673
0
VERTEX
8
0
10
-0.561880
20
-0.587673
0
SEQEND
8
0
0
POLYLINE
8
0
66
1
40
0.000000
41
0.000000
0
VERTEX
8
0
10
-0.370963
20
-0.587673
0
VERTEX
8
0
10
0.003120
20
-0.587673
0
SEQEND
8
0
0
POLYLINE
8
0
66
1
40
0.000000
41
0.000000
0
VERTEX
8
0
10
-0.685193
20
-0.583736
0
VERTEX
8
0
10
-0.565817
20
-0.583736
0
SEQEND
8
0
0
POLYLINE
8
0
66
1
40
0.000000
41
0.000000
0
VERTEX
8
0
10
-0.374900
20
-0.583736
0
VERTEX
8
0
10
-0.247637
20
-0.583736
0
SEQEND
8
0
0
POLYLINE
8
0
66
1
40
0.000000
41
0.000000
0
VERTEX
8
0
10
-0.171143
20
-0.583736
0
VERTEX
8
0
10
-0.000817
20
-0.583736
0
SEQEND
8
0
0
POLYLINE
8
0
66
1
40
0.000000
41
0.000000
0
VERTEX
8
0
10
-0.685193
20
-0.579799
0
VERTEX
8
0
10
-0.569754
20
-0.579799
0
SEQEND
8
0
0
POLYLINE
8
0
66
1
40
0.000000
41
0.000000
0
VERTEX
8
0
10
-0.378837
20
-0.579799
0
VERTEX
8
0
10
-0.251574
20
-0.579799
0
SEQEND
8
0
0
POLYLINE
8
0
66
1
40
0.000000
41
0.000000
0
VERTEX
8
0
10
-0.167206
20
-0.579799
0
VERTEX
8
0
10
-0.001889
20
-0.579799
0
SEQEND
8
0
0
POLYLINE
8
0
66
1
40
0.000000
41
0.000000
0
VERTEX
8
0
10
-0.685193
20
-0.575862
0
VERTEX
8
0
10
-0.573691
20
-0.575862
0
SEQEND
8
0
0
POLYLINE
8
0
66
1
40
0.000000
41
0.000000
0
VERTEX
8
0
10
-0.382774
20
-0.575862
0
VERTEX
8
0
10
-0.255511
20
-0.575862
0
SEQEND
8
0
0
POLYLINE
8
0
66
1
40
0.000000
41
0.000000
0
VERTEX
8
0
10
-0.163269
20
-0.575862
0
VERTEX
8
0
10
-0.001889
20
-0.575862
0
SEQEND
8
0
0
POLYLINE
8
0
66
1
40
0.000000
41
0.000000
0
VERTEX
8
0
10
-0.685193
20
-0.571925
0
VERTEX
8
0
10
-0.577628
20
-0.571925
0
SEQEND
8
0
0
POLYLINE
8
0
66
1
40
0.000000
41
0.000000
0
VERTEX
8
0
10
-0.386711
20
-0.571925
0
VERTEX
8
0
10
-0.259448
20
-0.571925
0
SEQEND
8
0
0
POLYLINE
8
0
66
1
40
0.000000
41
0.000000
0
VERTEX
8
0
10
-0.159332
20
-0.571925
0
VERTEX
8
0
10
-0.001889
20
-0.571925
0
SEQEND
8
0
0
POLYLINE
8
0
66
1
40
0.000000
41
0.000000
0
VERTEX
8
0
10
-0.685193
20
-0.567988
0
VERTEX
8
0
10
-0.581565
20
-0.567988
0
SEQEND
8
0
0
POLYLINE
8
0
66
1
40
0.000000
41
0.000000
0
VERTEX
8
0
10
-0.390648
20
-0.567988
0
VERTEX
8
0
10
-0.263385
20
-0.567988
0
SEQEND
8
0
0
POLYLINE
8
0
66
1
40
0.000000
41
0.000000
0
VERTEX
8
0
10
-0.155394
20
-0.567988
0
VERTEX
8
0
10
-0.001889
20
-0.567988
0
SEQEND
8
0
0
POLYLINE
8
0
66
1
40
0.000000
41
0.000000
0
VERTEX
8
0
10
-0.685193
20
-0.564051
0
VERTEX
8
0
10
-0.585502
20
-0.564051
0
SEQEND
8
0
0
POLYLINE
8
0
66
1
40
0.000000
41
0.000000
0
VERTEX
8
0
10
-0.394585
20
-0.564051
0
VERTEX
8
0
10
-0.267322
20
-0.564051
0
SEQEND
8
0
0
POLYLINE
8
0
66
1
40
0.000000
41
0.000000
0
VERTEX
8
0
10
-0.151457
20
-0.564051
0
VERTEX
8
0
10
-0.001889
20
-0.564051
0
SEQEND
8
0
0
POLYLINE
8
0
66
1
40
0.000000
41
0.000000
0
VERTEX
8
0
10
-0.685193
20
-0.560114
0
VERTEX
8
0
10
-0.589439
20
-0.560114
0
SEQEND
8
0
0
POLYLINE
8
0
66
1
40
0.000000
41
0.000000
0
VERTEX
8
0
10
-0.398522
20
-0.560114
0
VERTEX
8
0
10
-0.271259
20
-0.560114
0
SEQEND
8
0
0
POLYLINE
8
0
66
1
40
0.000000
41
0.000000
0
VERTEX
8
0
10
-0.147520
20
-0.560114
0
VERTEX
8
0
10
-0.001889
20
-0.560114
0
SEQEND
8
0
0
POLYLINE
8
0
66
1
40
0.000000
41
0.000000
0
VERTEX
8
0
10
-0.685193
20
-0.556177
0
VERTEX
8
0
10
-0.593376
20
-0.556177
0
SEQEND
8
0
0
POLYLINE
8
0
66
1
40
0.000000
41
0.000000
0
VERTEX
8
0
10
-0.402459
20
-0.556177
0
VERTEX
8
0
10
-0.275196
20
-0.556177
0
SEQEND
8
0
0
POLYLINE
8
0
66
1
40
0.000000
41
0.000000
0
VERTEX
8
0
10
-0.143583
20
-0.556177
0
VERTEX
8
0
10
-0.001889
20
-0.556177
0
SEQEND
8
0
0
POLYLINE
8
0
66
1
40
0.000000
41
0.000000
0
VERTEX
8
0
10
-0.685193
20
-0.552240
0
VERTEX
8
0
10
-0.597313
20
-0.552240
0
SEQEND
8
0
0
POLYLINE
8
0
66
1
40
0.000000
41
0.000000
0
VERTEX
8
0
10
-0.406396
20
-0.552240
0
VERTEX
8
0
10
-0.279133
20
-0.552240
0
SEQEND
8
0
0
POLYLINE
8
0
66
1
40
0.000000
41
0.000000
0
VERTEX
8
0
10
-0.139646
20
-0.552240
0
VERTEX
8
0
10
-0.001889
20
-0.552240
0
SEQEND
8
0
0
POLYLINE
8
0
66
1
40
0.000000
41
0.000000
0
VERTEX
8
0
10
-0.685193
20
-0.548303
0
VERTEX
8
0
10
-0.601250
20
-0.548303
0
SEQEND
8
0
0
POLYLINE
8
0
66
1
40
0.000000
41
0.000000
0
VERTEX
8
0
10
-0.410333
20
-0.548303
0
VERTEX
8
0
10
-0.283070
20
-0.548303
0
SEQEND
8
0
0
POLYLINE
8
0
66
1
40
0.000000
41
0.000000
0
VERTEX
8
0
10
-0.135709
20
-0.548303
0
VERTEX
8
0
10
-0.001889
20
-0.548303
0
SEQEND
8
0
0
POLYLINE
8
0
66
1
40
0.000000
41
0.000000
0
VERTEX
8
0
10
-0.685193
20
-0.544366
0
VERTEX
8
0
10
-0.605187
20
-0.544366
0
SEQEND
8
0
0
POLYLINE
8
0
66
1
40
0.000000
41
0.000000
0
VERTEX
8
0
10
-0.414270
20
-0.544366
0
VERTEX
8
0
10
-0.287007
20
-0.544366
0
SEQEND
8
0
0
POLYLINE
8
0
66
1
40
0.000000
41
0.000000
0
VERTEX
8
0
10
-0.131772
20
-0.544366
0
VERTEX
8
0
10
-0.001889
20
-0.544366
0
SEQEND
8
0
0
POLYLINE
8
0
66
1
40
0.000000
41
0.000000
0
VERTEX
8
0
10
-0.685193
20
-0.540429
0
VERTEX
8
0
10
-0.609124
20
-0.540429
0
SEQEND
8
0
0
POLYLINE
8
0
66
1
40
0.000000
41
0.000000
0
VERTEX
8
0
10
-0.418207
20
-0.540429
0
VERTEX
8
0
10
-0.290944
20
-0.540429
0
SEQEND
8
0
0
POLYLINE
8
0
66
1
40
0.000000
41
0.000000
0
VERTEX
8
0
10
-0.127835
20
-0.540429
0
VERTEX
8
0
10
-0.001889
20
-0.540429
0
SEQEND
8
0
0
POLYLINE
8
0
66
1
40
0.000000
41
0.000000
0
VERTEX
8
0
10
-0.685193
20
-0.536492
0
VERTEX
8
0
10
-0.613061
20
-0.536492
0
SEQEND
8
0
0
POLYLINE
8
0
66
1
40
0.000000
41
0.000000
0
VERTEX
8
0
10
-0.314390
20
-0.536492
0
VERTEX
8
0
10
-0.294881
20
-0.536492
0
SEQEND
8
0
0
POLYLINE
8
0
66
1
40
0.000000
41
0.000000
0
VERTEX
8
0
10
-0.123898
20
-0.536492
0
VERTEX
8
0
10
-0.001889
20
-0.536492
0
SEQEND
8
0
0
POLYLINE
8
0
66
1
40
0.000000
41
0.000000
0
VERTEX
8
0
10
-0.685193
20
-0.532555
0
VERTEX
8
0
10
-0.616998
20
-0.532555
0
SEQEND
8
0
0
POLYLINE
8
0
66
1
40
0.000000
41
0.000000
0
VERTEX
8
0
10
-0.314390
20
-0.532555
0
VERTEX
8
0
10
-0.298818
20
-0.532555
0
SEQEND
8
0
0
POLYLINE
8
0
66
1
40
0.000000
41
0.000000
0
VERTEX
8
0
10
-0.119961
20
-0.532555
0
VERTEX
8
0
10
-0.001889
20
-0.532555
0
SEQEND
8
0
0
POLYLINE
8
0
66
1
40
0.000000
41
0.000000
0
VERTEX
8
0
10
-0.685193
20
-0.528618
0
VERTEX
8
0
10
-0.620935
20
-0.528618
0
SEQEND
8
0
0
POLYLINE
8
0
66
1
40
0.000000
41
0.000000
0
VERTEX
8
0
10
-0.314390
20
-0.528618
0
VERTEX
8
0
10
-0.299389
20
-0.528618
0
SEQEND
8
0
0
POLYLINE
8
0
66
1
40
0.000000
41
0.000000
0
VERTEX
8
0
10
-0.119390
20
-0.528618
0
VERTEX
8
0
10
-0.001889
20
-0.528618
0
SEQEND
8
0
0
POLYLINE
8
0
66
1
40
0.000000
41
0.000000
0
VERTEX
8
0
10
-0.685193
20
-0.524681
0
VERTEX
8
0
10
-0.624872
20
-0.524681
0
SEQEND
8
0
0
POLYLINE
8
0
66
1
40
0.000000
41
0.000000
0
VERTEX
8
0
10
-0.314390
20
-0.524681
0
VERTEX
8
0
10
-0.299389
20
-0.524681
0
SEQEND
8
0
0
POLYLINE
8
0
66
1
40
0.000000
41
0.000000
0
VERTEX
8
0
10
-0.119390
20
-0.524681
0
VERTEX
8
0
10
-0.001889
20
-0.524681
0
SEQEND
8
0
0
POLYLINE
8
0
66
1
40
0.000000
41
0.000000
0
VERTEX
8
0
10
-0.685193
20
-0.520744
0
VERTEX
8
0
10
-0.628809
20
-0.520744
0
SEQEND
8
0
0
POLYLINE
8
0
66
1
40
0.000000
41
0.000000
0
VERTEX
8
0
10
-0.314390
20
-0.520744
0
VERTEX
8
0
10
-0.299389
20
-0.520744
0
SEQEND
8
0
0
POLYLINE
8
0
66
1
40
0.000000
41
0.000000
0
VERTEX
8
0
10
-0.119390
20
-0.520744
0
VERTEX
8
0
10
-0.001889
20
-0.520744
0
SEQEND
8
0
0
POLYLINE
8
0
66
1
40
0.000000
41
0.000000
0
VERTEX
8
0
10
-0.685193
20
-0.516807
0
VERTEX
8
0
10
-0.632746
20
-0.516807
0
SEQEND
8
0
0
POLYLINE
8
0
66
1
40
0.000000
41
0.000000
0
VERTEX
8
0
10
-0.314390
20
-0.516807
0
VERTEX
8
0
10
-0.299389
20
-0.516807
0
SEQEND
8
0
0
POLYLINE
8
0
66
1
40
0.000000
41
0.000000
0
VERTEX
8
0
10
-0.119390
20
-0.516807
0
VERTEX
8
0
10
-0.001889
20
-0.516807
0
SEQEND
8
0
0
POLYLINE
8
0
66
1
40
0.000000
41
0.000000
0
VERTEX
8
0
10
-0.685193
20
-0.512870
0
VERTEX
8
0
10
-0.636683
20
-0.512870
0
SEQEND
8
0
0
POLYLINE
8
0
66
1
40
0.000000
41
0.000000
0
VERTEX
8
0
10
-0.314390
20
-0.512870
0
VERTEX
8
0
10
-0.299389
20
-0.512870
0
SEQEND
8
0
0
POLYLINE
8
0
66
1
40
0.000000
41
0.000000
0
VERTEX
8
0
10
-0.119390
20
-0.512870
0
VERTEX
8
0
10
-0.001889
20
-0.512870
0
SEQEND
8
0
0
POLYLINE
8
0
66
1
40
0.000000
41
0.000000
0
VERTEX
8
0
10
-0.685193
20
-0.508933
0
VERTEX
8
0
10
-0.640620
20
-0.508933
0
SEQEND
8
0
0
POLYLINE
8
0
66
1
40
0.000000
41
0.000000
0
VERTEX
8
0
10
-0.303160
20
-0.508933
0
VERTEX
8
0
10
-0.299389
20
-0.508933
0
SEQEND
8
0
0
POLYLINE
8
0
66
1
40
0.000000
41
0.000000
0
VERTEX
8
0
10
-0.119390
20
-0.508933
0
VERTEX
8
0
10
-0.001889
20
-0.508933
0
SEQEND
8
0
0
POLYLINE
8
0
66
1
40
0.000000
41
0.000000
0
VERTEX
8
0
10
-0.685193
20
-0.504996
0
VERTEX
8
0
10
-0.644557
20
-0.504996
0
SEQEND
8
0
0
POLYLINE
8
0
66
1
40
0.000000
41
0.000000
0
VERTEX
8
0
10
-0.119390
20
-0.504996
0
VERTEX
8
0
10
-0.001889
20
-0.504996
0
SEQEND
8
0
0
POLYLINE
8
0
66
1
40
0.000000
41
0.000000
0
VERTEX
8
0
10
-0.685193
20
-0.501059
0
VERTEX
8
0
10
-0.648494
20
-0.501059
0
SEQEND
8
0
0
POLYLINE
8
0
66
1
40
0.000000
41
0.000000
0
VERTEX
8
0
10
-0.119390
20
-0.501059
0
VERTEX
8
0
10
-0.001889
20
-0.501059
0
SEQEND
8
0
0
POLYLINE
8
0
66
1
40
0.000000
41
0.000000
0
VERTEX
8
0
10
-0.685193
20
-0.497122
0
VERTEX
8
0
10
-0.652431
20
-0.497122
0
SEQEND
8
0
0
POLYLINE
8
0
66
1
40
0.000000
41
0.000000
0
VERTEX
8
0
10
-0.119390
20
-0.497122
0
VERTEX
8
0
10
-0.001889
20
-0.497122
0
SEQEND
8
0
0
POLYLINE
8
0
66
1
40
0.000000
41
0.000000
0
VERTEX
8
0
10
-0.685193
20
-0.493185
0
VERTEX
8
0
10
-0.656368
20
-0.493185
0
SEQEND
8
0
0
POLYLINE
8
0
66
1
40
0.000000
41
0.000000
0
VERTEX
8
0
10
-0.119390
20
-0.493185
0
VERTEX
8
0
10
-0.001889
20
-0.493185
0
SEQEND
8
0
0
POLYLINE
8
0
66
1
40
0.000000
41
0.000000
0
VERTEX
8
0
10
-0.685193
20
-0.489248
0
VERTEX
8
0
10
-0.660305
20
-0.489248
0
SEQEND
8
0
0
POLYLINE
8
0
66
1
40
0.000000
41
0.000000
0
VERTEX
8
0
10
-0.119390
20
-0.489248
0
VERTEX
8
0
10
-0.001889
20
-0.489248
0
SEQEND
8
0
0
POLYLINE
8
0
66
1
40
0.000000
41
0.000000
0
VERTEX
8
0
10
-0.685193
20
-0.485311
0
VERTEX
8
0
10
-0.664242
20
-0.485311
0
SEQEND
8
0
0
POLYLINE
8
0
66
1
40
0.000000
41
0.000000
0
VERTEX
8
0
10
-0.119390
20
-0.485311
0
VERTEX
8
0
10
-0.001889
20
-0.485311
0
SEQEND
8
0
0
POLYLINE
8
0
66
1
40
0.000000
41
0.000000
0
VERTEX
8
0
10
-0.685193
20
-0.481374
0
VERTEX
8
0
10
-0.668179
20
-0.481374
0
SEQEND
8
0
0
POLYLINE
8
0
66
1
40
0.000000
41
0.000000
0
VERTEX
8
0
10
-0.119390
20
-0.481374
0
VERTEX
8
0
10
-0.001889
20
-0.481374
0
SEQEND
8
0
0
POLYLINE
8
0
66
1
40
0.000000
41
0.000000
0
VERTEX
8
0
10
-0.685193
20
-0.477437
0
VERTEX
8
0
10
-0.672116
20
-0.477437
0
SEQEND
8
0
0
POLYLINE
8
0
66
1
40
0.000000
41
0.000000
0
VERTEX
8
0
10
-0.119390
20
-0.477437
0
VERTEX
8
0
10
-0.001889
20
-0.477437
0
SEQEND
8
0
0
POLYLINE
8
0
66
1
40
0.000000
41
0.000000
0
VERTEX
8
0
10
-0.685193
20
-0.473500
0
VERTEX
8
0
10
-0.676053
20
-0.473500
0
SEQEND
8
0
0
POLYLINE
8
0
66
1
40
0.000000
41
0.000000
0
VERTEX
8
0
10
-0.119390
20
-0.473500
0
VERTEX
8
0
10
-0.001889
20
-0.473500
0
SEQEND
8
0
0
POLYLINE
8
0
66
1
40
0.000000
41
0.000000
0
VERTEX
8
0
10
-0.685193
20
-0.469563
0
VERTEX
8
0
10
-0.679990
20
-0.469563
0
SEQEND
8
0
0
POLYLINE
8
0
66
1
40
0.000000
41
0.000000
0
VERTEX
8
0
10
-0.119390
20
-0.469563
0
VERTEX
8
0
10
-0.001889
20
-0.469563
0
SEQEND
8
0
0
POLYLINE
8
0
66
1
40
0.000000
41
0.000000
0
VERTEX
8
0
10
-0.685193
20
-0.465626
0
VERTEX
8
0
10
-0.683927
20
-0.465626
0
SEQEND
8
0
0
POLYLINE
8
0
66
1
40
0.000000
41
0.000000
0
VERTEX
8
0
10
-0.119390
20
-0.465626
0
VERTEX
8
0
10
-0.000769
20
-0.465626
0
SEQEND
8
0
0
POLYLINE
8
0
66
1
40
0.000000
41
0.000000
0
VERTEX
8
0
10
-0.119390
20
-0.461689
0
VERTEX
8
0
10
0.003168
20
-0.461689
0
SEQEND
8
0
0
POLYLINE
8
0
66
1
40
0.000000
41
0.000000
0
VERTEX
8
0
10
-0.119390
20
-0.457752
0
VERTEX
8
0
10
0.007105
20
-0.457752
0
SEQEND
8
0
0
POLYLINE
8
0
66
1
40
0.000000
41
0.000000
0
VERTEX
8
0
10
-0.123001
20
-0.453815
0
VERTEX
8
0
10
0.011042
20
-0.453815
0
SEQEND
8
0
0
POLYLINE
8
0
66
1
40
0.000000
41
0.000000
0
VERTEX
8
0
10
-0.126938
20
-0.449878
0
VERTEX
8
0
10
0.014979
20
-0.449878
0
SEQEND
8
0
0
POLYLINE
8
0
66
1
40
0.000000
41
0.000000
0
VERTEX
8
0
10
-0.130875
20
-0.445941
0
VERTEX
8
0
10
0.018916
20
-0.445941
0
SEQEND
8
0
0
POLYLINE
8
0
66
1
40
0.000000
41
0.000000
0
VERTEX
8
0
10
-0.134812
20
-0.442004
0
VERTEX
8
0
10
0.022853
20
-0.442004
0
SEQEND
8
0
0
POLYLINE
8
0
66
1
40
0.000000
41
0.000000
0
VERTEX
8
0
10
-0.138749
20
-0.438067
0
VERTEX
8
0
10
0.026790
20
-0.438067
0
SEQEND
8
0
0
POLYLINE
8
0
66
1
40
0.000000
41
0.000000
0
VERTEX
8
0
10
-0.141890
20
-0.434130
0
VERTEX
8
0
10
0.030727
20
-0.434130
0
SEQEND
8
0
0
POLYLINE
8
0
66
1
40
0.000000
41
0.000000
0
VERTEX
8
0
10
-0.141890
20
-0.430193
0
VERTEX
8
0
10
0.034664
20
-0.430193
0
SEQEND
8
0
0
POLYLINE
8
0
66
1
40
0.000000
41
0.000000
0
VERTEX
8
0
10
-0.141890
20
-0.426256
0
VERTEX
8
0
10
0.131780
20
-0.426256
0
SEQEND
8
0
0
POLYLINE
8
0
66
1
40
0.000000
41
0.000000
0
VERTEX
8
0
10
-0.141890
20
-0.422319
0
VERTEX
8
0
10
0.135717
20
-0.422319
0
SEQEND
8
0
0
POLYLINE
8
0
66
1
40
0.000000
41
0.000000
0
VERTEX
8
0
10
-0.141890
20
-0.418382
0
VERTEX
8
0
10
0.139654
20
-0.418382
0
SEQEND
8
0
0
POLYLINE
8
0
66
1
40
0.000000
41
0.000000
0
VERTEX
8
0
10
-0.141890
20
-0.414445
0
VERTEX
8
0
10
0.079892
20
-0.414445
0
SEQEND
8
0
0
POLYLINE
8
0
66
1
40
0.000000
41
0.000000
0
VERTEX
8
0
10
-0.141890
20
-0.410508
0
VERTEX
8
0
10
0.075955
20
-0.410508
0
SEQEND
8
0
0
POLYLINE
8
0
66
1
40
0.000000
41
0.000000
0
VERTEX
8
0
10
-0.141890
20
-0.406571
0
VERTEX
8
0
10
0.072018
20
-0.406571
0
SEQEND
8
0
0
POLYLINE
8
0
66
1
40
0.000000
41
0.000000
0
VERTEX
8
0
10
-0.141890
20
-0.402634
0
VERTEX
8
0
10
0.068081
20
-0.402634
0
SEQEND
8
0
0
POLYLINE
8
0
66
1
40
0.000000
41
0.000000
0
VERTEX
8
0
10
-0.141890
20
-0.398697
0
VERTEX
8
0
10
0.064144
20
-0.398697
0
SEQEND
8
0
0
POLYLINE
8
0
66
1
40
0.000000
41
0.000000
0
VERTEX
8
0
10
-0.141890
20
-0.394760
0
VERTEX
8
0
10
0.060207
20
-0.394760
0
SEQEND
8
0
0
POLYLINE
8
0
66
1
40
0.000000
41
0.000000
0
VERTEX
8
0
10
-0.142813
20
-0.390823
0
VERTEX
8
0
10
0.056270
20
-0.390823
0
SEQEND
8
0
0
POLYLINE
8
0
66
1
40
0.000000
41
0.000000
0
VERTEX
8
0
10
-0.146750
20
-0.386886
0
VERTEX
8
0
10
0.052333
20
-0.386886
0
SEQEND
8
0
0
POLYLINE
8
0
66
1
40
0.000000
41
0.000000
0
VERTEX
8
0
10
-0.150687
20
-0.382949
0
VERTEX
8
0
10
0.048396
20
-0.382949
0
SEQEND
8
0
0
POLYLINE
8
0
66
1
40
0.000000
41
0.000000
0
VERTEX
8
0
10
-0.154624
20
-0.379012
0
VERTEX
8
0
10
0.044459
20
-0.379012
0
SEQEND
8
0
0
POLYLINE
8
0
66
1
40
0.000000
41
0.000000
0
VERTEX
8
0
10
-0.158561
20
-0.375075
0
VERTEX
8
0
10
0.040522
20
-0.375075
0
SEQEND
8
0
0
POLYLINE
8
0
66
1
40
0.000000
41
0.000000
0
VERTEX
8
0
10
-0.162498
20
-0.371138
0
VERTEX
8
0
10
0.036585
20
-0.371138
0
SEQEND
8
0
0
POLYLINE
8
0
66
1
40
0.000000
41
0.000000
0
VERTEX
8
0
10
-0.166435
20
-0.367201
0
VERTEX
8
0
10
0.032648
20
-0.367201
0
SEQEND
8
0
0
POLYLINE
8
0
66
1
40
0.000000
41
0.000000
0
VERTEX
8
0
10
-0.170372
20
-0.363264
0
VERTEX
8
0
10
0.028711
20
-0.363264
0
SEQEND
8
0
0
POLYLINE
8
0
66
1
40
0.000000
41
0.000000
0
VERTEX
8
0
10
-0.174309
20
-0.359327
0
VERTEX
8
0
10
0.024774
20
-0.359327
0
SEQEND
8
0
0
POLYLINE
8
0
66
1
40
0.000000
41
0.000000
0
VERTEX
8
0
10
-0.178246
20
-0.355390
0
VERTEX
8
0
10
0.020837
20
-0.355390
0
SEQEND
8
0
0
POLYLINE
8
0
66
1
40
0.000000
41
0.000000
0
VERTEX
8
0
10
-0.182183
20
-0.351453
0
VERTEX
8
0
10
0.016900
20
-0.351453
0
SEQEND
8
0
0
POLYLINE
8
0
66
1
40
0.000000
41
0.000000
0
VERTEX
8
0
10
-0.186120
20
-0.347516
0
VERTEX
8
0
10
0.012963
20
-0.347516
0
SEQEND
8
0
0
POLYLINE
8
0
66
1
40
0.000000
41
0.000000
0
VERTEX
8
0
10
-0.190057
20
-0.343579
0
VERTEX
8
0
10
0.009026
20
-0.343579
0
SEQEND
8
0
0
POLYLINE
8
0
66
1
40
0.000000
41
0.000000
0
VERTEX
8
0
10
-0.191890
20
-0.339642
0
VERTEX
8
0
10
0.005089
20
-0.339642
0
SEQEND
8
0
0
POLYLINE
8
0
66
1
40
0.000000
41
0.000000
0
VERTEX
8
0
10
-0.191890
20
-0.335705
0
VERTEX
8
0
10
0.001152
20
-0.335705
0
SEQEND
8
0
0
POLYLINE
8
0
66
1
40
0.000000
41
0.000000
0
VERTEX
8
0
10
-0.191890
20
-0.331768
0
VERTEX
8
0
10
-0.002785
20
-0.331768
0
SEQEND
8
0
0
POLYLINE
8
0
66
1
40
0.000000
41
0.000000
0
VERTEX
8
0
10
-0.191890
20
-0.327831
0
VERTEX
8
0
10
-0.006722
20
-0.327831
0
SEQEND
8
0
0
POLYLINE
8
0
66
1
40
0.000000
41
0.000000
0
VERTEX
8
0
10
-0.191890
20
-0.324704
0
VERTEX
8
0
10
-0.009848
20
-0.324704
0
SEQEND
8
0
0
POLYLINE
8
0
66
1
40
0.060000
41
0.060000
0
VERTEX
8
0
10
0.060243
20
-0.394796
0
VERTEX
8
0
10
0.080014
20
-0.414567
0
VERTEX
8
0
10
0.143470
20
-0.414567
0
VERTEX
8
0
10
0.130831
20
-0.427205
0
VERTEX
8
0
10
0.037652
20
-0.427205
0
VERTEX
8
0
10
-0.001889
20
-0.466746
0
VERTEX
8
0
10
-0.001889
20
-0.582663
0
VERTEX
8
0
10
0.020152
20
-0.604705
0
VERTEX
8
0
10
0.003331
20
-0.604705
0
VERTEX
8
0
10
-0.049389
20
-0.657426
0
VERTEX
8
0
10
-0.049389
20
-0.731984
0
VERTEX
8
0
10
0.003331
20
-0.784704
0
VERTEX
8
0
10
0.077889
20
-0.784704
0
VERTEX
8
0
10
0.100389
20
-0.762204
0
VERTEX
8
0
10
0.175808
20
-0.762204
0
VERTEX
8
0
10
0.248308
20
-0.689704
0
VERTEX
8
0
10
0.279960
20
-0.689704
0
VERTEX
8
0
10
0.293760
20
-0.675905
0
VERTEX
8
0
10
0.307559
20
-0.689704
0
VERTEX
8
0
10
0.386259
20
-0.689704
0
VERTEX
8
0
10
0.395611
20
-0.680353
0
VERTEX
8
0
10
0.395611
20
-0.809263
0
VERTEX
8
0
10
0.422052
20
-0.835705
0
VERTEX
8
0
10
-0.685193
20
-0.835705
0
VERTEX
8
0
10
-0.685193
20
-0.464359
0
VERTEX
8
0
10
-0.449389
20
-0.700163
0
VERTEX
8
0
10
-0.449389
20
-0.731984
0
VERTEX
8
0
10
-0.396669
20
-0.784704
0
VERTEX
8
0
10
-0.322111
20
-0.784704
0
VERTEX
8
0
10
-0.269390
20
-0.731984
0
VERTEX
8
0
10
-0.269390
20
-0.657426
0
VERTEX
8
0
10
-0.322111
20
-0.604705
0
VERTEX
8
0
10
-0.353931
20
-0.604705
0
VERTEX
8
0
10
-0.418932
20
-0.539704
0
VERTEX
8
0
10
-0.314390
20
-0.539704
0
VERTEX
8
0
10
-0.314390
20
-0.512204
0
VERTEX
8
0
10
-0.306431
20
-0.512204
0
VERTEX
8
0
10
-0.299389
20
-0.505163
0
VERTEX
8
0
10
-0.299389
20
-0.531984
0
VERTEX
8
0
10
-0.246669
20
-0.584704
0
VERTEX
8
0
10
-0.172111
20
-0.584704
0
VERTEX
8
0
10
-0.119390
20
-0.531984
0
VERTEX
8
0
10
-0.119390
20
-0.457426
0
VERTEX
8
0
10
-0.141890
20
-0.434926
0
VERTEX
8
0
10
-0.141890
20
-0.391746
0
VERTEX
8
0
10
-0.191890
20
-0.341746
0
VERTEX
8
0
10
-0.191890
20
-0.324704
0
VERTEX
8
0
10
-0.009848
20
-0.324704
0
VERTEX
8
0
10
0.060243
20
-0.394796
0
SEQEND
8
0
0
POLYLINE
8
0
66
1
40
0.000000
41
0.000000
0
VERTEX
8
0
10
-0.440241
20
0.835705
0
VERTEX
8
0
10
-0.440241
20
0.835705
0
SEQEND
8
0
0
POLYLINE
8
0
66
1
40
0.000000
41
0.000000
0
VERTEX
8
0
10
-0.436304
20
0.831768
0
VERTEX
8
0
10
-0.436304
20
0.835705
0
SEQEND
8
0
0
POLYLINE
8
0
66
1
40
0.000000
41
0.000000
0
VERTEX
8
0
10
-0.432367
20
0.827831
0
VERTEX
8
0
10
-0.432367
20
0.835705
0
SEQEND
8
0
0
POLYLINE
8
0
66
1
40
0.000000
41
0.000000
0
VERTEX
8
0
10
-0.428430
20
0.823894
0
VERTEX
8
0
10
-0.428430
20
0.835705
0
SEQEND
8
0
0
POLYLINE
8
0
66
1
40
0.000000
41
0.000000
0
VERTEX
8
0
10
-0.424493
20
0.819957
0
VERTEX
8
0
10
-0.424493
20
0.835705
0
SEQEND
8
0
0
POLYLINE
8
0
66
1
40
0.000000
41
0.000000
0
VERTEX
8
0
10
-0.420556
20
0.816020
0
VERTEX
8
0
10
-0.420556
20
0.835705
0
SEQEND
8
0
0
POLYLINE
8
0
66
1
40
0.000000
41
0.000000
0
VERTEX
8
0
10
-0.416619
20
0.812083
0
VERTEX
8
0
10
-0.416619
20
0.835705
0
SEQEND
8
0
0
POLYLINE
8
0
66
1
40
0.000000
41
0.000000
0
VERTEX
8
0
10
-0.412682
20
0.808146
0
VERTEX
8
0
10
-0.412682
20
0.835705
0
SEQEND
8
0
0
POLYLINE
8
0
66
1
40
0.000000
41
0.000000
0
VERTEX
8
0
10
-0.408745
20
0.804209
0
VERTEX
8
0
10
-0.408745
20
0.835705
0
SEQEND
8
0
0
POLYLINE
8
0
66
1
40
0.000000
41
0.000000
0
VERTEX
8
0
10
-0.404808
20
0.800272
0
VERTEX
8
0
10
-0.404808
20
0.835705
0
SEQEND
8
0
0
POLYLINE
8
0
66
1
40
0.000000
41
0.000000
0
VERTEX
8
0
10
-0.400871
20
0.796335
0
VERTEX
8
0
10
-0.400871
20
0.835705
0
SEQEND
8
0
0
POLYLINE
8
0
66
1
40
0.000000
41
0.000000
0
VERTEX
8
0
10
-0.396934
20
0.792398
0
VERTEX
8
0
10
-0.396934
20
0.835705
0
SEQEND
8
0
0
POLYLINE
8
0
66
1
40
0.000000
41
0.000000
0
VERTEX
8
0
10
-0.392997
20
0.732146
0
VERTEX
8
0
10
-0.392997
20
0.835705
0
SEQEND
8
0
0
POLYLINE
8
0
66
1
40
0.000000
41
0.000000
0
VERTEX
8
0
10
-0.389060
20
0.736083
0
VERTEX
8
0
10
-0.389060
20
0.835705
0
SEQEND
8
0
0
POLYLINE
8
0
66
1
40
0.000000
41
0.000000
0
VERTEX
8
0
10
-0.385123
20
0.740020
0
VERTEX
8
0
10
-0.385123
20
0.835705
0
SEQEND
8
0
0
POLYLINE
8
0
66
1
40
0.000000
41
0.000000
0
VERTEX
8
0
10
-0.381186
20
0.743957
0
VERTEX
8
0
10
-0.381186
20
0.835705
0
SEQEND
8
0
0
POLYLINE
8
0
66
1
40
0.000000
41
0.000000
0
VERTEX
8
0
10
-0.377249
20
0.747894
0
VERTEX
8
0
10
-0.377249
20
0.835705
0
SEQEND
8
0
0
POLYLINE
8
0
66
1
40
0.000000
41
0.000000
0
VERTEX
8
0
10
-0.373312
20
0.751831
0
VERTEX
8
0
10
-0.373312
20
0.835705
0
SEQEND
8
0
0
POLYLINE
8
0
66
1
40
0.000000
41
0.000000
0
VERTEX
8
0
10
-0.369375
20
0.755768
0
VERTEX
8
0
10
-0.369375
20
0.835705
0
SEQEND
8
0
0
POLYLINE
8
0
66
1
40
0.000000
41
0.000000
0
VERTEX
8
0
10
-0.365438
20
0.759705
0
VERTEX
8
0
10
-0.365438
20
0.835705
0
SEQEND
8
0
0
POLYLINE
8
0
66
1
40
0.000000
41
0.000000
0
VERTEX
8
0
10
-0.361501
20
0.763642
0
VERTEX
8
0
10
-0.361501
20
0.835705
0
SEQEND
8
0
0
POLYLINE
8
0
66
1
40
0.000000
41
0.000000
0
VERTEX
8
0
10
-0.357564
20
0.767580
0
VERTEX
8
0
10
-0.357564
20
0.835705
0
SEQEND
8
0
0
POLYLINE
8
0
66
1
40
0.000000
41
0.000000
0
VERTEX
8
0
10
-0.353627
20
0.771517
0
VERTEX
8
0
10
-0.353627
20
0.835705
0
SEQEND
8
0
0
POLYLINE
8
0
66
1
40
0.000000
41
0.000000
0
VERTEX
8
0
10
-0.349690
20
0.775454
0
VERTEX
8
0
10
-0.349690
20
0.835705
0
SEQEND
8
0
0
POLYLINE
8
0
66
1
40
0.000000
41
0.000000
0
VERTEX
8
0
10
-0.345753
20
0.779391
0
VERTEX
8
0
10
-0.345753
20
0.835705
0
SEQEND
8
0
0
POLYLINE
8
0
66
1
40
0.000000
41
0.000000
0
VERTEX
8
0
10
-0.341816
20
0.783328
0
VERTEX
8
0
10
-0.341816
20
0.835705
0
SEQEND
8
0
0
POLYLINE
8
0
66
1
40
0.000000
41
0.000000
0
VERTEX
8
0
10
-0.337879
20
0.787265
0
VERTEX
8
0
10
-0.337879
20
0.835705
0
SEQEND
8
0
0
POLYLINE
8
0
66
1
40
0.000000
41
0.000000
0
VERTEX
8
0
10
-0.333942
20
0.791202
0
VERTEX
8
0
10
-0.333942
20
0.835705
0
SEQEND
8
0
0
POLYLINE
8
0
66
1
40
0.000000
41
0.000000
0
VERTEX
8
0
10
-0.330005
20
0.795139
0
VERTEX
8
0
10
-0.330005
20
0.835705
0
SEQEND
8
0
0
POLYLINE
8
0
66
1
40
0.000000
41
0.000000
0
VERTEX
8
0
10
-0.326068
20
0.797795
0
VERTEX
8
0
10
-0.326068
20
0.835705
0
SEQEND
8
0
0
POLYLINE
8
0
66
1
40
0.000000
41
0.000000
0
VERTEX
8
0
10
-0.322131
20
0.797795
0
VERTEX
8
0
10
-0.322131
20
0.835705
0
SEQEND
8
0
0
POLYLINE
8
0
66
1
40
0.000000
41
0.000000
0
VERTEX
8
0
10
-0.318194
20
0.797795
0
VERTEX
8
0
10
-0.318194
20
0.835705
0
SEQEND
8
0
0
POLYLINE
8
0
66
1
40
0.000000
41
0.000000
0
VERTEX
8
0
10
-0.314257
20
0.797795
0
VERTEX
8
0
10
-0.314257
20
0.835705
0
SEQEND
8
0
0
POLYLINE
8
0
66
1
40
0.000000
41
0.000000
0
VERTEX
8
0
10
-0.310320
20
0.797795
0
VERTEX
8
0
10
-0.310320
20
0.835705
0
SEQEND
8
0
0
POLYLINE
8
0
66
1
40
0.000000
41
0.000000
0
VERTEX
8
0
10
-0.306383
20
0.797795
0
VERTEX
8
0
10
-0.306383
20
0.835705
0
SEQEND
8
0
0
POLYLINE
8
0
66
1
40
0.000000
41
0.000000
0
VERTEX
8
0
10
-0.302446
20
0.797795
0
VERTEX
8
0
10
-0.302446
20
0.835705
0
SEQEND
8
0
0
POLYLINE
8
0
66
1
40
0.000000
41
0.000000
0
VERTEX
8
0
10
-0.298509
20
0.797795
0
VERTEX
8
0
10
-0.298509
20
0.835705
0
SEQEND
8
0
0
POLYLINE
8
0
66
1
40
0.000000
41
0.000000
0
VERTEX
8
0
10
-0.294572
20
0.797795
0
VERTEX
8
0
10
-0.294572
20
0.835705
0
SEQEND
8
0
0
POLYLINE
8
0
66
1
40
0.000000
41
0.000000
0
VERTEX
8
0
10
-0.290635
20
0.797795
0
VERTEX
8
0
10
-0.290635
20
0.835705
0
SEQEND
8
0
0
POLYLINE
8
0
66
1
40
0.000000
41
0.000000
0
VERTEX
8
0
10
-0.286698
20
0.797795
0
VERTEX
8
0
10
-0.286698
20
0.835705
0
SEQEND
8
0
0
POLYLINE
8
0
66
1
40
0.000000
41
0.000000
0
VERTEX
8
0
10
-0.282761
20
0.797795
0
VERTEX
8
0
10
-0.282761
20
0.835705
0
SEQEND
8
0
0
POLYLINE
8
0
66
1
40
0.000000
41
0.000000
0
VERTEX
8
0
10
-0.278824
20
0.797795
0
VERTEX
8
0
10
-0.278824
20
0.835705
0
SEQEND
8
0
0
POLYLINE
8
0
66
1
40
0.000000
41
0.000000
0
VERTEX
8
0
10
-0.274887
20
0.797795
0
VERTEX
8
0
10
-0.274887
20
0.835705
0
SEQEND
8
0
0
POLYLINE
8
0
66
1
40
0.000000
41
0.000000
0
VERTEX
8
0
10
-0.270950
20
0.797795
0
VERTEX
8
0
10
-0.270950
20
0.835705
0
SEQEND
8
0
0
POLYLINE
8
0
66
1
40
0.000000
41
0.000000
0
VERTEX
8
0
10
-0.267013
20
0.797795
0
VERTEX
8
0
10
-0.267013
20
0.835705
0
SEQEND
8
0
0
POLYLINE
8
0
66
1
40
0.000000
41
0.000000
0
VERTEX
8
0
10
-0.263076
20
0.797795
0
VERTEX
8
0
10
-0.263076
20
0.835705
0
SEQEND
8
0
0
POLYLINE
8
0
66
1
40
0.000000
41
0.000000
0
VERTEX
8
0
10
-0.259139
20
0.797795
0
VERTEX
8
0
10
-0.259139
20
0.835705
0
SEQEND
8
0
0
POLYLINE
8
0
66
1
40
0.000000
41
0.000000
0
VERTEX
8
0
10
-0.255202
20
0.797795
0
VERTEX
8
0
10
-0.255202
20
0.835705
0
SEQEND
8
0
0
POLYLINE
8
0
66
1
40
0.000000
41
0.000000
0
VERTEX
8
0
10
-0.251265
20
0.797795
0
VERTEX
8
0
10
-0.251265
20
0.835705
0
SEQEND
8
0
0
POLYLINE
8
0
66
1
40
0.000000
41
0.000000
0
VERTEX
8
0
10
-0.247328
20
0.797795
0
VERTEX
8
0
10
-0.247328
20
0.835705
0
SEQEND
8
0
0
POLYLINE
8
0
66
1
40
0.000000
41
0.000000
0
VERTEX
8
0
10
-0.243391
20
0.797795
0
VERTEX
8
0
10
-0.243391
20
0.835705
0
SEQEND
8
0
0
POLYLINE
8
0
66
1
40
0.000000
41
0.000000
0
VERTEX
8
0
10
-0.239454
20
0.797795
0
VERTEX
8
0
10
-0.239454
20
0.835705
0
SEQEND
8
0
0
POLYLINE
8
0
66
1
40
0.000000
41
0.000000
0
VERTEX
8
0
10
-0.235517
20
0.797795
0
VERTEX
8
0
10
-0.235517
20
0.835705
0
SEQEND
8
0
0
POLYLINE
8
0
66
1
40
0.000000
41
0.000000
0
VERTEX
8
0
10
-0.231580
20
0.797795
0
VERTEX
8
0
10
-0.231580
20
0.835705
0
SEQEND
8
0
0
POLYLINE
8
0
66
1
40
0.000000
41
0.000000
0
VERTEX
8
0
10
-0.227643
20
0.797795
0
VERTEX
8
0
10
-0.227643
20
0.835705
0
SEQEND
8
0
0
POLYLINE
8
0
66
1
40
0.000000
41
0.000000
0
VERTEX
8
0
10
-0.223706
20
0.797795
0
VERTEX
8
0
10
-0.223706
20
0.835705
0
SEQEND
8
0
0
POLYLINE
8
0
66
1
40
0.000000
41
0.000000
0
VERTEX
8
0
10
-0.219769
20
0.797795
0
VERTEX
8
0
10
-0.219769
20
0.835705
0
SEQEND
8
0
0
POLYLINE
8
0
66
1
40
0.000000
41
0.000000
0
VERTEX
8
0
10
-0.215832
20
0.797795
0
VERTEX
8
0
10
-0.215832
20
0.835705
0
SEQEND
8
0
0
POLYLINE
8
0
66
1
40
0.000000
41
0.000000
0
VERTEX
8
0
10
-0.211895
20
0.797795
0
VERTEX
8
0
10
-0.211895
20
0.835705
0
SEQEND
8
0
0
POLYLINE
8
0
66
1
40
0.000000
41
0.000000
0
VERTEX
8
0
10
-0.207958
20
0.797795
0
VERTEX
8
0
10
-0.207958
20
0.835705
0
SEQEND
8
0
0
POLYLINE
8
0
66
1
40
0.000000
41
0.000000
0
VERTEX
8
0
10
-0.204021
20
0.797795
0
VERTEX
8
0
10
-0.204021
20
0.835705
0
SEQEND
8
0
0
POLYLINE
8
0
66
1
40
0.000000
41
0.000000
0
VERTEX
8
0
10
-0.200084
20
0.797795
0
VERTEX
8
0
10
-0.200084
20
0.835705
0
SEQEND
8
0
0
POLYLINE
8
0
66
1
40
0.000000
41
0.000000
0
VERTEX
8
0
10
-0.196147
20
0.797795
0
VERTEX
8
0
10
-0.196147
20
0.835705
0
SEQEND
8
0
0
POLYLINE
8
0
66
1
40
0.000000
41
0.000000
0
VERTEX
8
0
10
-0.192210
20
0.797795
0
VERTEX
8
0
10
-0.192210
20
0.835705
0
SEQEND
8
0
0
POLYLINE
8
0
66
1
40
0.000000
41
0.000000
0
VERTEX
8
0
10
-0.188273
20
0.797795
0
VERTEX
8
0
10
-0.188273
20
0.835705
0
SEQEND
8
0
0
POLYLINE
8
0
66
1
40
0.000000
41
0.000000
0
VERTEX
8
0
10
-0.184336
20
0.797795
0
VERTEX
8
0
10
-0.184336
20
0.835705
0
SEQEND
8
0
0
POLYLINE
8
0
66
1
40
0.000000
41
0.000000
0
VERTEX
8
0
10
-0.180399
20
0.797795
0
VERTEX
8
0
10
-0.180399
20
0.835705
0
SEQEND
8
0
0
POLYLINE
8
0
66
1
40
0.000000
41
0.000000
0
VERTEX
8
0
10
-0.176462
20
0.797795
0
VERTEX
8
0
10
-0.176462
20
0.835705
0
SEQEND
8
0
0
POLYLINE
8
0
66
1
40
0.000000
41
0.000000
0
VERTEX
8
0
10
-0.172525
20
0.797795
0
VERTEX
8
0
10
-0.172525
20
0.835705
0
SEQEND
8
0
0
POLYLINE
8
0
66
1
40
0.000000
41
0.000000
0
VERTEX
8
0
10
-0.168588
20
0.797795
0
VERTEX
8
0
10
-0.168588
20
0.835705
0
SEQEND
8
0
0
POLYLINE
8
0
66
1
40
0.000000
41
0.000000
0
VERTEX
8
0
10
-0.164651
20
0.797795
0
VERTEX
8
0
10
-0.164651
20
0.835705
0
SEQEND
8
0
0
POLYLINE
8
0
66
1
40
0.000000
41
0.000000
0
VERTEX
8
0
10
-0.160714
20
0.797795
0
VERTEX
8
0
10
-0.160714
20
0.835705
0
SEQEND
8
0
0
POLYLINE
8
0
66
1
40
0.000000
41
0.000000
0
VERTEX
8
0
10
-0.156777
20
0.797795
0
VERTEX
8
0
10
-0.156777
20
0.835705
0
SEQEND
8
0
0
POLYLINE
8
0
66
1
40
0.000000
41
0.000000
0
VERTEX
8
0
10
-0.152840
20
0.797795
0
VERTEX
8
0
10
-0.152840
20
0.835705
0
SEQEND
8
0
0
POLYLINE
8
0
66
1
40
0.000000
41
0.000000
0
VERTEX
8
0
10
-0.148903
20
0.797795
0
VERTEX
8
0
10
-0.148903
20
0.835705
0
SEQEND
8
0
0
POLYLINE
8
0
66
1
40
0.000000
41
0.000000
0
VERTEX
8
0
10
-0.144966
20
0.797795
0
VERTEX
8
0
10
-0.144966
20
0.835705
0
SEQEND
8
0
0
POLYLINE
8
0
66
1
40
0.000000
41
0.000000
0
VERTEX
8
0
10
-0.141029
20
0.797795
0
VERTEX
8
0
10
-0.141029
20
0.835705
0
SEQEND
8
0
0
POLYLINE
8
0
66
1
40
0.000000
41
0.000000
0
VERTEX
8
0
10
-0.137092
20
0.797795
0
VERTEX
8
0
10
-0.137092
20
0.835705
0
SEQEND
8
0
0
POLYLINE
8
0
66
1
40
0.000000
41
0.000000
0
VERTEX
8
0
10
-0.133155
20
0.797795
0
VERTEX
8
0
10
-0.133155
20
0.835705
0
SEQEND
8
0
0
POLYLINE
8
0
66
1
40
0.000000
41
0.000000
0
VERTEX
8
0
10
-0.129218
20
0.797795
0
VERTEX
8
0
10
-0.129218
20
0.835705
0
SEQEND
8
0
0
POLYLINE
8
0
66
1
40
0.000000
41
0.000000
0
VERTEX
8
0
10
-0.125281
20
0.797795
0
VERTEX
8
0
10
-0.125281
20
0.835705
0
SEQEND
8
0
0
POLYLINE
8
0
66
1
40
0.000000
41
0.000000
0
VERTEX
8
0
10
-0.121344
20
0.797795
0
VERTEX
8
0
10
-0.121344
20
0.835705
0
SEQEND
8
0
0
POLYLINE
8
0
66
1
40
0.000000
41
0.000000
0
VERTEX
8
0
10
-0.117407
20
0.797795
0
VERTEX
8
0
10
-0.117407
20
0.835705
0
SEQEND
8
0
0
POLYLINE
8
0
66
1
40
0.000000
41
0.000000
0
VERTEX
8
0
10
-0.113470
20
0.797795
0
VERTEX
8
0
10
-0.113470
20
0.835705
0
SEQEND
8
0
0
POLYLINE
8
0
66
1
40
0.000000
41
0.000000
0
VERTEX
8
0
10
-0.109533
20
0.797795
0
VERTEX
8
0
10
-0.109533
20
0.835705
0
SEQEND
8
0
0
POLYLINE
8
0
66
1
40
0.000000
41
0.000000
0
VERTEX
8
0
10
-0.105596
20
0.797795
0
VERTEX
8
0
10
-0.105596
20
0.835705
0
SEQEND
8
0
0
POLYLINE
8
0
66
1
40
0.000000
41
0.000000
0
VERTEX
8
0
10
-0.101659
20
0.797795
0
VERTEX
8
0
10
-0.101659
20
0.835705
0
SEQEND
8
0
0
POLYLINE
8
0
66
1
40
0.000000
41
0.000000
0
VERTEX
8
0
10
-0.097722
20
0.797795
0
VERTEX
8
0
10
-0.097722
20
0.835705
0
SEQEND
8
0
0
POLYLINE
8
0
66
1
40
0.000000
41
0.000000
0
VERTEX
8
0
10
-0.093785
20
0.797795
0
VERTEX
8
0
10
-0.093785
20
0.835705
0
SEQEND
8
0
0
POLYLINE
8
0
66
1
40
0.000000
41
0.000000
0
VERTEX
8
0
10
-0.089848
20
0.797795
0
VERTEX
8
0
10
-0.089848
20
0.835705
0
SEQEND
8
0
0
POLYLINE
8
0
66
1
40
0.000000
41
0.000000
0
VERTEX
8
0
10
-0.085911
20
0.797795
0
VERTEX
8
0
10
-0.085911
20
0.835705
0
SEQEND
8
0
0
POLYLINE
8
0
66
1
40
0.000000
41
0.000000
0
VERTEX
8
0
10
-0.081974
20
0.797795
0
VERTEX
8
0
10
-0.081974
20
0.835705
0
SEQEND
8
0
0
POLYLINE
8
0
66
1
40
0.000000
41
0.000000
0
VERTEX
8
0
10
-0.078037
20
0.797795
0
VERTEX
8
0
10
-0.078037
20
0.835705
0
SEQEND
8
0
0
POLYLINE
8
0
66
1
40
0.000000
41
0.000000
0
VERTEX
8
0
10
-0.074100
20
0.797795
0
VERTEX
8
0
10
-0.074100
20
0.835705
0
SEQEND
8
0
0
POLYLINE
8
0
66
1
40
0.000000
41
0.000000
0
VERTEX
8
0
10
-0.070163
20
0.797795
0
VERTEX
8
0
10
-0.070163
20
0.835705
0
SEQEND
8
0
0
POLYLINE
8
0
66
1
40
0.000000
41
0.000000
0
VERTEX
8
0
10
-0.066226
20
0.797795
0
VERTEX
8
0
10
-0.066226
20
0.835705
0
SEQEND
8
0
0
POLYLINE
8
0
66
1
40
0.000000
41
0.000000
0
VERTEX
8
0
10
-0.062289
20
0.797795
0
VERTEX
8
0
10
-0.062289
20
0.835705
0
SEQEND
8
0
0
POLYLINE
8
0
66
1
40
0.000000
41
0.000000
0
VERTEX
8
0
10
-0.058352
20
0.797795
0
VERTEX
8
0
10
-0.058352
20
0.835705
0
SEQEND
8
0
0
POLYLINE
8
0
66
1
40
0.000000
41
0.000000
0
VERTEX
8
0
10
-0.054415
20
0.797795
0
VERTEX
8
0
10
-0.054415
20
0.835705
0
SEQEND
8
0
0
POLYLINE
8
0
66
1
40
0.000000
41
0.000000
0
VERTEX
8
0
10
-0.050478
20
0.797795
0
VERTEX
8
0
10
-0.050478
20
0.835705
0
SEQEND
8
0
0
POLYLINE
8
0
66
1
40
0.000000
41
0.000000
0
VERTEX
8
0
10
-0.046541
20
0.797795
0
VERTEX
8
0
10
-0.046541
20
0.835705
0
SEQEND
8
0
0
POLYLINE
8
0
66
1
40
0.000000
41
0.000000
0
VERTEX
8
0
10
-0.042604
20
0.797795
0
VERTEX
8
0
10
-0.042604
20
0.835705
0
SEQEND
8
0
0
POLYLINE
8
0
66
1
40
0.000000
41
0.000000
0
VERTEX
8
0
10
-0.038667
20
0.797795
0
VERTEX
8
0
10
-0.038667
20
0.835705
0
SEQEND
8
0
0
POLYLINE
8
0
66
1
40
0.000000
41
0.000000
0
VERTEX
8
0
10
-0.034730
20
0.797795
0
VERTEX
8
0
10
-0.034730
20
0.835705
0
SEQEND
8
0
0
POLYLINE
8
0
66
1
40
0.000000
41
0.000000
0
VERTEX
8
0
10
-0.030793
20
0.797795
0
VERTEX
8
0
10
-0.030793
20
0.835705
0
SEQEND
8
0
0
POLYLINE
8
0
66
1
40
0.000000
41
0.000000
0
VERTEX
8
0
10
-0.026856
20
0.797795
0
VERTEX
8
0
10
-0.026856
20
0.835705
0
SEQEND
8
0
0
POLYLINE
8
0
66
1
40
0.000000
41
0.000000
0
VERTEX
8
0
10
-0.022919
20
0.797795
0
VERTEX
8
0
10
-0.022919
20
0.835705
0
SEQEND
8
0
0
POLYLINE
8
0
66
1
40
0.000000
41
0.000000
0
VERTEX
8
0
10
-0.018981
20
0.797795
0
VERTEX
8
0
10
-0.018981
20
0.835705
0
SEQEND
8
0
0
POLYLINE
8
0
66
1
40
0.000000
41
0.000000
0
VERTEX
8
0
10
-0.015044
20
0.797795
0
VERTEX
8
0
10
-0.015044
20
0.835705
0
SEQEND
8
0
0
POLYLINE
8
0
66
1
40
0.000000
41
0.000000
0
VERTEX
8
0
10
-0.011107
20
0.797795
0
VERTEX
8
0
10
-0.011107
20
0.835705
0
SEQEND
8
0
0
POLYLINE
8
0
66
1
40
0.000000
41
0.000000
0
VERTEX
8
0
10
-0.007170
20
0.797795
0
VERTEX
8
0
10
-0.007170
20
0.835705
0
SEQEND
8
0
0
POLYLINE
8
0
66
1
40
0.000000
41
0.000000
0
VERTEX
8
0
10
-0.003233
20
0.797795
0
VERTEX
8
0
10
-0.003233
20
0.835705
0
SEQEND
8
0
0
POLYLINE
8
0
66
1
40
0.000000
41
0.000000
0
VERTEX
8
0
10
0.000704
20
0.797795
0
VERTEX
8
0
10
0.000704
20
0.835705
0
SEQEND
8
0
0
POLYLINE
8
0
66
1
40
0.000000
41
0.000000
0
VERTEX
8
0
10
0.004641
20
0.797795
0
VERTEX
8
0
10
0.004641
20
0.835705
0
SEQEND
8
0
0
POLYLINE
8
0
66
1
40
0.000000
41
0.000000
0
VERTEX
8
0
10
0.008578
20
0.797795
0
VERTEX
8
0
10
0.008578
20
0.835705
0
SEQEND
8
0
0
POLYLINE
8
0
66
1
40
0.000000
41
0.000000
0
VERTEX
8
0
10
0.012515
20
0.797795
0
VERTEX
8
0
10
0.012515
20
0.835705
0
SEQEND
8
0
0
POLYLINE
8
0
66
1
40
0.000000
41
0.000000
0
VERTEX
8
0
10
0.016452
20
0.797795
0
VERTEX
8
0
10
0.016452
20
0.835705
0
SEQEND
8
0
0
POLYLINE
8
0
66
1
40
0.000000
41
0.000000
0
VERTEX
8
0
10
0.020389
20
0.797795
0
VERTEX
8
0
10
0.020389
20
0.835705
0
SEQEND
8
0
0
POLYLINE
8
0
66
1
40
0.000000
41
0.000000
0
VERTEX
8
0
10
0.024326
20
0.797795
0
VERTEX
8
0
10
0.024326
20
0.835705
0
SEQEND
8
0
0
POLYLINE
8
0
66
1
40
0.000000
41
0.000000
0
VERTEX
8
0
10
0.028263
20
0.797795
0
VERTEX
8
0
10
0.028263
20
0.835705
0
SEQEND
8
0
0
POLYLINE
8
0
66
1
40
0.000000
41
0.000000
0
VERTEX
8
0
10
0.032200
20
0.797795
0
VERTEX
8
0
10
0.032200
20
0.835705
0
SEQEND
8
0
0
POLYLINE
8
0
66
1
40
0.000000
41
0.000000
0
VERTEX
8
0
10
0.036137
20
0.797795
0
VERTEX
8
0
10
0.036137
20
0.835705
0
SEQEND
8
0
0
POLYLINE
8
0
66
1
40
0.000000
41
0.000000
0
VERTEX
8
0
10
0.040074
20
0.797795
0
VERTEX
8
0
10
0.040074
20
0.835705
0
SEQEND
8
0
0
POLYLINE
8
0
66
1
40
0.000000
41
0.000000
0
VERTEX
8
0
10
0.044011
20
0.797795
0
VERTEX
8
0
10
0.044011
20
0.835705
0
SEQEND
8
0
0
POLYLINE
8
0
66
1
40
0.000000
41
0.000000
0
VERTEX
8
0
10
0.047948
20
0.150295
0
VERTEX
8
0
10
0.047948
20
0.152054
0
SEQEND
8
0
0
POLYLINE
8
0
66
1
40
0.000000
41
0.000000
0
VERTEX
8
0
10
0.047948
20
0.797795
0
VERTEX
8
0
10
0.047948
20
0.835705
0
SEQEND
8
0
0
POLYLINE
8
0
66
1
40
0.000000
41
0.000000
0
VERTEX
8
0
10
0.051885
20
0.150295
0
VERTEX
8
0
10
0.051885
20
0.155991
0
SEQEND
8
0
0
POLYLINE
8
0
66
1
40
0.000000
41
0.000000
0
VERTEX
8
0
10
0.051885
20
0.797795
0
VERTEX
8
0
10
0.051885
20
0.835705
0
SEQEND
8
0
0
POLYLINE
8
0
66
1
40
0.000000
41
0.000000
0
VERTEX
8
0
10
0.055822
20
0.150295
0
VERTEX
8
0
10
0.055822
20
0.157933
0
SEQEND
8
0
0
POLYLINE
8
0
66
1
40
0.000000
41
0.000000
0
VERTEX
8
0
10
0.055822
20
0.797795
0
VERTEX
8
0
10
0.055822
20
0.835705
0
SEQEND
8
0
0
POLYLINE
8
0
66
1
40
0.000000
41
0.000000
0
VERTEX
8
0
10
0.059759
20
0.150295
0
VERTEX
8
0
10
0.059759
20
0.157933
0
SEQEND
8
0
0
POLYLINE
8
0
66
1
40
0.000000
41
0.000000
0
VERTEX
8
0
10
0.059759
20
0.797795
0
VERTEX
8
0
10
0.059759
20
0.835705
0
SEQEND
8
0
0
POLYLINE
8
0
66
1
40
0.000000
41
0.000000
0
VERTEX
8
0
10
0.063696
20
0.150295
0
VERTEX
8
0
10
0.063696
20
0.157933
0
SEQEND
8
0
0
POLYLINE
8
0
66
1
40
0.000000
41
0.000000
0
VERTEX
8
0
10
0.063696
20
0.797795
0
VERTEX
8
0
10
0.063696
20
0.835705
0
SEQEND
8
0
0
POLYLINE
8
0
66
1
40
0.000000
41
0.000000
0
VERTEX
8
0
10
0.067633
20
0.150295
0
VERTEX
8
0
10
0.067633
20
0.157933
0
SEQEND
8
0
0
POLYLINE
8
0
66
1
40
0.000000
41
0.000000
0
VERTEX
8
0
10
0.067633
20
0.797795
0
VERTEX
8
0
10
0.067633
20
0.835705
0
SEQEND
8
0
0
POLYLINE
8
0
66
1
40
0.000000
41
0.000000
0
VERTEX
8
0
10
0.071570
20
0.150295
0
VERTEX
8
0
10
0.071570
20
0.157933
0
SEQEND
8
0
0
POLYLINE
8
0
66
1
40
0.000000
41
0.000000
0
VERTEX
8
0
10
0.071570
20
0.797795
0
VERTEX
8
0
10
0.071570
20
0.835705
0
SEQEND
8
0
0
POLYLINE
8
0
66
1
40
0.000000
41
0.000000
0
VERTEX
8
0
10
0.075507
20
0.150295
0
VERTEX
8
0
10
0.075507
20
0.157933
0
SEQEND
8
0
0
POLYLINE
8
0
66
1
40
0.000000
41
0.000000
0
VERTEX
8
0
10
0.075507
20
0.797795
0
VERTEX
8
0
10
0.075507
20
0.835705
0
SEQEND
8
0
0
POLYLINE
8
0
66
1
40
0.000000
41
0.000000
0
VERTEX
8
0
10
0.079444
20
0.150295
0
VERTEX
8
0
10
0.079444
20
0.157933
0
SEQEND
8
0
0
POLYLINE
8
0
66
1
40
0.000000
41
0.000000
0
VERTEX
8
0
10
0.079444
20
0.797795
0
VERTEX
8
0
10
0.079444
20
0.835705
0
SEQEND
8
0
0
POLYLINE
8
0
66
1
40
0.000000
41
0.000000
0
VERTEX
8
0
10
0.083381
20
0.150295
0
VERTEX
8
0
10
0.083381
20
0.157933
0
SEQEND
8
0
0
POLYLINE
8
0
66
1
40
0.000000
41
0.000000
0
VERTEX
8
0
10
0.083381
20
0.797795
0
VERTEX
8
0
10
0.083381
20
0.835705
0
SEQEND
8
0
0
POLYLINE
8
0
66
1
40
0.000000
41
0.000000
0
VERTEX
8
0
10
0.087318
20
0.150295
0
VERTEX
8
0
10
0.087318
20
0.157933
0
SEQEND
8
0
0
POLYLINE
8
0
66
1
40
0.000000
41
0.000000
0
VERTEX
8
0
10
0.087318
20
0.797795
0
VERTEX
8
0
10
0.087318
20
0.835705
0
SEQEND
8
0
0
POLYLINE
8
0
66
1
40
0.000000
41
0.000000
0
VERTEX
8
0
10
0.091255
20
0.150295
0
VERTEX
8
0
10
0.091255
20
0.157933
0
SEQEND
8
0
0
POLYLINE
8
0
66
1
40
0.000000
41
0.000000
0
VERTEX
8
0
10
0.091255
20
0.797795
0
VERTEX
8
0
10
0.091255
20
0.835705
0
SEQEND
8
0
0
POLYLINE
8
0
66
1
40
0.000000
41
0.000000
0
VERTEX
8
0
10
0.095192
20
0.150295
0
VERTEX
8
0
10
0.095192
20
0.157933
0
SEQEND
8
0
0
POLYLINE
8
0
66
1
40
0.000000
41
0.000000
0
VERTEX
8
0
10
0.095192
20
0.797795
0
VERTEX
8
0
10
0.095192
20
0.835705
0
SEQEND
8
0
0
POLYLINE
8
0
66
1
40
0.000000
41
0.000000
0
VERTEX
8
0
10
0.099129
20
0.150295
0
VERTEX
8
0
10
0.099129
20
0.157933
0
SEQEND
8
0
0
POLYLINE
8
0
66
1
40
0.000000
41
0.000000
0
VERTEX
8
0
10
0.099129
20
0.797795
0
VERTEX
8
0
10
0.099129
20
0.835705
0
SEQEND
8
0
0
POLYLINE
8
0
66
1
40
0.000000
41
0.000000
0
VERTEX
8
0
10
0.103066
20
0.150295
0
VERTEX
8
0
10
0.103066
20
0.157933
0
SEQEND
8
0
0
POLYLINE
8
0
66
1
40
0.000000
41
0.000000
0
VERTEX
8
0
10
0.103066
20
0.797795
0
VERTEX
8
0
10
0.103066
20
0.835705
0
SEQEND
8
0
0
POLYLINE
8
0
66
1
40
0.000000
41
0.000000
0
VERTEX
8
0
10
0.107003
20
0.150295
0
VERTEX
8
0
10
0.107003
20
0.157933
0
SEQEND
8
0
0
POLYLINE
8
0
66
1
40
0.000000
41
0.000000
0
VERTEX
8
0
10
0.107003
20
0.797795
0
VERTEX
8
0
10
0.107003
20
0.835705
0
SEQEND
8
0
0
POLYLINE
8
0
66
1
40
0.000000
41
0.000000
0
VERTEX
8
0
10
0.110940
20
0.150295
0
VERTEX
8
0
10
0.110940
20
0.157933
0
SEQEND
8
0
0
POLYLINE
8
0
66
1
40
0.000000
41
0.000000
0
VERTEX
8
0
10
0.110940
20
0.797795
0
VERTEX
8
0
10
0.110940
20
0.835705
0
SEQEND
8
0
0
POLYLINE
8
0
66
1
40
0.000000
41
0.000000
0
VERTEX
8
0
10
0.114877
20
0.150295
0
VERTEX
8
0
10
0.114877
20
0.157933
0
SEQEND
8
0
0
POLYLINE
8
0
66
1
40
0.000000
41
0.000000
0
VERTEX
8
0
10
0.114877
20
0.797795
0
VERTEX
8
0
10
0.114877
20
0.835705
0
SEQEND
8
0
0
POLYLINE
8
0
66
1
40
0.000000
41
0.000000
0
VERTEX
8
0
10
0.118814
20
0.150295
0
VERTEX
8
0
10
0.118814
20
0.157933
0
SEQEND
8
0
0
POLYLINE
8
0
66
1
40
0.000000
41
0.000000
0
VERTEX
8
0
10
0.118814
20
0.797795
0
VERTEX
8
0
10
0.118814
20
0.835705
0
SEQEND
8
0
0
POLYLINE
8
0
66
1
40
0.000000
41
0.000000
0
VERTEX
8
0
10
0.122751
20
0.150295
0
VERTEX
8
0
10
0.122751
20
0.157933
0
SEQEND
8
0
0
POLYLINE
8
0
66
1
40
0.000000
41
0.000000
0
VERTEX
8
0
10
0.122751
20
0.797795
0
VERTEX
8
0
10
0.122751
20
0.835705
0
SEQEND
8
0
0
POLYLINE
8
0
66
1
40
0.000000
41
0.000000
0
VERTEX
8
0
10
0.126688
20
0.150295
0
VERTEX
8
0
10
0.126688
20
0.157933
0
SEQEND
8
0
0
POLYLINE
8
0
66
1
40
0.000000
41
0.000000
0
VERTEX
8
0
10
0.126688
20
0.797795
0
VERTEX
8
0
10
0.126688
20
0.835705
0
SEQEND
8
0
0
POLYLINE
8
0
66
1
40
0.000000
41
0.000000
0
VERTEX
8
0
10
0.130625
20
0.150295
0
VERTEX
8
0
10
0.130625
20
0.158598
0
SEQEND
8
0
0
POLYLINE
8
0
66
1
40
0.000000
41
0.000000
0
VERTEX
8
0
10
0.130625
20
0.797795
0
VERTEX
8
0
10
0.130625
20
0.835705
0
SEQEND
8
0
0
POLYLINE
8
0
66
1
40
0.000000
41
0.000000
0
VERTEX
8
0
10
0.134562
20
0.150295
0
VERTEX
8
0
10
0.134562
20
0.162535
0
SEQEND
8
0
0
POLYLINE
8
0
66
1
40
0.000000
41
0.000000
0
VERTEX
8
0
10
0.134562
20
0.797795
0
VERTEX
8
0
10
0.134562
20
0.835705
0
SEQEND
8
0
0
POLYLINE
8
0
66
1
40
0.000000
41
0.000000
0
VERTEX
8
0
10
0.138499
20
0.150295
0
VERTEX
8
0
10
0.138499
20
0.166472
0
SEQEND
8
0
0
POLYLINE
8
0
66
1
40
0.000000
41
0.000000
0
VERTEX
8
0
10
0.138499
20
0.797795
0
VERTEX
8
0
10
0.138499
20
0.835705
0
SEQEND
8
0
0
POLYLINE
8
0
66
1
40
0.000000
41
0.000000
0
VERTEX
8
0
10
0.142436
20
0.150295
0
VERTEX
8
0
10
0.142436
20
0.170409
0
SEQEND
8
0
0
POLYLINE
8
0
66
1
40
0.000000
41
0.000000
0
VERTEX
8
0
10
0.142436
20
0.797795
0
VERTEX
8
0
10
0.142436
20
0.835705
0
SEQEND
8
0
0
POLYLINE
8
0
66
1
40
0.000000
41
0.000000
0
VERTEX
8
0
10
0.146373
20
0.150295
0
VERTEX
8
0
10
0.146373
20
0.174346
0
SEQEND
8
0
0
POLYLINE
8
0
66
1
40
0.000000
41
0.000000
0
VERTEX
8
0
10
0.146373
20
0.794991
0
VERTEX
8
0
10
0.146373
20
0.835705
0
SEQEND
8
0
0
POLYLINE
8
0
66
1
40
0.000000
41
0.000000
0
VERTEX
8
0
10
0.150310
20
0.150295
0
VERTEX
8
0
10
0.150310
20
0.178283
0
SEQEND
8
0
0
POLYLINE
8
0
66
1
40
0.000000
41
0.000000
0
VERTEX
8
0
10
0.150310
20
0.791054
0
VERTEX
8
0
10
0.150310
20
0.835705
0
SEQEND
8
0
0
POLYLINE
8
0
66
1
40
0.000000
41
0.000000
0
VERTEX
8
0
10
0.154247
20
0.150295
0
VERTEX
8
0
10
0.154247
20
0.182220
0
SEQEND
8
0
0
POLYLINE
8
0
66
1
40
0.000000
41
0.000000
0
VERTEX
8
0
10
0.154247
20
0.787117
0
VERTEX
8
0
10
0.154247
20
0.835705
0
SEQEND
8
0
0
POLYLINE
8
0
66
1
40
0.000000
41
0.000000
0
VERTEX
8
0
10
0.158184
20
0.150295
0
VERTEX
8
0
10
0.158184
20
0.185433
0
SEQEND
8
0
0
POLYLINE
8
0
66
1
40
0.000000
41
0.000000
0
VERTEX
8
0
10
0.158184
20
0.783180
0
VERTEX
8
0
10
0.158184
20
0.835705
0
SEQEND
8
0
0
POLYLINE
8
0
66
1
40
0.000000
41
0.000000
0
VERTEX
8
0
10
0.162121
20
0.150295
0
VERTEX
8
0
10
0.162121
20
0.185433
0
SEQEND
8
0
0
POLYLINE
8
0
66
1
40
0.000000
41
0.000000
0
VERTEX
8
0
10
0.162121
20
0.779243
0
VERTEX
8
0
10
0.162121
20
0.835705
0
SEQEND
8
0
0
POLYLINE
8
0
66
1
40
0.000000
41
0.000000
0
VERTEX
8
0
10
0.166058
20
0.150295
0
VERTEX
8
0
10
0.166058
20
0.185433
0
SEQEND
8
0
0
POLYLINE
8
0
66
1
40
0.000000
41
0.000000
0
VERTEX
8
0
10
0.166058
20
0.775306
0
VERTEX
8
0
10
0.166058
20
0.835705
0
SEQEND
8
0
0
POLYLINE
8
0
66
1
40
0.000000
41
0.000000
0
VERTEX
8
0
10
0.169995
20
0.150295
0
VERTEX
8
0
10
0.169995
20
0.185433
0
SEQEND
8
0
0
POLYLINE
8
0
66
1
40
0.000000
41
0.000000
0
VERTEX
8
0
10
0.169995
20
0.771369
0
VERTEX
8
0
10
0.169995
20
0.835705
0
SEQEND
8
0
0
POLYLINE
8
0
66
1
40
0.000000
41
0.000000
0
VERTEX
8
0
10
0.173932
20
0.150295
0
VERTEX
8
0
10
0.173932
20
0.185433
0
SEQEND
8
0
0
POLYLINE
8
0
66
1
40
0.000000
41
0.000000
0
VERTEX
8
0
10
0.173932
20
0.767432
0
VERTEX
8
0
10
0.173932
20
0.835705
0
SEQEND
8
0
0
POLYLINE
8
0
66
1
40
0.000000
41
0.000000
0
VERTEX
8
0
10
0.177869
20
0.150295
0
VERTEX
8
0
10
0.177869
20
0.185433
0
SEQEND
8
0
0
POLYLINE
8
0
66
1
40
0.000000
41
0.000000
0
VERTEX
8
0
10
0.177869
20
0.763495
0
VERTEX
8
0
10
0.177869
20
0.835705
0
SEQEND
8
0
0
POLYLINE
8
0
66
1
40
0.000000
41
0.000000
0
VERTEX
8
0
10
0.181806
20
0.150295
0
VERTEX
8
0
10
0.181806
20
0.185433
0
SEQEND
8
0
0
POLYLINE
8
0
66
1
40
0.000000
41
0.000000
0
VERTEX
8
0
10
0.181806
20
0.504748
0
VERTEX
8
0
10
0.181806
20
0.512281
0
SEQEND
8
0
0
POLYLINE
8
0
66
1
40
0.000000
41
0.000000
0
VERTEX
8
0
10
0.181806
20
0.759558
0
VERTEX
8
0
10
0.181806
20
0.835705
0
SEQEND
8
0
0
POLYLINE
8
0
66
1
40
0.000000
41
0.000000
0
VERTEX
8
0
10
0.185743
20
0.150295
0
VERTEX
8
0
10
0.185743
20
0.185433
0
SEQEND
8
0
0
POLYLINE
8
0
66
1
40
0.000000
41
0.000000
0
VERTEX
8
0
10
0.185743
20
0.422795
0
VERTEX
8
0
10
0.185743
20
0.516218
0
SEQEND
8
0
0
POLYLINE
8
0
66
1
40
0.000000
41
0.000000
0
VERTEX
8
0
10
0.185743
20
0.755621
0
VERTEX
8
0
10
0.185743
20
0.835705
0
SEQEND
8
0
0
POLYLINE
8
0
66
1
40
0.000000
41
0.000000
0
VERTEX
8
0
10
0.189680
20
0.150295
0
VERTEX
8
0
10
0.189680
20
0.185433
0
SEQEND
8
0
0
POLYLINE
8
0
66
1
40
0.000000
41
0.000000
0
VERTEX
8
0
10
0.189680
20
0.422795
0
VERTEX
8
0
10
0.189680
20
0.520155
0
SEQEND
8
0
0
POLYLINE
8
0
66
1
40
0.000000
41
0.000000
0
VERTEX
8
0
10
0.189680
20
0.751684
0
VERTEX
8
0
10
0.189680
20
0.835705
0
SEQEND
8
0
0
POLYLINE
8
0
66
1
40
0.000000
41
0.000000
0
VERTEX
8
0
10
0.193617
20
0.150295
0
VERTEX
8
0
10
0.193617
20
0.185433
0
SEQEND
8
0
0
POLYLINE
8
0
66
1
40
0.000000
41
0.000000
0
VERTEX
8
0
10
0.193617
20
0.422795
0
VERTEX
8
0
10
0.193617
20
0.524092
0
SEQEND
8
0
0
POLYLINE
8
0
66
1
40
0.000000
41
0.000000
0
VERTEX
8
0
10
0.193617
20
0.747747
0
VERTEX
8
0
10
0.193617
20
0.835705
0
SEQEND
8
0
0
POLYLINE
8
0
66
1
40
0.000000
41
0.000000
0
VERTEX
8
0
10
0.197554
20
0.150295
0
VERTEX
8
0
10
0.197554
20
0.185433
0
SEQEND
8
0
0
POLYLINE
8
0
66
1
40
0.000000
41
0.000000
0
VERTEX
8
0
10
0.197554
20
0.422795
0
VERTEX
8
0
10
0.197554
20
0.528030
0
SEQEND
8
0
0
POLYLINE
8
0
66
1
40
0.000000
41
0.000000
0
VERTEX
8
0
10
0.197554
20
0.743810
0
VERTEX
8
0
10
0.197554
20
0.835705
0
SEQEND
8
0
0
POLYLINE
8
0
66
1
40
0.000000
41
0.000000
0
VERTEX
8
0
10
0.201491
20
0.150295
0
VERTEX
8
0
10
0.201491
20
0.185433
0
SEQEND
8
0
0
POLYLINE
8
0
66
1
40
0.000000
41
0.000000
0
VERTEX
8
0
10
0.201491
20
0.422795
0
VERTEX
8
0
10
0.201491
20
0.531967
0
SEQEND
8
0
0
POLYLINE
8
0
66
1
40
0.000000
41
0.000000
0
VERTEX
8
0
10
0.201491
20
0.739873
0
VERTEX
8
0
10
0.201491
20
0.835705
0
SEQEND
8
0
0
POLYLINE
8
0
66
1
40
0.000000
41
0.000000
0
VERTEX
8
0
10
0.205428
20
0.150295
0
VERTEX
8
0
10
0.205428
20
0.185433
0
SEQEND
8
0
0
POLYLINE
8
0
66
1
40
0.000000
41
0.000000
0
VERTEX
8
0
10
0.205428
20
0.422795
0
VERTEX
8
0
10
0.205428
20
0.535904
0
SEQEND
8
0
0
POLYLINE
8
0
66
1
40
0.000000
41
0.000000
0
VERTEX
8
0
10
0.205428
20
0.735936
0
VERTEX
8
0
10
0.205428
20
0.835705
0
SEQEND
8
0
0
POLYLINE
8
0
66
1
40
0.000000
41
0.000000
0
VERTEX
8
0
10
0.209365
20
0.150295
0
VERTEX
8
0
10
0.209365
20
0.185433
0
SEQEND
8
0
0
POLYLINE
8
0
66
1
40
0.000000
41
0.000000
0
VERTEX
8
0
10
0.209365
20
0.422795
0
VERTEX
8
0
10
0.209365
20
0.539841
0
SEQEND
8
0
0
POLYLINE
8
0
66
1
40
0.000000
41
0.000000
0
VERTEX
8
0
10
0.209365
20
0.731999
0
VERTEX
8
0
10
0.209365
20
0.835705
0
SEQEND
8
0
0
POLYLINE
8
0
66
1
40
0.000000
41
0.000000
0
VERTEX
8
0
10
0.213302
20
0.150295
0
VERTEX
8
0
10
0.213302
20
0.185433
0
SEQEND
8
0
0
POLYLINE
8
0
66
1
40
0.000000
41
0.000000
0
VERTEX
8
0
10
0.213302
20
0.422795
0
VERTEX
8
0
10
0.213302
20
0.543778
0
SEQEND
8
0
0
POLYLINE
8
0
66
1
40
0.000000
41
0.000000
0
VERTEX
8
0
10
0.213302
20
0.728062
0
VERTEX
8
0
10
0.213302
20
0.835705
0
SEQEND
8
0
0
POLYLINE
8
0
66
1
40
0.000000
41
0.000000
0
VERTEX
8
0
10
0.217239
20
0.150295
0
VERTEX
8
0
10
0.217239
20
0.185433
0
SEQEND
8
0
0
POLYLINE
8
0
66
1
40
0.000000
41
0.000000
0
VERTEX
8
0
10
0.217239
20
0.422795
0
VERTEX
8
0
10
0.217239
20
0.547715
0
SEQEND
8
0
0
POLYLINE
8
0
66
1
40
0.000000
41
0.000000
0
VERTEX
8
0
10
0.217239
20
0.724125
0
VERTEX
8
0
10
0.217239
20
0.835705
0
SEQEND
8
0
0
POLYLINE
8
0
66
1
40
0.000000
41
0.000000
0
VERTEX
8
0
10
0.221176
20
0.150295
0
VERTEX
8
0
10
0.221176
20
0.185433
0
SEQEND
8
0
0
POLYLINE
8
0
66
1
40
0.000000
41
0.000000
0
VERTEX
8
0
10
0.221176
20
0.422795
0
VERTEX
8
0
10
0.221176
20
0.551652
0
SEQEND
8
0
0
POLYLINE
8
0
66
1
40
0.000000
41
0.000000
0
VERTEX
8
0
10
0.221176
20
0.720188
0
VERTEX
8
0
10
0.221176
20
0.835705
0
SEQEND
8
0
0
POLYLINE
8
0
66
1
40
0.000000
41
0.000000
0
VERTEX
8
0
10
0.225113
20
0.150295
0
VERTEX
8
0
10
0.225113
20
0.185433
0
SEQEND
8
0
0
POLYLINE
8
0
66
1
40
0.000000
41
0.000000
0
VERTEX
8
0
10
0.225113
20
0.422795
0
VERTEX
8
0
10
0.225113
20
0.555589
0
SEQEND
8
0
0
POLYLINE
8
0
66
1
40
0.000000
41
0.000000
0
VERTEX
8
0
10
0.225113
20
0.716251
0
VERTEX
8
0
10
0.225113
20
0.835705
0
SEQEND
8
0
0
POLYLINE
8
0
66
1
40
0.000000
41
0.000000
0
VERTEX
8
0
10
0.229050
20
0.150295
0
VERTEX
8
0
10
0.229050
20
0.185433
0
SEQEND
8
0
0
POLYLINE
8
0
66
1
40
0.000000
41
0.000000
0
VERTEX
8
0
10
0.229050
20
0.422795
0
VERTEX
8
0
10
0.229050
20
0.559526
0
SEQEND
8
0
0
POLYLINE
8
0
66
1
40
0.000000
41
0.000000
0
VERTEX
8
0
10
0.229050
20
0.712314
0
VERTEX
8
0
10
0.229050
20
0.835705
0
SEQEND
8
0
0
POLYLINE
8
0
66
1
40
0.000000
41
0.000000
0
VERTEX
8
0
10
0.232987
20
0.150295
0
VERTEX
8
0
10
0.232987
20
0.185433
0
SEQEND
8
0
0
POLYLINE
8
0
66
1
40
0.000000
41
0.000000
0
VERTEX
8
0
10
0.232987
20
0.424951
0
VERTEX
8
0
10
0.232987
20
0.563463
0
SEQEND
8
0
0
POLYLINE
8
0
66
1
40
0.000000
41
0.000000
0
VERTEX
8
0
10
0.232987
20
0.708377
0
VERTEX
8
0
10
0.232987
20
0.835705
0
SEQEND
8
0
0
POLYLINE
8
0
66
1
40
0.000000
41
0.000000
0
VERTEX
8
0
10
0.236924
20
0.150295
0
VERTEX
8
0
10
0.236924
20
0.185433
0
SEQEND
8
0
0
POLYLINE
8
0
66
1
40
0.000000
41
0.000000
0
VERTEX
8
0
10
0.236924
20
0.428888
0
VERTEX
8
0
10
0.236924
20
0.835705
0
SEQEND
8
0
0
POLYLINE
8
0
66
1
40
0.000000
41
0.000000
0
VERTEX
8
0
10
0.240861
20
0.150295
0
VERTEX
8
0
10
0.240861
20
0.185433
0
SEQEND
8
0
0
POLYLINE
8
0
66
1
40
0.000000
41
0.000000
0
VERTEX
8
0
10
0.240861
20
0.432825
0
VERTEX
8
0
10
0.240861
20
0.835705
0
SEQEND
8
0
0
POLYLINE
8
0
66
1
40
0.000000
41
0.000000
0
VERTEX
8
0
10
0.244798
20
0.150295
0
VERTEX
8
0
10
0.244798
20
0.185433
0
SEQEND
8
0
0
POLYLINE
8
0
66
1
40
0.000000
41
0.000000
0
VERTEX
8
0
10
0.244798
20
0.436762
0
VERTEX
8
0
10
0.244798
20
0.835705
0
SEQEND
8
0
0
POLYLINE
8
0
66
1
40
0.000000
41
0.000000
0
VERTEX
8
0
10
0.248735
20
0.150295
0
VERTEX
8
0
10
0.248735
20
0.185433
0
SEQEND
8
0
0
POLYLINE
8
0
66
1
40
0.000000
41
0.000000
0
VERTEX
8
0
10
0.248735
20
0.440699
0
VERTEX
8
0
10
0.248735
20
0.835705
0
SEQEND
8
0
0
POLYLINE
8
0
66
1
40
0.000000
41
0.000000
0
VERTEX
8
0
10
0.252672
20
0.150295
0
VERTEX
8
0
10
0.252672
20
0.185433
0
SEQEND
8
0
0
POLYLINE
8
0
66
1
40
0.000000
41
0.000000
0
VERTEX
8
0
10
0.252672
20
0.444636
0
VERTEX
8
0
10
0.252672
20
0.835705
0
SEQEND
8
0
0
POLYLINE
8
0
66
1
40
0.000000
41
0.000000
0
VERTEX
8
0
10
0.256609
20
0.150295
0
VERTEX
8
0
10
0.256609
20
0.185433
0
SEQEND
8
0
0
POLYLINE
8
0
66
1
40
0.000000
41
0.000000
0
VERTEX
8
0
10
0.256609
20
0.445295
0
VERTEX
8
0
10
0.256609
20
0.835705
0
SEQEND
8
0
0
POLYLINE
8
0
66
1
40
0.000000
41
0.000000
0
VERTEX
8
0
10
0.260546
20
0.150295
0
VERTEX
8
0
10
0.260546
20
0.185433
0
SEQEND
8
0
0
POLYLINE
8
0
66
1
40
0.000000
41
0.000000
0
VERTEX
8
0
10
0.260546
20
0.445295
0
VERTEX
8
0
10
0.260546
20
0.835705
0
SEQEND
8
0
0
POLYLINE
8
0
66
1
40
0.000000
41
0.000000
0
VERTEX
8
0
10
0.264483
20
0.150295
0
VERTEX
8
0
10
0.264483
20
0.185433
0
SEQEND
8
0
0
POLYLINE
8
0
66
1
40
0.000000
41
0.000000
0
VERTEX
8
0
10
0.264483
20
0.445295
0
VERTEX
8
0
10
0.264483
20
0.835705
0
SEQEND
8
0
0
POLYLINE
8
0
66
1
40
0.000000
41
0.000000
0
VERTEX
8
0
10
0.268420
20
0.150295
0
VERTEX
8
0
10
0.268420
20
0.185433
0
SEQEND
8
0
0
POLYLINE
8
0
66
1
40
0.000000
41
0.000000
0
VERTEX
8
0
10
0.268420
20
0.445295
0
VERTEX
8
0
10
0.268420
20
0.835705
0
SEQEND
8
0
0
POLYLINE
8
0
66
1
40
0.000000
41
0.000000
0
VERTEX
8
0
10
0.272357
20
0.150295
0
VERTEX
8
0
10
0.272357
20
0.185433
0
SEQEND
8
0
0
POLYLINE
8
0
66
1
40
0.000000
41
0.000000
0
VERTEX
8
0
10
0.272357
20
0.445295
0
VERTEX
8
0
10
0.272357
20
0.835705
0
SEQEND
8
0
0
POLYLINE
8
0
66
1
40
0.000000
41
0.000000
0
VERTEX
8
0
10
0.276294
20
0.150295
0
VERTEX
8
0
10
0.276294
20
0.185433
0
SEQEND
8
0
0
POLYLINE
8
0
66
1
40
0.000000
41
0.000000
0
VERTEX
8
0
10
0.276294
20
0.445295
0
VERTEX
8
0
10
0.276294
20
0.835705
0
SEQEND
8
0
0
POLYLINE
8
0
66
1
40
0.000000
41
0.000000
0
VERTEX
8
0
10
0.280231
20
0.150295
0
VERTEX
8
0
10
0.280231
20
0.185433
0
SEQEND
8
0
0
POLYLINE
8
0
66
1
40
0.000000
41
0.000000
0
VERTEX
8
0
10
0.280231
20
0.445295
0
VERTEX
8
0
10
0.280231
20
0.835705
0
SEQEND
8
0
0
POLYLINE
8
0
66
1
40
0.000000
41
0.000000
0
VERTEX
8
0
10
0.284168
20
0.150295
0
VERTEX
8
0
10
0.284168
20
0.185433
0
SEQEND
8
0
0
POLYLINE
8
0
66
1
40
0.000000
41
0.000000
0
VERTEX
8
0
10
0.284168
20
0.445295
0
VERTEX
8
0
10
0.284168
20
0.835705
0
SEQEND
8
0
0
POLYLINE
8
0
66
1
40
0.000000
41
0.000000
0
VERTEX
8
0
10
0.288105
20
0.045295
0
VERTEX
8
0
10
0.288105
20
0.185433
0
SEQEND
8
0
0
POLYLINE
8
0
66
1
40
0.000000
41
0.000000
0
VERTEX
8
0
10
0.288105
20
0.445295
0
VERTEX
8
0
10
0.288105
20
0.835705
0
SEQEND
8
0
0
POLYLINE
8
0
66
1
40
0.000000
41
0.000000
0
VERTEX
8
0
10
0.292042
20
0.045295
0
VERTEX
8
0
10
0.292042
20
0.185433
0
SEQEND
8
0
0
POLYLINE
8
0
66
1
40
0.000000
41
0.000000
0
VERTEX
8
0
10
0.292042
20
0.445295
0
VERTEX
8
0
10
0.292042
20
0.835705
0
SEQEND
8
0
0
POLYLINE
8
0
66
1
40
0.000000
41
0.000000
0
VERTEX
8
0
10
0.295979
20
0.045295
0
VERTEX
8
0
10
0.295979
20
0.185433
0
SEQEND
8
0
0
POLYLINE
8
0
66
1
40
0.000000
41
0.000000
0
VERTEX
8
0
10
0.295979
20
0.445295
0
VERTEX
8
0
10
0.295979
20
0.835705
0
SEQEND
8
0
0
POLYLINE
8
0
66
1
40
0.000000
41
0.000000
0
VERTEX
8
0
10
0.299916
20
0.045295
0
VERTEX
8
0
10
0.299916
20
0.185433
0
SEQEND
8
0
0
POLYLINE
8
0
66
1
40
0.000000
41
0.000000
0
VERTEX
8
0
10
0.299916
20
0.445295
0
VERTEX
8
0
10
0.299916
20
0.835705
0
SEQEND
8
0
0
POLYLINE
8
0
66
1
40
0.000000
41
0.000000
0
VERTEX
8
0
10
0.303853
20
0.045295
0
VERTEX
8
0
10
0.303853
20
0.185433
0
SEQEND
8
0
0
POLYLINE
8
0
66
1
40
0.000000
41
0.000000
0
VERTEX
8
0
10
0.303853
20
0.445295
0
VERTEX
8
0
10
0.303853
20
0.835705
0
SEQEND
8
0
0
POLYLINE
8
0
66
1
40
0.000000
41
0.000000
0
VERTEX
8
0
10
0.307790
20
0.045295
0
VERTEX
8
0
10
0.307790
20
0.185433
0
SEQEND
8
0
0
POLYLINE
8
0
66
1
40
0.000000
41
0.000000
0
VERTEX
8
0
10
0.307790
20
0.445295
0
VERTEX
8
0
10
0.307790
20
0.835705
0
SEQEND
8
0
0
POLYLINE
8
0
66
1
40
0.000000
41
0.000000
0
VERTEX
8
0
10
0.311727
20
0.045295
0
VERTEX
8
0
10
0.311727
20
0.185433
0
SEQEND
8
0
0
POLYLINE
8
0
66
1
40
0.000000
41
0.000000
0
VERTEX
8
0
10
0.311727
20
0.445295
0
VERTEX
8
0
10
0.311727
20
0.835705
0
SEQEND
8
0
0
POLYLINE
8
0
66
1
40
0.000000
41
0.000000
0
VERTEX
8
0
10
0.315664
20
0.045295
0
VERTEX
8
0
10
0.315664
20
0.185433
0
SEQEND
8
0
0
POLYLINE
8
0
66
1
40
0.000000
41
0.000000
0
VERTEX
8
0
10
0.315664
20
0.445295
0
VERTEX
8
0
10
0.315664
20
0.835705
0
SEQEND
8
0
0
POLYLINE
8
0
66
1
40
0.000000
41
0.000000
0
VERTEX
8
0
10
0.319601
20
0.045295
0
VERTEX
8
0
10
0.319601
20
0.185433
0
SEQEND
8
0
0
POLYLINE
8
0
66
1
40
0.000000
41
0.000000
0
VERTEX
8
0
10
0.319601
20
0.445295
0
VERTEX
8
0
10
0.319601
20
0.835705
0
SEQEND
8
0
0
POLYLINE
8
0
66
1
40
0.000000
41
0.000000
0
VERTEX
8
0
10
0.323538
20
-0.193283
0
VERTEX
8
0
10
0.323538
20
-0.189827
0
SEQEND
8
0
0
POLYLINE
8
0
66
1
40
0.000000
41
0.000000
0
VERTEX
8
0
10
0.323538
20
0.045295
0
VERTEX
8
0
10
0.323538
20
0.185433
0
SEQEND
8
0
0
POLYLINE
8
0
66
1
40
0.000000
41
0.000000
0
VERTEX
8
0
10
0.323538
20
0.445295
0
VERTEX
8
0
10
0.323538
20
0.835705
0
SEQEND
8
0
0
POLYLINE
8
0
66
1
40
0.000000
41
0.000000
0
VERTEX
8
0
10
0.327475
20
-0.197220
0
VERTEX
8
0
10
0.327475
20
-0.185890
0
SEQEND
8
0
0
POLYLINE
8
0
66
1
40
0.000000
41
0.000000
0
VERTEX
8
0
10
0.327475
20
0.045295
0
VERTEX
8
0
10
0.327475
20
0.185433
0
SEQEND
8
0
0
POLYLINE
8
0
66
1
40
0.000000
41
0.000000
0
VERTEX
8
0
10
0.327475
20
0.445295
0
VERTEX
8
0
10
0.327475
20
0.835705
0
SEQEND
8
0
0
POLYLINE
8
0
66
1
40
0.000000
41
0.000000
0
VERTEX
8
0
10
0.331412
20
-0.201157
0
VERTEX
8
0
10
0.331412
20
-0.181953
0
SEQEND
8
0
0
POLYLINE
8
0
66
1
40
0.000000
41
0.000000
0
VERTEX
8
0
10
0.331412
20
0.041772
0
VERTEX
8
0
10
0.331412
20
0.185433
0
SEQEND
8
0
0
POLYLINE
8
0
66
1
40
0.000000
41
0.000000
0
VERTEX
8
0
10
0.331412
20
0.441772
0
VERTEX
8
0
10
0.331412
20
0.835705
0
SEQEND
8
0
0
POLYLINE
8
0
66
1
40
0.000000
41
0.000000
0
VERTEX
8
0
10
0.335349
20
-0.205094
0
VERTEX
8
0
10
0.335349
20
-0.178016
0
SEQEND
8
0
0
POLYLINE
8
0
66
1
40
0.000000
41
0.000000
0
VERTEX
8
0
10
0.335349
20
0.037835
0
VERTEX
8
0
10
0.335349
20
0.185433
0
SEQEND
8
0
0
POLYLINE
8
0
66
1
40
0.000000
41
0.000000
0
VERTEX
8
0
10
0.335349
20
0.437835
0
VERTEX
8
0
10
0.335349
20
0.835705
0
SEQEND
8
0
0
POLYLINE
8
0
66
1
40
0.000000
41
0.000000
0
VERTEX
8
0
10
0.339286
20
-0.233529
0
VERTEX
8
0
10
0.339286
20
-0.123307
0
SEQEND
8
0
0
POLYLINE
8
0
66
1
40
0.000000
41
0.000000
0
VERTEX
8
0
10
0.339286
20
0.033898
0
VERTEX
8
0
10
0.339286
20
0.185433
0
SEQEND
8
0
0
POLYLINE
8
0
66
1
40
0.000000
41
0.000000
0
VERTEX
8
0
10
0.339286
20
0.433898
0
VERTEX
8
0
10
0.339286
20
0.835705
0
SEQEND
8
0
0
POLYLINE
8
0
66
1
40
0.000000
41
0.000000
0
VERTEX
8
0
10
0.343223
20
-0.244620
0
VERTEX
8
0
10
0.343223
20
-0.119370
0
SEQEND
8
0
0
POLYLINE
8
0
66
1
40
0.000000
41
0.000000
0
VERTEX
8
0
10
0.343223
20
0.029961
0
VERTEX
8
0
10
0.343223
20
0.185433
0
SEQEND
8
0
0
POLYLINE
8
0
66
1
40
0.000000
41
0.000000
0
VERTEX
8
0
10
0.343223
20
0.429961
0
VERTEX
8
0
10
0.343223
20
0.835705
0
SEQEND
8
0
0
POLYLINE
8
0
66
1
40
0.000000
41
0.000000
0
VERTEX
8
0
10
0.347160
20
-0.248557
0
VERTEX
8
0
10
0.347160
20
-0.115433
0
SEQEND
8
0
0
POLYLINE
8
0
66
1
40
0.000000
41
0.000000
0
VERTEX
8
0
10
0.347160
20
0.026024
0
VERTEX
8
0
10
0.347160
20
0.189025
0
SEQEND
8
0
0
POLYLINE
8
0
66
1
40
0.000000
41
0.000000
0
VERTEX
8
0
10
0.347160
20
0.426024
0
VERTEX
8
0
10
0.347160
20
0.835705
0
SEQEND
8
0
0
POLYLINE
8
0
66
1
40
0.000000
41
0.000000
0
VERTEX
8
0
10
0.351097
20
-0.252494
0
VERTEX
8
0
10
0.351097
20
-0.111496
0
SEQEND
8
0
0
POLYLINE
8
0
66
1
40
0.000000
41
0.000000
0
VERTEX
8
0
10
0.351097
20
0.022087
0
VERTEX
8
0
10
0.351097
20
0.192962
0
SEQEND
8
0
0
POLYLINE
8
0
66
1
40
0.000000
41
0.000000
0
VERTEX
8
0
10
0.351097
20
0.422087
0
VERTEX
8
0
10
0.351097
20
0.835705
0
SEQEND
8
0
0
POLYLINE
8
0
66
1
40
0.000000
41
0.000000
0
VERTEX
8
0
10
0.355034
20
-0.256431
0
VERTEX
8
0
10
0.355034
20
-0.107559
0
SEQEND
8
0
0
POLYLINE
8
0
66
1
40
0.000000
41
0.000000
0
VERTEX
8
0
10
0.355034
20
0.018150
0
VERTEX
8
0
10
0.355034
20
0.196899
0
SEQEND
8
0
0
POLYLINE
8
0
66
1
40
0.000000
41
0.000000
0
VERTEX
8
0
10
0.355034
20
0.418150
0
VERTEX
8
0
10
0.355034
20
0.835705
0
SEQEND
8
0
0
POLYLINE
8
0
66
1
40
0.000000
41
0.000000
0
VERTEX
8
0
10
0.358971
20
-0.260368
0
VERTEX
8
0
10
0.358971
20
-0.103622
0
SEQEND
8
0
0
POLYLINE
8
0
66
1
40
0.000000
41
0.000000
0
VERTEX
8
0
10
0.358971
20
0.014213
0
VERTEX
8
0
10
0.358971
20
0.200836
0
SEQEND
8
0
0
POLYLINE
8
0
66
1
40
0.000000
41
0.000000
0
VERTEX
8
0
10
0.358971
20
0.414213
0
VERTEX
8
0
10
0.358971
20
0.835705
0
SEQEND
8
0
0
POLYLINE
8
0
66
1
40
0.000000
41
0.000000
0
VERTEX
8
0
10
0.362908
20
-0.264306
0
VERTEX
8
0
10
0.362908
20
-0.099685
0
SEQEND
8
0
0
POLYLINE
8
0
66
1
40
0.000000
41
0.000000
0
VERTEX
8
0
10
0.362908
20
0.010276
0
VERTEX
8
0
10
0.362908
20
0.204773
0
SEQEND
8
0
0
POLYLINE
8
0
66
1
40
0.000000
41
0.000000
0
VERTEX
8
0
10
0.362908
20
0.410276
0
VERTEX
8
0
10
0.362908
20
0.835705
0
SEQEND
8
0
0
POLYLINE
8
0
66
1
40
0.000000
41
0.000000
0
VERTEX
8
0
10
0.366845
20
-0.268243
0
VERTEX
8
0
10
0.366845
20
-0.095748
0
SEQEND
8
0
0
POLYLINE
8
0
66
1
40
0.000000
41
0.000000
0
VERTEX
8
0
10
0.366845
20
0.006339
0
VERTEX
8
0
10
0.366845
20
0.208710
0
SEQEND
8
0
0
POLYLINE
8
0
66
1
40
0.000000
41
0.000000
0
VERTEX
8
0
10
0.366845
20
0.406339
0
VERTEX
8
0
10
0.366845
20
0.835705
0
SEQEND
8
0
0
POLYLINE
8
0
66
1
40
0.000000
41
0.000000
0
VERTEX
8
0
10
0.370782
20
-0.272180
0
VERTEX
8
0
10
0.370782
20
-0.091811
0
SEQEND
8
0
0
POLYLINE
8
0
66
1
40
0.000000
41
0.000000
0
VERTEX
8
0
10
0.370782
20
0.002402
0
VERTEX
8
0
10
0.370782
20
0.210296
0
SEQEND
8
0
0
POLYLINE
8
0
66
1
40
0.000000
41
0.000000
0
VERTEX
8
0
10
0.370782
20
0.402402
0
VERTEX
8
0
10
0.370782
20
0.835705
0
SEQEND
8
0
0
POLYLINE
8
0
66
1
40
0.000000
41
0.000000
0
VERTEX
8
0
10
0.374719
20
-0.276117
0
VERTEX
8
0
10
0.374719
20
-0.087874
0
SEQEND
8
0
0
POLYLINE
8
0
66
1
40
0.000000
41
0.000000
0
VERTEX
8
0
10
0.374719
20
-0.001535
0
VERTEX
8
0
10
0.374719
20
0.210296
0
SEQEND
8
0
0
POLYLINE
8
0
66
1
40
0.000000
41
0.000000
0
VERTEX
8
0
10
0.374719
20
0.400295
0
VERTEX
8
0
10
0.374719
20
0.835705
0
SEQEND
8
0
0
POLYLINE
8
0
66
1
40
0.000000
41
0.000000
0
VERTEX
8
0
10
0.378656
20
-0.280054
0
VERTEX
8
0
10
0.378656
20
-0.083937
0
SEQEND
8
0
0
POLYLINE
8
0
66
1
40
0.000000
41
0.000000
0
VERTEX
8
0
10
0.378656
20
-0.005472
0
VERTEX
8
0
10
0.378656
20
0.210296
0
SEQEND
8
0
0
POLYLINE
8
0
66
1
40
0.000000
41
0.000000
0
VERTEX
8
0
10
0.378656
20
0.400295
0
VERTEX
8
0
10
0.378656
20
0.835705
0
SEQEND
8
0
0
POLYLINE
8
0
66
1
40
0.000000
41
0.000000
0
VERTEX
8
0
10
0.382593
20
-0.283991
0
VERTEX
8
0
10
0.382593
20
0.210296
0
SEQEND
8
0
0
POLYLINE
8
0
66
1
40
0.000000
41
0.000000
0
VERTEX
8
0
10
0.382593
20
0.400295
0
VERTEX
8
0
10
0.382593
20
0.835705
0
SEQEND
8
0
0
POLYLINE
8
0
66
1
40
0.000000
41
0.000000
0
VERTEX
8
0
10
0.386530
20
-0.328326
0
VERTEX
8
0
10
0.386530
20
0.210296
0
SEQEND
8
0
0
POLYLINE
8
0
66
1
40
0.000000
41
0.000000
0
VERTEX
8
0
10
0.386530
20
0.400295
0
VERTEX
8
0
10
0.386530
20
0.835705
0
SEQEND
8
0
0
POLYLINE
8
0
66
1
40
0.000000
41
0.000000
0
VERTEX
8
0
10
0.390467
20
-0.327205
0
VERTEX
8
0
10
0.390467
20
0.210296
0
SEQEND
8
0
0
POLYLINE
8
0
66
1
40
0.000000
41
0.000000
0
VERTEX
8
0
10
0.390467
20
0.400295
0
VERTEX
8
0
10
0.390467
20
0.835705
0
SEQEND
8
0
0
POLYLINE
8
0
66
1
40
0.000000
41
0.000000
0
VERTEX
8
0
10
0.394404
20
-0.327205
0
VERTEX
8
0
10
0.394404
20
0.210296
0
SEQEND
8
0
0
POLYLINE
8
0
66
1
40
0.000000
41
0.000000
0
VERTEX
8
0
10
0.394404
20
0.400295
0
VERTEX
8
0
10
0.394404
20
0.835705
0
SEQEND
8
0
0
POLYLINE
8
0
66
1
40
0.000000
41
0.000000
0
VERTEX
8
0
10
0.398341
20
-0.327205
0
VERTEX
8
0
10
0.398341
20
0.210296
0
SEQEND
8
0
0
POLYLINE
8
0
66
1
40
0.000000
41
0.000000
0
VERTEX
8
0
10
0.398341
20
0.400295
0
VERTEX
8
0
10
0.398341
20
0.835705
0
SEQEND
8
0
0
POLYLINE
8
0
66
1
40
0.000000
41
0.000000
0
VERTEX
8
0
10
0.402278
20
-0.255758
0
VERTEX
8
0
10
0.402278
20
0.066348
0
SEQEND
8
0
0
POLYLINE
8
0
66
1
40
0.000000
41
0.000000
0
VERTEX
8
0
10
0.402278
20
0.144242
0
VERTEX
8
0
10
0.402278
20
0.210296
0
SEQEND
8
0
0
POLYLINE
8
0
66
1
40
0.000000
41
0.000000
0
VERTEX
8
0
10
0.402278
20
0.400295
0
VERTEX
8
0
10
0.402278
20
0.835705
0
SEQEND
8
0
0
POLYLINE
8
0
66
1
40
0.000000
41
0.000000
0
VERTEX
8
0
10
0.406215
20
-0.251821
0
VERTEX
8
0
10
0.406215
20
0.062411
0
SEQEND
8
0
0
POLYLINE
8
0
66
1
40
0.000000
41
0.000000
0
VERTEX
8
0
10
0.406215
20
0.148179
0
VERTEX
8
0
10
0.406215
20
0.210296
0
SEQEND
8
0
0
POLYLINE
8
0
66
1
40
0.000000
41
0.000000
0
VERTEX
8
0
10
0.406215
20
0.400295
0
VERTEX
8
0
10
0.406215
20
0.835705
0
SEQEND
8
0
0
POLYLINE
8
0
66
1
40
0.000000
41
0.000000
0
VERTEX
8
0
10
0.410152
20
-0.247884
0
VERTEX
8
0
10
0.410152
20
0.058474
0
SEQEND
8
0
0
POLYLINE
8
0
66
1
40
0.000000
41
0.000000
0
VERTEX
8
0
10
0.410152
20
0.152116
0
VERTEX
8
0
10
0.410152
20
0.210296
0
SEQEND
8
0
0
POLYLINE
8
0
66
1
40
0.000000
41
0.000000
0
VERTEX
8
0
10
0.410152
20
0.400295
0
VERTEX
8
0
10
0.410152
20
0.835705
0
SEQEND
8
0
0
POLYLINE
8
0
66
1
40
0.000000
41
0.000000
0
VERTEX
8
0
10
0.414089
20
-0.243947
0
VERTEX
8
0
10
0.414089
20
0.054537
0
SEQEND
8
0
0
POLYLINE
8
0
66
1
40
0.000000
41
0.000000
0
VERTEX
8
0
10
0.414089
20
0.156053
0
VERTEX
8
0
10
0.414089
20
0.210296
0
SEQEND
8
0
0
POLYLINE
8
0
66
1
40
0.000000
41
0.000000
0
VERTEX
8
0
10
0.414089
20
0.400295
0
VERTEX
8
0
10
0.414089
20
0.835705
0
SEQEND
8
0
0
POLYLINE
8
0
66
1
40
0.000000
41
0.000000
0
VERTEX
8
0
10
0.418026
20
-0.240010
0
VERTEX
8
0
10
0.418026
20
0.050600
0
SEQEND
8
0
0
POLYLINE
8
0
66
1
40
0.000000
41
0.000000
0
VERTEX
8
0
10
0.418026
20
0.159990
0
VERTEX
8
0
10
0.418026
20
0.210296
0
SEQEND
8
0
0
POLYLINE
8
0
66
1
40
0.000000
41
0.000000
0
VERTEX
8
0
10
0.418026
20
0.400295
0
VERTEX
8
0
10
0.418026
20
0.835705
0
SEQEND
8
0
0
POLYLINE
8
0
66
1
40
0.000000
41
0.000000
0
VERTEX
8
0
10
0.421963
20
-0.236073
0
VERTEX
8
0
10
0.421963
20
0.046663
0
SEQEND
8
0
0
POLYLINE
8
0
66
1
40
0.000000
41
0.000000
0
VERTEX
8
0
10
0.421963
20
0.163927
0
VERTEX
8
0
10
0.421963
20
0.210296
0
SEQEND
8
0
0
POLYLINE
8
0
66
1
40
0.000000
41
0.000000
0
VERTEX
8
0
10
0.421963
20
0.400295
0
VERTEX
8
0
10
0.421963
20
0.835705
0
SEQEND
8
0
0
POLYLINE
8
0
66
1
40
0.000000
41
0.000000
0
VERTEX
8
0
10
0.425900
20
-0.232136
0
VERTEX
8
0
10
0.425900
20
0.042726
0
SEQEND
8
0
0
POLYLINE
8
0
66
1
40
0.000000
41
0.000000
0
VERTEX
8
0
10
0.425900
20
0.167864
0
VERTEX
8
0
10
0.425900
20
0.210296
0
SEQEND
8
0
0
POLYLINE
8
0
66
1
40
0.000000
41
0.000000
0
VERTEX
8
0
10
0.425900
20
0.400295
0
VERTEX
8
0
10
0.425900
20
0.835705
0
SEQEND
8
0
0
POLYLINE
8
0
66
1
40
0.000000
41
0.000000
0
VERTEX
8
0
10
0.429837
20
-0.228199
0
VERTEX
8
0
10
0.429837
20
0.038789
0
SEQEND
8
0
0
POLYLINE
8
0
66
1
40
0.000000
41
0.000000
0
VERTEX
8
0
10
0.429837
20
0.171801
0
VERTEX
8
0
10
0.429837
20
0.210296
0
SEQEND
8
0
0
POLYLINE
8
0
66
1
40
0.000000
41
0.000000
0
VERTEX
8
0
10
0.429837
20
0.400295
0
VERTEX
8
0
10
0.429837
20
0.835705
0
SEQEND
8
0
0
POLYLINE
8
0
66
1
40
0.000000
41
0.000000
0
VERTEX
8
0
10
0.433774
20
-0.224262
0
VERTEX
8
0
10
0.433774
20
0.034852
0
SEQEND
8
0
0
POLYLINE
8
0
66
1
40
0.000000
41
0.000000
0
VERTEX
8
0
10
0.433774
20
0.175738
0
VERTEX
8
0
10
0.433774
20
0.210296
0
SEQEND
8
0
0
POLYLINE
8
0
66
1
40
0.000000
41
0.000000
0
VERTEX
8
0
10
0.433774
20
0.400295
0
VERTEX
8
0
10
0.433774
20
0.835705
0
SEQEND
8
0
0
POLYLINE
8
0
66
1
40
0.000000
41
0.000000
0
VERTEX
8
0
10
0.437711
20
-0.220325
0
VERTEX
8
0
10
0.437711
20
0.030915
0
SEQEND
8
0
0
POLYLINE
8
0
66
1
40
0.000000
41
0.000000
0
VERTEX
8
0
10
0.437711
20
0.179675
0
VERTEX
8
0
10
0.437711
20
0.210296
0
SEQEND
8
0
0
POLYLINE
8
0
66
1
40
0.000000
41
0.000000
0
VERTEX
8
0
10
0.437711
20
0.400295
0
VERTEX
8
0
10
0.437711
20
0.835705
0
SEQEND
8
0
0
POLYLINE
8
0
66
1
40
0.000000
41
0.000000
0
VERTEX
8
0
10
0.441648
20
-0.216388
0
VERTEX
8
0
10
0.441648
20
0.026978
0
SEQEND
8
0
0
POLYLINE
8
0
66
1
40
0.000000
41
0.000000
0
VERTEX
8
0
10
0.441648
20
0.183612
0
VERTEX
8
0
10
0.441648
20
0.210296
0
SEQEND
8
0
0
POLYLINE
8
0
66
1
40
0.000000
41
0.000000
0
VERTEX
8
0
10
0.441648
20
0.400295
0
VERTEX
8
0
10
0.441648
20
0.835705
0
SEQEND
8
0
0
POLYLINE
8
0
66
1
40
0.000000
41
0.000000
0
VERTEX
8
0
10
0.445585
20
-0.212451
0
VERTEX
8
0
10
0.445585
20
0.023041
0
SEQEND
8
0
0
POLYLINE
8
0
66
1
40
0.000000
41
0.000000
0
VERTEX
8
0
10
0.445585
20
0.187549
0
VERTEX
8
0
10
0.445585
20
0.210296
0
SEQEND
8
0
0
POLYLINE
8
0
66
1
40
0.000000
41
0.000000
0
VERTEX
8
0
10
0.445585
20
0.400295
0
VERTEX
8
0
10
0.445585
20
0.835705
0
SEQEND
8
0
0
POLYLINE
8
0
66
1
40
0.000000
41
0.000000
0
VERTEX
8
0
10
0.449522
20
-0.208514
0
VERTEX
8
0
10
0.449522
20
0.019104
0
SEQEND
8
0
0
POLYLINE
8
0
66
1
40
0.000000
41
0.000000
0
VERTEX
8
0
10
0.449522
20
0.191486
0
VERTEX
8
0
10
0.449522
20
0.210296
0
SEQEND
8
0
0
POLYLINE
8
0
66
1
40
0.000000
41
0.000000
0
VERTEX
8
0
10
0.449522
20
0.400295
0
VERTEX
8
0
10
0.449522
20
0.835705
0
SEQEND
8
0
0
POLYLINE
8
0
66
1
40
0.000000
41
0.000000
0
VERTEX
8
0
10
0.453459
20
-0.204705
0
VERTEX
8
0
10
0.453459
20
0.015296
0
SEQEND
8
0
0
POLYLINE
8
0
66
1
40
0.000000
41
0.000000
0
VERTEX
8
0
10
0.453459
20
0.195295
0
VERTEX
8
0
10
0.453459
20
0.210296
0
SEQEND
8
0
0
POLYLINE
8
0
66
1
40
0.000000
41
0.000000
0
VERTEX
8
0
10
0.453459
20
0.400295
0
VERTEX
8
0
10
0.453459
20
0.835705
0
SEQEND
8
0
0
POLYLINE
8
0
66
1
40
0.000000
41
0.000000
0
VERTEX
8
0
10
0.457396
20
-0.204705
0
VERTEX
8
0
10
0.457396
20
0.015296
0
SEQEND
8
0
0
POLYLINE
8
0
66
1
40
0.000000
41
0.000000
0
VERTEX
8
0
10
0.457396
20
0.195295
0
VERTEX
8
0
10
0.457396
20
0.210296
0
SEQEND
8
0
0
POLYLINE
8
0
66
1
40
0.000000
41
0.000000
0
VERTEX
8
0
10
0.457396
20
0.400295
0
VERTEX
8
0
10
0.457396
20
0.835705
0
SEQEND
8
0
0
POLYLINE
8
0
66
1
40
0.000000
41
0.000000
0
VERTEX
8
0
10
0.461333
20
-0.204705
0
VERTEX
8
0
10
0.461333
20
0.015296
0
SEQEND
8
0
0
POLYLINE
8
0
66
1
40
0.000000
41
0.000000
0
VERTEX
8
0
10
0.461333
20
0.195295
0
VERTEX
8
0
10
0.461333
20
0.210296
0
SEQEND
8
0
0
POLYLINE
8
0
66
1
40
0.000000
41
0.000000
0
VERTEX
8
0
10
0.461333
20
0.400295
0
VERTEX
8
0
10
0.461333
20
0.835705
0
SEQEND
8
0
0
POLYLINE
8
0
66
1
40
0.000000
41
0.000000
0
VERTEX
8
0
10
0.465270
20
-0.204705
0
VERTEX
8
0
10
0.465270
20
0.015296
0
SEQEND
8
0
0
POLYLINE
8
0
66
1
40
0.000000
41
0.000000
0
VERTEX
8
0
10
0.465270
20
0.195295
0
VERTEX
8
0
10
0.465270
20
0.210296
0
SEQEND
8
0
0
POLYLINE
8
0
66
1
40
0.000000
41
0.000000
0
VERTEX
8
0
10
0.465270
20
0.400295
0
VERTEX
8
0
10
0.465270
20
0.835705
0
SEQEND
8
0
0
POLYLINE
8
0
66
1
40
0.000000
41
0.000000
0
VERTEX
8
0
10
0.469207
20
-0.204705
0
VERTEX
8
0
10
0.469207
20
0.015296
0
SEQEND
8
0
0
POLYLINE
8
0
66
1
40
0.000000
41
0.000000
0
VERTEX
8
0
10
0.469207
20
0.195295
0
VERTEX
8
0
10
0.469207
20
0.210296
0
SEQEND
8
0
0
POLYLINE
8
0
66
1
40
0.000000
41
0.000000
0
VERTEX
8
0
10
0.469207
20
0.400295
0
VERTEX
8
0
10
0.469207
20
0.835705
0
SEQEND
8
0
0
POLYLINE
8
0
66
1
40
0.000000
41
0.000000
0
VERTEX
8
0
10
0.473145
20
-0.204705
0
VERTEX
8
0
10
0.473145
20
0.015296
0
SEQEND
8
0
0
POLYLINE
8
0
66
1
40
0.000000
41
0.000000
0
VERTEX
8
0
10
0.473145
20
0.195295
0
VERTEX
8
0
10
0.473145
20
0.210296
0
SEQEND
8
0
0
POLYLINE
8
0
66
1
40
0.000000
41
0.000000
0
VERTEX
8
0
10
0.473145
20
0.400295
0
VERTEX
8
0
10
0.473145
20
0.835705
0
SEQEND
8
0
0
POLYLINE
8
0
66
1
40
0.000000
41
0.000000
0
VERTEX
8
0
10
0.477082
20
-0.204705
0
VERTEX
8
0
10
0.477082
20
0.015296
0
SEQEND
8
0
0
POLYLINE
8
0
66
1
40
0.000000
41
0.000000
0
VERTEX
8
0
10
0.477082
20
0.195295
0
VERTEX
8
0
10
0.477082
20
0.210296
0
SEQEND
8
0
0
POLYLINE
8
0
66
1
40
0.000000
41
0.000000
0
VERTEX
8
0
10
0.477082
20
0.400295
0
VERTEX
8
0
10
0.477082
20
0.835705
0
SEQEND
8
0
0
POLYLINE
8
0
66
1
40
0.000000
41
0.000000
0
VERTEX
8
0
10
0.481019
20
-0.204705
0
VERTEX
8
0
10
0.481019
20
0.015296
0
SEQEND
8
0
0
POLYLINE
8
0
66
1
40
0.000000
41
0.000000
0
VERTEX
8
0
10
0.481019
20
0.195295
0
VERTEX
8
0
10
0.481019
20
0.210296
0
SEQEND
8
0
0
POLYLINE
8
0
66
1
40
0.000000
41
0.000000
0
VERTEX
8
0
10
0.481019
20
0.400295
0
VERTEX
8
0
10
0.481019
20
0.835705
0
SEQEND
8
0
0
POLYLINE
8
0
66
1
40
0.000000
41
0.000000
0
VERTEX
8
0
10
0.484956
20
-0.204705
0
VERTEX
8
0
10
0.484956
20
0.015296
0
SEQEND
8
0
0
POLYLINE
8
0
66
1
40
0.000000
41
0.000000
0
VERTEX
8
0
10
0.484956
20
0.195295
0
VERTEX
8
0
10
0.484956
20
0.210296
0
SEQEND
8
0
0
POLYLINE
8
0
66
1
40
0.000000
41
0.000000
0
VERTEX
8
0
10
0.484956
20
0.400295
0
VERTEX
8
0
10
0.484956
20
0.835705
0
SEQEND
8
0
0
POLYLINE
8
0
66
1
40
0.000000
41
0.000000
0
VERTEX
8
0
10
0.488893
20
-0.204705
0
VERTEX
8
0
10
0.488893
20
0.015296
0
SEQEND
8
0
0
POLYLINE
8
0
66
1
40
0.000000
41
0.000000
0
VERTEX
8
0
10
0.488893
20
0.195295
0
VERTEX
8
0
10
0.488893
20
0.210296
0
SEQEND
8
0
0
POLYLINE
8
0
66
1
40
0.000000
41
0.000000
0
VERTEX
8
0
10
0.488893
20
0.400295
0
VERTEX
8
0
10
0.488893
20
0.835705
0
SEQEND
8
0
0
POLYLINE
8
0
66
1
40
0.000000
41
0.000000
0
VERTEX
8
0
10
0.492830
20
-0.204705
0
VERTEX
8
0
10
0.492830
20
0.015296
0
SEQEND
8
0
0
POLYLINE
8
0
66
1
40
0.000000
41
0.000000
0
VERTEX
8
0
10
0.492830
20
0.195295
0
VERTEX
8
0
10
0.492830
20
0.210296
0
SEQEND
8
0
0
POLYLINE
8
0
66
1
40
0.000000
41
0.000000
0
VERTEX
8
0
10
0.492830
20
0.400295
0
VERTEX
8
0
10
0.492830
20
0.835705
0
SEQEND
8
0
0
POLYLINE
8
0
66
1
40
0.000000
41
0.000000
0
VERTEX
8
0
10
0.496767
20
-0.204705
0
VERTEX
8
0
10
0.496767
20
0.015296
0
SEQEND
8
0
0
POLYLINE
8
0
66
1
40
0.000000
41
0.000000
0
VERTEX
8
0
10
0.496767
20
0.195295
0
VERTEX
8
0
10
0.496767
20
0.210296
0
SEQEND
8
0
0
POLYLINE
8
0
66
1
40
0.000000
41
0.000000
0
VERTEX
8
0
10
0.496767
20
0.400295
0
VERTEX
8
0
10
0.496767
20
0.835705
0
SEQEND
8
0
0
POLYLINE
8
0
66
1
40
0.000000
41
0.000000
0
VERTEX
8
0
10
0.500704
20
-0.204705
0
VERTEX
8
0
10
0.500704
20
0.015296
0
SEQEND
8
0
0
POLYLINE
8
0
66
1
40
0.000000
41
0.000000
0
VERTEX
8
0
10
0.500704
20
0.195295
0
VERTEX
8
0
10
0.500704
20
0.210296
0
SEQEND
8
0
0
POLYLINE
8
0
66
1
40
0.000000
41
0.000000
0
VERTEX
8
0
10
0.500704
20
0.400295
0
VERTEX
8
0
10
0.500704
20
0.835705
0
SEQEND
8
0
0
POLYLINE
8
0
66
1
40
0.000000
41
0.000000
0
VERTEX
8
0
10
0.504641
20
-0.204705
0
VERTEX
8
0
10
0.504641
20
0.015296
0
SEQEND
8
0
0
POLYLINE
8
0
66
1
40
0.000000
41
0.000000
0
VERTEX
8
0
10
0.504641
20
0.195295
0
VERTEX
8
0
10
0.504641
20
0.210296
0
SEQEND
8
0
0
POLYLINE
8
0
66
1
40
0.000000
41
0.000000
0
VERTEX
8
0
10
0.504641
20
0.400295
0
VERTEX
8
0
10
0.504641
20
0.835705
0
SEQEND
8
0
0
POLYLINE
8
0
66
1
40
0.000000
41
0.000000
0
VERTEX
8
0
10
0.508578
20
-0.204705
0
VERTEX
8
0
10
0.508578
20
0.015296
0
SEQEND
8
0
0
POLYLINE
8
0
66
1
40
0.000000
41
0.000000
0
VERTEX
8
0
10
0.508578
20
0.195295
0
VERTEX
8
0
10
0.508578
20
0.210296
0
SEQEND
8
0
0
POLYLINE
8
0
66
1
40
0.000000
41
0.000000
0
VERTEX
8
0
10
0.508578
20
0.400295
0
VERTEX
8
0
10
0.508578
20
0.835705
0
SEQEND
8
0
0
POLYLINE
8
0
66
1
40
0.000000
41
0.000000
0
VERTEX
8
0
10
0.512515
20
-0.204705
0
VERTEX
8
0
10
0.512515
20
0.015296
0
SEQEND
8
0
0
POLYLINE
8
0
66
1
40
0.000000
41
0.000000
0
VERTEX
8
0
10
0.512515
20
0.195295
0
VERTEX
8
0
10
0.512515
20
0.210296
0
SEQEND
8
0
0
POLYLINE
8
0
66
1
40
0.000000
41
0.000000
0
VERTEX
8
0
10
0.512515
20
0.400295
0
VERTEX
8
0
10
0.512515
20
0.835705
0
SEQEND
8
0
0
POLYLINE
8
0
66
1
40
0.000000
41
0.000000
0
VERTEX
8
0
10
0.516452
20
-0.204705
0
VERTEX
8
0
10
0.516452
20
0.015296
0
SEQEND
8
0
0
POLYLINE
8
0
66
1
40
0.000000
41
0.000000
0
VERTEX
8
0
10
0.516452
20
0.195295
0
VERTEX
8
0
10
0.516452
20
0.210296
0
SEQEND
8
0
0
POLYLINE
8
0
66
1
40
0.000000
41
0.000000
0
VERTEX
8
0
10
0.516452
20
0.400295
0
VERTEX
8
0
10
0.516452
20
0.835705
0
SEQEND
8
0
0
POLYLINE
8
0
66
1
40
0.000000
41
0.000000
0
VERTEX
8
0
10
0.520389
20
-0.204705
0
VERTEX
8
0
10
0.520389
20
0.015296
0
SEQEND
8
0
0
POLYLINE
8
0
66
1
40
0.000000
41
0.000000
0
VERTEX
8
0
10
0.520389
20
0.195295
0
VERTEX
8
0
10
0.520389
20
0.210296
0
SEQEND
8
0
0
POLYLINE
8
0
66
1
40
0.000000
41
0.000000
0
VERTEX
8
0
10
0.520389
20
0.400295
0
VERTEX
8
0
10
0.520389
20
0.835705
0
SEQEND
8
0
0
POLYLINE
8
0
66
1
40
0.000000
41
0.000000
0
VERTEX
8
0
10
0.524326
20
-0.204705
0
VERTEX
8
0
10
0.524326
20
0.015296
0
SEQEND
8
0
0
POLYLINE
8
0
66
1
40
0.000000
41
0.000000
0
VERTEX
8
0
10
0.524326
20
0.195295
0
VERTEX
8
0
10
0.524326
20
0.210296
0
SEQEND
8
0
0
POLYLINE
8
0
66
1
40
0.000000
41
0.000000
0
VERTEX
8
0
10
0.524326
20
0.400295
0
VERTEX
8
0
10
0.524326
20
0.835705
0
SEQEND
8
0
0
POLYLINE
8
0
66
1
40
0.000000
41
0.000000
0
VERTEX
8
0
10
0.528263
20
-0.205078
0
VERTEX
8
0
10
0.528263
20
0.015669
0
SEQEND
8
0
0
POLYLINE
8
0
66
1
40
0.000000
41
0.000000
0
VERTEX
8
0
10
0.528263
20
0.194922
0
VERTEX
8
0
10
0.528263
20
0.210296
0
SEQEND
8
0
0
POLYLINE
8
0
66
1
40
0.000000
41
0.000000
0
VERTEX
8
0
10
0.528263
20
0.400295
0
VERTEX
8
0
10
0.528263
20
0.835705
0
SEQEND
8
0
0
POLYLINE
8
0
66
1
40
0.000000
41
0.000000
0
VERTEX
8
0
10
0.532200
20
-0.209015
0
VERTEX
8
0
10
0.532200
20
0.019606
0
SEQEND
8
0
0
POLYLINE
8
0
66
1
40
0.000000
41
0.000000
0
VERTEX
8
0
10
0.532200
20
0.190985
0
VERTEX
8
0
10
0.532200
20
0.210296
0
SEQEND
8
0
0
POLYLINE
8
0
66
1
40
0.000000
41
0.000000
0
VERTEX
8
0
10
0.532200
20
0.400295
0
VERTEX
8
0
10
0.532200
20
0.835705
0
SEQEND
8
0
0
POLYLINE
8
0
66
1
40
0.000000
41
0.000000
0
VERTEX
8
0
10
0.536137
20
-0.212952
0
VERTEX
8
0
10
0.536137
20
0.023543
0
SEQEND
8
0
0
POLYLINE
8
0
66
1
40
0.000000
41
0.000000
0
VERTEX
8
0
10
0.536137
20
0.187048
0
VERTEX
8
0
10
0.536137
20
0.835705
0
SEQEND
8
0
0
POLYLINE
8
0
66
1
40
0.000000
41
0.000000
0
VERTEX
8
0
10
0.540074
20
-0.216889
0
VERTEX
8
0
10
0.540074
20
0.027480
0
SEQEND
8
0
0
POLYLINE
8
0
66
1
40
0.000000
41
0.000000
0
VERTEX
8
0
10
0.540074
20
0.183111
0
VERTEX
8
0
10
0.540074
20
0.835705
0
SEQEND
8
0
0
POLYLINE
8
0
66
1
40
0.000000
41
0.000000
0
VERTEX
8
0
10
0.544011
20
-0.220826
0
VERTEX
8
0
10
0.544011
20
0.031417
0
SEQEND
8
0
0
POLYLINE
8
0
66
1
40
0.000000
41
0.000000
0
VERTEX
8
0
10
0.544011
20
0.179174
0
VERTEX
8
0
10
0.544011
20
0.835705
0
SEQEND
8
0
0
POLYLINE
8
0
66
1
40
0.000000
41
0.000000
0
VERTEX
8
0
10
0.547948
20
-0.224763
0
VERTEX
8
0
10
0.547948
20
0.035354
0
SEQEND
8
0
0
POLYLINE
8
0
66
1
40
0.000000
41
0.000000
0
VERTEX
8
0
10
0.547948
20
0.175237
0
VERTEX
8
0
10
0.547948
20
0.835705
0
SEQEND
8
0
0
POLYLINE
8
0
66
1
40
0.000000
41
0.000000
0
VERTEX
8
0
10
0.551885
20
-0.228700
0
VERTEX
8
0
10
0.551885
20
0.039291
0
SEQEND
8
0
0
POLYLINE
8
0
66
1
40
0.000000
41
0.000000
0
VERTEX
8
0
10
0.551885
20
0.171300
0
VERTEX
8
0
10
0.551885
20
0.835705
0
SEQEND
8
0
0
POLYLINE
8
0
66
1
40
0.000000
41
0.000000
0
VERTEX
8
0
10
0.555822
20
-0.232637
0
VERTEX
8
0
10
0.555822
20
0.043228
0
SEQEND
8
0
0
POLYLINE
8
0
66
1
40
0.000000
41
0.000000
0
VERTEX
8
0
10
0.555822
20
0.167363
0
VERTEX
8
0
10
0.555822
20
0.835705
0
SEQEND
8
0
0
POLYLINE
8
0
66
1
40
0.000000
41
0.000000
0
VERTEX
8
0
10
0.559759
20
-0.554705
0
VERTEX
8
0
10
0.559759
20
-0.552835
0
SEQEND
8
0
0
POLYLINE
8
0
66
1
40
0.000000
41
0.000000
0
VERTEX
8
0
10
0.559759
20
-0.236574
0
VERTEX
8
0
10
0.559759
20
0.047165
0
SEQEND
8
0
0
POLYLINE
8
0
66
1
40
0.000000
41
0.000000
0
VERTEX
8
0
10
0.559759
20
0.163426
0
VERTEX
8
0
10
0.559759
20
0.835705
0
SEQEND
8
0
0
POLYLINE
8
0
66
1
40
0.000000
41
0.000000
0
VERTEX
8
0
10
0.563696
20
-0.554705
0
VERTEX
8
0
10
0.563696
20
-0.548898
0
SEQEND
8
0
0
POLYLINE
8
0
66
1
40
0.000000
41
0.000000
0
VERTEX
8
0
10
0.563696
20
-0.240511
0
VERTEX
8
0
10
0.563696
20
0.051102
0
SEQEND
8
0
0
POLYLINE
8
0
66
1
40
0.000000
41
0.000000
0
VERTEX
8
0
10
0.563696
20
0.159489
0
VERTEX
8
0
10
0.563696
20
0.835705
0
SEQEND
8
0
0
POLYLINE
8
0
66
1
40
0.000000
41
0.000000
0
VERTEX
8
0
10
0.567633
20
-0.554705
0
VERTEX
8
0
10
0.567633
20
-0.544961
0
SEQEND
8
0
0
POLYLINE
8
0
66
1
40
0.000000
41
0.000000
0
VERTEX
8
0
10
0.567633
20
-0.244448
0
VERTEX
8
0
10
0.567633
20
0.055039
0
SEQEND
8
0
0
POLYLINE
8
0
66
1
40
0.000000
41
0.000000
0
VERTEX
8
0
10
0.567633
20
0.155552
0
VERTEX
8
0
10
0.567633
20
0.835705
0
SEQEND
8
0
0
POLYLINE
8
0
66
1
40
0.000000
41
0.000000
0
VERTEX
8
0
10
0.571570
20
-0.554705
0
VERTEX
8
0
10
0.571570
20
-0.541024
0
SEQEND
8
0
0
POLYLINE
8
0
66
1
40
0.000000
41
0.000000
0
VERTEX
8
0
10
0.571570
20
-0.448385
0
VERTEX
8
0
10
0.571570
20
-0.441024
0
SEQEND
8
0
0
POLYLINE
8
0
66
1
40
0.000000
41
0.000000
0
VERTEX
8
0
10
0.571570
20
-0.348385
0
VERTEX
8
0
10
0.571570
20
-0.341024
0
SEQEND
8
0
0
POLYLINE
8
0
66
1
40
0.000000
41
0.000000
0
VERTEX
8
0
10
0.571570
20
-0.248385
0
VERTEX
8
0
10
0.571570
20
0.058976
0
SEQEND
8
0
0
POLYLINE
8
0
66
1
40
0.000000
41
0.000000
0
VERTEX
8
0
10
0.571570
20
0.151615
0
VERTEX
8
0
10
0.571570
20
0.835705
0
SEQEND
8
0
0
POLYLINE
8
0
66
1
40
0.000000
41
0.000000
0
VERTEX
8
0
10
0.575507
20
-0.554705
0
VERTEX
8
0
10
0.575507
20
-0.537087
0
SEQEND
8
0
0
POLYLINE
8
0
66
1
40
0.000000
41
0.000000
0
VERTEX
8
0
10
0.575507
20
-0.452322
0
VERTEX
8
0
10
0.575507
20
-0.437087
0
SEQEND
8
0
0
POLYLINE
8
0
66
1
40
0.000000
41
0.000000
0
VERTEX
8
0
10
0.575507
20
-0.352322
0
VERTEX
8
0
10
0.575507
20
-0.337087
0
SEQEND
8
0
0
POLYLINE
8
0
66
1
40
0.000000
41
0.000000
0
VERTEX
8
0
10
0.575507
20
-0.252322
0
VERTEX
8
0
10
0.575507
20
0.062913
0
SEQEND
8
0
0
POLYLINE
8
0
66
1
40
0.000000
41
0.000000
0
VERTEX
8
0
10
0.575507
20
0.147678
0
VERTEX
8
0
10
0.575507
20
0.835705
0
SEQEND
8
0
0
POLYLINE
8
0
66
1
40
0.000000
41
0.000000
0
VERTEX
8
0
10
0.579444
20
-0.554705
0
VERTEX
8
0
10
0.579444
20
-0.533150
0
SEQEND
8
0
0
POLYLINE
8
0
66
1
40
0.000000
41
0.000000
0
VERTEX
8
0
10
0.579444
20
-0.456259
0
VERTEX
8
0
10
0.579444
20
-0.433150
0
SEQEND
8
0
0
POLYLINE
8
0
66
1
40
0.000000
41
0.000000
0
VERTEX
8
0
10
0.579444
20
-0.356259
0
VERTEX
8
0
10
0.579444
20
-0.333150
0
SEQEND
8
0
0
POLYLINE
8
0
66
1
40
0.000000
41
0.000000
0
VERTEX
8
0
10
0.579444
20
-0.256259
0
VERTEX
8
0
10
0.579444
20
0.066850
0
SEQEND
8
0
0
POLYLINE
8
0
66
1
40
0.000000
41
0.000000
0
VERTEX
8
0
10
0.579444
20
0.143741
0
VERTEX
8
0
10
0.579444
20
0.835705
0
SEQEND
8
0
0
POLYLINE
8
0
66
1
40
0.000000
41
0.000000
0
VERTEX
8
0
10
0.583381
20
-0.554705
0
VERTEX
8
0
10
0.583381
20
0.835705
0
SEQEND
8
0
0
POLYLINE
8
0
66
1
40
0.000000
41
0.000000
0
VERTEX
8
0
10
0.587318
20
-0.554705
0
VERTEX
8
0
10
0.587318
20
0.835705
0
SEQEND
8
0
0
POLYLINE
8
0
66
1
40
0.000000
41
0.000000
0
VERTEX
8
0
10
0.591255
20
-0.554705
0
VERTEX
8
0
10
0.591255
20
0.835705
0
SEQEND
8
0
0
POLYLINE
8
0
66
1
40
0.000000
41
0.000000
0
VERTEX
8
0
10
0.595192
20
-0.554705
0
VERTEX
8
0
10
0.595192
20
0.835705
0
SEQEND
8
0
0
POLYLINE
8
0
66
1
40
0.000000
41
0.000000
0
VERTEX
8
0
10
0.599129
20
-0.554705
0
VERTEX
8
0
10
0.599129
20
0.835705
0
SEQEND
8
0
0
POLYLINE
8
0
66
1
40
0.000000
41
0.000000
0
VERTEX
8
0
10
0.603066
20
-0.554705
0
VERTEX
8
0
10
0.603066
20
0.835705
0
SEQEND
8
0
0
POLYLINE
8
0
66
1
40
0.000000
41
0.000000
0
VERTEX
8
0
10
0.607003
20
-0.554705
0
VERTEX
8
0
10
0.607003
20
0.835705
0
SEQEND
8
0
0
POLYLINE
8
0
66
1
40
0.000000
41
0.000000
0
VERTEX
8
0
10
0.610940
20
-0.554705
0
VERTEX
8
0
10
0.610940
20
0.835705
0
SEQEND
8
0
0
POLYLINE
8
0
66
1
40
0.000000
41
0.000000
0
VERTEX
8
0
10
0.614877
20
-0.554705
0
VERTEX
8
0
10
0.614877
20
0.835705
0
SEQEND
8
0
0
POLYLINE
8
0
66
1
40
0.000000
41
0.000000
0
VERTEX
8
0
10
0.618814
20
-0.554705
0
VERTEX
8
0
10
0.618814
20
0.835705
0
SEQEND
8
0
0
POLYLINE
8
0
66
1
40
0.000000
41
0.000000
0
VERTEX
8
0
10
0.622751
20
-0.554705
0
VERTEX
8
0
10
0.622751
20
0.835705
0
SEQEND
8
0
0
POLYLINE
8
0
66
1
40
0.000000
41
0.000000
0
VERTEX
8
0
10
0.626688
20
-0.554705
0
VERTEX
8
0
10
0.626688
20
0.835705
0
SEQEND
8
0
0
POLYLINE
8
0
66
1
40
0.000000
41
0.000000
0
VERTEX
8
0
10
0.630625
20
-0.554705
0
VERTEX
8
0
10
0.630625
20
0.835705
0
SEQEND
8
0
0
POLYLINE
8
0
66
1
40
0.000000
41
0.000000
0
VERTEX
8
0
10
0.634562
20
-0.554705
0
VERTEX
8
0
10
0.634562
20
0.835705
0
SEQEND
8
0
0
POLYLINE
8
0
66
1
40
0.000000
41
0.000000
0
VERTEX
8
0
10
0.638499
20
-0.554705
0
VERTEX
8
0
10
0.638499
20
0.835705
0
SEQEND
8
0
0
POLYLINE
8
0
66
1
40
0.000000
41
0.000000
0
VERTEX
8
0
10
0.642436
20
-0.554705
0
VERTEX
8
0
10
0.642436
20
0.835705
0
SEQEND
8
0
0
POLYLINE
8
0
66
1
40
0.000000
41
0.000000
0
VERTEX
8
0
10
0.646373
20
-0.554705
0
VERTEX
8
0
10
0.646373
20
0.835705
0
SEQEND
8
0
0
POLYLINE
8
0
66
1
40
0.000000
41
0.000000
0
VERTEX
8
0
10
0.650310
20
-0.554846
0
VERTEX
8
0
10
0.650310
20
0.835705
0
SEQEND
8
0
0
POLYLINE
8
0
66
1
40
0.000000
41
0.000000
0
VERTEX
8
0
10
0.654247
20
-0.558783
0
VERTEX
8
0
10
0.654247
20
0.835705
0
SEQEND
8
0
0
POLYLINE
8
0
66
1
40
0.000000
41
0.000000
0
VERTEX
8
0
10
0.658184
20
-0.562720
0
VERTEX
8
0
10
0.658184
20
0.835705
0
SEQEND
8
0
0
POLYLINE
8
0
66
1
40
0.000000
41
0.000000
0
VERTEX
8
0
10
0.662121
20
-0.566657
0
VERTEX
8
0
10
0.662121
20
0.835705
0
SEQEND
8
0
0
POLYLINE
8
0
66
1
40
0.000000
41
0.000000
0
VERTEX
8
0
10
0.666058
20
-0.570594
0
VERTEX
8
0
10
0.666058
20
0.835705
0
SEQEND
8
0
0
POLYLINE
8
0
66
1
40
0.000000
41
0.000000
0
VERTEX
8
0
10
0.669995
20
-0.574531
0
VERTEX
8
0
10
0.669995
20
0.835705
0
SEQEND
8
0
0
POLYLINE
8
0
66
1
40
0.000000
41
0.000000
0
VERTEX
8
0
10
0.673932
20
-0.578469
0
VERTEX
8
0
10
0.673932
20
0.835705
0
SEQEND
8
0
0
POLYLINE
8
0
66
1
40
0.000000
41
0.000000
0
VERTEX
8
0
10
0.677869
20
-0.582406
0
VERTEX
8
0
10
0.677869
20
0.835705
0
SEQEND
8
0
0
POLYLINE
8
0
66
1
40
0.000000
41
0.000000
0
VERTEX
8
0
10
0.681806
20
-0.586343
0
VERTEX
8
0
10
0.681806
20
0.835705
0
SEQEND
8
0
0
POLYLINE
8
0
66
1
40
0.000000
41
0.000000
0
VERTEX
8
0
10
0.685193
20
-0.589730
0
VERTEX
8
0
10
0.685193
20
0.835705
0
SEQEND
8
0
0
POLYLINE
8
0
66
1
40
0.060000
41
0.060000
0
VERTEX
8
0
10
0.685193
20
-0.589730
0
VERTEX
8
0
10
0.650168
20
-0.554705
0
VERTEX
8
0
10
0.557889
20
-0.554705
0
VERTEX
8
0
10
0.580610
20
-0.531984
0
VERTEX
8
0
10
0.580610
20
-0.457426
0
VERTEX
8
0
10
0.567889
20
-0.444705
0
VERTEX
8
0
10
0.580610
20
-0.431984
0
VERTEX
8
0
10
0.580610
20
-0.357426
0
VERTEX
8
0
10
0.567889
20
-0.344705
0
VERTEX
8
0
10
0.580610
20
-0.331984
0
VERTEX
8
0
10
0.580610
20
-0.257426
0
VERTEX
8
0
10
0.527889
20
-0.204705
0
VERTEX
8
0
10
0.453331
20
-0.204705
0
VERTEX
8
0
10
0.400611
20
-0.257426
0
VERTEX
8
0
10
0.400611
20
-0.327205
0
VERTEX
8
0
10
0.387652
20
-0.327205
0
VERTEX
8
0
10
0.385610
20
-0.329247
0
VERTEX
8
0
10
0.385610
20
-0.287007
0
VERTEX
8
0
10
0.339322
20
-0.240719
0
VERTEX
8
0
10
0.339322
20
-0.233565
0
VERTEX
8
0
10
0.335610
20
-0.229853
0
VERTEX
8
0
10
0.335610
20
-0.205355
0
VERTEX
8
0
10
0.321810
20
-0.191555
0
VERTEX
8
0
10
0.335610
20
-0.177756
0
VERTEX
8
0
10
0.335610
20
-0.126984
0
VERTEX
8
0
10
0.380610
20
-0.081984
0
VERTEX
8
0
10
0.380610
20
-0.007426
0
VERTEX
8
0
10
0.327889
20
0.045295
0
VERTEX
8
0
10
0.285610
20
0.045295
0
VERTEX
8
0
10
0.285610
20
0.150295
0
VERTEX
8
0
10
0.046189
20
0.150295
0
VERTEX
8
0
10
0.053828
20
0.157933
0
VERTEX
8
0
10
0.129960
20
0.157933
0
VERTEX
8
0
10
0.157460
20
0.185433
0
VERTEX
8
0
10
0.343569
20
0.185433
0
VERTEX
8
0
10
0.368431
20
0.210296
0
VERTEX
8
0
10
0.535610
20
0.210296
0
VERTEX
8
0
10
0.535610
20
0.400295
0
VERTEX
8
0
10
0.372889
20
0.400295
0
VERTEX
8
0
10
0.327889
20
0.445295
0
VERTEX
8
0
10
0.253331
20
0.445295
0
VERTEX
8
0
10
0.230831
20
0.422795
0
VERTEX
8
0
10
0.185610
20
0.422795
0
VERTEX
8
0
10
0.185610
20
0.500944
0
VERTEX
8
0
10
0.178039
20
0.508515
0
VERTEX
8
0
10
0.233110
20
0.563586
0
VERTEX
8
0
10
0.233110
20
0.708254
0
VERTEX
8
0
10
0.143569
20
0.797795
0
VERTEX
8
0
10
-0.327349
20
0.797795
0
VERTEX
8
0
10
-0.394390
20
0.730754
0
VERTEX
8
0
10
-0.394390
20
0.789854
0
VERTEX
8
0
10
-0.440241
20
0.835705
0
VERTEX
8
0
10
0.685193
20
0.835705
0
VERTEX
8
0
10
0.685193
20
-0.589730
0
SEQEND
8
0
0
POLYLINE
8
0
66
1
40
0.060000
41
0.060000
0
VERTEX
8
0
10
0.580610
20
0.068016
0
VERTEX
8
0
10
0.580610
20
0.142574
0
VERTEX
8
0
10
0.527889
20
0.195295
0
VERTEX
8
0
10
0.453331
20
0.195295
0
VERTEX
8
0
10
0.400611
20
0.142574
0
VERTEX
8
0
10
0.400611
20
0.068016
0
VERTEX
8
0
10
0.453331
20
0.015296
0
VERTEX
8
0
10
0.527889
20
0.015296
0
VERTEX
8
0
10
0.580610
20
0.068016
0
SEQEND
8
0
0
POLYLINE
8
0
66
1
40
0.000000
41
0.000000
0
VERTEX
8
0
10
-0.004389
20
0.453786
0
VERTEX
8
0
10
-0.004389
20
0.453786
0
SEQEND
8
0
0
POLYLINE
8
0
66
1
40
0.000000
41
0.000000
0
VERTEX
8
0
10
-0.020088
20
0.457723
0
VERTEX
8
0
10
-0.004389
20
0.457723
0
SEQEND
8
0
0
POLYLINE
8
0
66
1
40
0.000000
41
0.000000
0
VERTEX
8
0
10
-0.035787
20
0.461660
0
VERTEX
8
0
10
-0.004389
20
0.461660
0
SEQEND
8
0
0
POLYLINE
8
0
66
1
40
0.000000
41
0.000000
0
VERTEX
8
0
10
-0.021809
20
0.465597
0
VERTEX
8
0
10
-0.004389
20
0.465597
0
SEQEND
8
0
0
POLYLINE
8
0
66
1
40
0.000000
41
0.000000
0
VERTEX
8
0
10
-0.017872
20
0.469534
0
VERTEX
8
0
10
-0.004389
20
0.469534
0
SEQEND
8
0
0
POLYLINE
8
0
66
1
40
0.000000
41
0.000000
0
VERTEX
8
0
10
-0.014611
20
0.472796
0
VERTEX
8
0
10
-0.004389
20
0.472796
0
SEQEND
8
0
0
POLYLINE
8
0
66
1
40
0.060000
41
0.060000
0
VERTEX
8
0
10
-0.004389
20
0.453786
0
VERTEX
8
0
10
-0.050286
20
0.465296
0
VERTEX
8
0
10
-0.022111
20
0.465296
0
VERTEX
8
0
10
-0.014611
20
0.472796
0
VERTEX
8
0
10
-0.004389
20
0.472796
0
VERTEX
8
0
10
-0.004389
20
0.453786
0
SEQEND
8
0
0
POLYLINE
8
0
66
1
40
0.000000
41
0.000000
0
VERTEX
8
0
10
-0.288178
20
0.130296
0
VERTEX
8
0
10
-0.288178
20
0.130296
0
SEQEND
8
0
0
POLYLINE
8
0
66
1
40
0.000000
41
0.000000
0
VERTEX
8
0
10
-0.284241
20
0.126359
0
VERTEX
8
0
10
-0.284241
20
0.130296
0
SEQEND
8
0
0
POLYLINE
8
0
66
1
40
0.000000
41
0.000000
0
VERTEX
8
0
10
-0.280304
20
0.122422
0
VERTEX
8
0
10
-0.280304
20
0.130296
0
SEQEND
8
0
0
POLYLINE
8
0
66
1
40
0.000000
41
0.000000
0
VERTEX
8
0
10
-0.276367
20
0.118485
0
VERTEX
8
0
10
-0.276367
20
0.130296
0
SEQEND
8
0
0
POLYLINE
8
0
66
1
40
0.000000
41
0.000000
0
VERTEX
8
0
10
-0.272430
20
0.114548
0
VERTEX
8
0
10
-0.272430
20
0.130296
0
SEQEND
8
0
0
POLYLINE
8
0
66
1
40
0.000000
41
0.000000
0
VERTEX
8
0
10
-0.268493
20
0.110611
0
VERTEX
8
0
10
-0.268493
20
0.130296
0
SEQEND
8
0
0
POLYLINE
8
0
66
1
40
0.000000
41
0.000000
0
VERTEX
8
0
10
-0.264556
20
0.106674
0
VERTEX
8
0
10
-0.264556
20
0.130296
0
SEQEND
8
0
0
POLYLINE
8
0
66
1
40
0.000000
41
0.000000
0
VERTEX
8
0
10
-0.260619
20
0.102737
0
VERTEX
8
0
10
-0.260619
20
0.130296
0
SEQEND
8
0
0
POLYLINE
8
0
66
1
40
0.000000
41
0.000000
0
VERTEX
8
0
10
-0.256682
20
0.098800
0
VERTEX
8
0
10
-0.256682
20
0.130296
0
SEQEND
8
0
0
POLYLINE
8
0
66
1
40
0.000000
41
0.000000
0
VERTEX
8
0
10
-0.252744
20
0.094863
0
VERTEX
8
0
10
-0.252744
20
0.133890
0
SEQEND
8
0
0
POLYLINE
8
0
66
1
40
0.000000
41
0.000000
0
VERTEX
8
0
10
-0.248807
20
0.090926
0
VERTEX
8
0
10
-0.248807
20
0.137827
0
SEQEND
8
0
0
POLYLINE
8
0
66
1
40
0.000000
41
0.000000
0
VERTEX
8
0
10
-0.244870
20
0.086989
0
VERTEX
8
0
10
-0.244870
20
0.141764
0
SEQEND
8
0
0
POLYLINE
8
0
66
1
40
0.000000
41
0.000000
0
VERTEX
8
0
10
-0.240933
20
0.083052
0
VERTEX
8
0
10
-0.240933
20
0.142489
0
SEQEND
8
0
0
POLYLINE
8
0
66
1
40
0.000000
41
0.000000
0
VERTEX
8
0
10
-0.236996
20
0.079115
0
VERTEX
8
0
10
-0.236996
20
0.138552
0
SEQEND
8
0
0
POLYLINE
8
0
66
1
40
0.000000
41
0.000000
0
VERTEX
8
0
10
-0.233059
20
0.075178
0
VERTEX
8
0
10
-0.233059
20
0.134615
0
SEQEND
8
0
0
POLYLINE
8
0
66
1
40
0.000000
41
0.000000
0
VERTEX
8
0
10
-0.229122
20
0.071241
0
VERTEX
8
0
10
-0.229122
20
0.130678
0
SEQEND
8
0
0
POLYLINE
8
0
66
1
40
0.000000
41
0.000000
0
VERTEX
8
0
10
-0.225185
20
0.067304
0
VERTEX
8
0
10
-0.225185
20
0.130296
0
SEQEND
8
0
0
POLYLINE
8
0
66
1
40
0.000000
41
0.000000
0
VERTEX
8
0
10
-0.221248
20
0.063367
0
VERTEX
8
0
10
-0.221248
20
0.130296
0
SEQEND
8
0
0
POLYLINE
8
0
66
1
40
0.000000
41
0.000000
0
VERTEX
8
0
10
-0.217311
20
0.059430
0
VERTEX
8
0
10
-0.217311
20
0.130296
0
SEQEND
8
0
0
POLYLINE
8
0
66
1
40
0.000000
41
0.000000
0
VERTEX
8
0
10
-0.213374
20
0.055493
0
VERTEX
8
0
10
-0.213374
20
0.130296
0
SEQEND
8
0
0
POLYLINE
8
0
66
1
40
0.000000
41
0.000000
0
VERTEX
8
0
10
-0.209437
20
0.051556
0
VERTEX
8
0
10
-0.209437
20
0.130296
0
SEQEND
8
0
0
POLYLINE
8
0
66
1
40
0.000000
41
0.000000
0
VERTEX
8
0
10
-0.205500
20
0.047619
0
VERTEX
8
0
10
-0.205500
20
0.130296
0
SEQEND
8
0
0
POLYLINE
8
0
66
1
40
0.000000
41
0.000000
0
VERTEX
8
0
10
-0.204389
20
0.046507
0
VERTEX
8
0
10
-0.204389
20
0.130296
0
SEQEND
8
0
0
POLYLINE
8
0
66
1
40
0.060000
41
0.060000
0
VERTEX
8
0
10
-0.228740
20
0.130296
0
VERTEX
8
0
10
-0.204389
20
0.130296
0
VERTEX
8
0
10
-0.204389
20
0.046507
0
VERTEX
8
0
10
-0.288178
20
0.130296
0
VERTEX
8
0
10
-0.256339
20
0.130296
0
VERTEX
8
0
10
-0.242539
20
0.144095
0
VERTEX
8
0
10
-0.228740
20
0.130296
0
SEQEND
8
0
0
POLYLINE
8
0
66
1
40
0.000000
41
0.000000
0
VERTEX
8
0
10
0.030610
20
-0.064705
0
VERTEX
8
0
10
0.030610
20
-0.039704
0
SEQEND
8
0
0
POLYLINE
8
0
66
1
40
0.000000
41
0.000000
0
VERTEX
8
0
10
0.034547
20
-0.064705
0
VERTEX
8
0
10
0.034547
20
-0.039704
0
SEQEND
8
0
0
POLYLINE
8
0
66
1
40
0.000000
41
0.000000
0
VERTEX
8
0
10
0.038484
20
-0.064705
0
VERTEX
8
0
10
0.038484
20
-0.039704
0
SEQEND
8
0
0
POLYLINE
8
0
66
1
40
0.000000
41
0.000000
0
VERTEX
8
0
10
0.042421
20
-0.064705
0
VERTEX
8
0
10
0.042421
20
-0.039704
0
SEQEND
8
0
0
POLYLINE
8
0
66
1
40
0.000000
41
0.000000
0
VERTEX
8
0
10
0.046358
20
-0.064705
0
VERTEX
8
0
10
0.046358
20
-0.039704
0
SEQEND
8
0
0
POLYLINE
8
0
66
1
40
0.000000
41
0.000000
0
VERTEX
8
0
10
0.050295
20
-0.064705
0
VERTEX
8
0
10
0.050295
20
-0.039704
0
SEQEND
8
0
0
POLYLINE
8
0
66
1
40
0.000000
41
0.000000
0
VERTEX
8
0
10
0.054232
20
-0.064705
0
VERTEX
8
0
10
0.054232
20
-0.039704
0
SEQEND
8
0
0
POLYLINE
8
0
66
1
40
0.000000
41
0.000000
0
VERTEX
8
0
10
0.058169
20
-0.064705
0
VERTEX
8
0
10
0.058169
20
-0.039704
0
SEQEND
8
0
0
POLYLINE
8
0
66
1
40
0.000000
41
0.000000
0
VERTEX
8
0
10
0.062106
20
-0.064705
0
VERTEX
8
0
10
0.062106
20
-0.039704
0
SEQEND
8
0
0
POLYLINE
8
0
66
1
40
0.000000
41
0.000000
0
VERTEX
8
0
10
0.066043
20
-0.064705
0
VERTEX
8
0
10
0.066043
20
-0.039704
0
SEQEND
8
0
0
POLYLINE
8
0
66
1
40
0.000000
41
0.000000
0
VERTEX
8
0
10
0.069980
20
-0.064705
0
VERTEX
8
0
10
0.069980
20
-0.039704
0
SEQEND
8
0
0
POLYLINE
8
0
66
1
40
0.000000
41
0.000000
0
VERTEX
8
0
10
0.073917
20
-0.064705
0
VERTEX
8
0
10
0.073917
20
-0.039704
0
SEQEND
8
0
0
POLYLINE
8
0
66
1
40
0.000000
41
0.000000
0
VERTEX
8
0
10
0.077854
20
-0.064705
0
VERTEX
8
0
10
0.077854
20
-0.039704
0
SEQEND
8
0
0
POLYLINE
8
0
66
1
40
0.000000
41
0.000000
0
VERTEX
8
0
10
0.081791
20
-0.064705
0
VERTEX
8
0
10
0.081791
20
-0.039704
0
SEQEND
8
0
0
POLYLINE
8
0
66
1
40
0.000000
41
0.000000
0
VERTEX
8
0
10
0.085728
20
-0.229364
0
VERTEX
8
0
10
0.085728
20
-0.039704
0
SEQEND
8
0
0
POLYLINE
8
0
66
1
40
0.000000
41
0.000000
0
VERTEX
8
0
10
0.089665
20
-0.233301
0
VERTEX
8
0
10
0.089665
20
-0.039704
0
SEQEND
8
0
0
POLYLINE
8
0
66
1
40
0.000000
41
0.000000
0
VERTEX
8
0
10
0.093602
20
-0.237238
0
VERTEX
8
0
10
0.093602
20
-0.039704
0
SEQEND
8
0
0
POLYLINE
8
0
66
1
40
0.000000
41
0.000000
0
VERTEX
8
0
10
0.097539
20
-0.241175
0
VERTEX
8
0
10
0.097539
20
-0.039704
0
SEQEND
8
0
0
POLYLINE
8
0
66
1
40
0.000000
41
0.000000
0
VERTEX
8
0
10
0.101476
20
-0.245112
0
VERTEX
8
0
10
0.101476
20
-0.039704
0
SEQEND
8
0
0
POLYLINE
8
0
66
1
40
0.000000
41
0.000000
0
VERTEX
8
0
10
0.105413
20
-0.249049
0
VERTEX
8
0
10
0.105413
20
-0.039704
0
SEQEND
8
0
0
POLYLINE
8
0
66
1
40
0.000000
41
0.000000
0
VERTEX
8
0
10
0.109350
20
-0.252986
0
VERTEX
8
0
10
0.109350
20
-0.039704
0
SEQEND
8
0
0
POLYLINE
8
0
66
1
40
0.000000
41
0.000000
0
VERTEX
8
0
10
0.113287
20
-0.256923
0
VERTEX
8
0
10
0.113287
20
-0.039704
0
SEQEND
8
0
0
POLYLINE
8
0
66
1
40
0.000000
41
0.000000
0
VERTEX
8
0
10
0.117224
20
-0.260860
0
VERTEX
8
0
10
0.117224
20
-0.039704
0
SEQEND
8
0
0
POLYLINE
8
0
66
1
40
0.000000
41
0.000000
0
VERTEX
8
0
10
0.121161
20
-0.264797
0
VERTEX
8
0
10
0.121161
20
-0.039704
0
SEQEND
8
0
0
POLYLINE
8
0
66
1
40
0.000000
41
0.000000
0
VERTEX
8
0
10
0.125098
20
-0.268734
0
VERTEX
8
0
10
0.125098
20
-0.039704
0
SEQEND
8
0
0
POLYLINE
8
0
66
1
40
0.000000
41
0.000000
0
VERTEX
8
0
10
0.129035
20
-0.272671
0
VERTEX
8
0
10
0.129035
20
-0.039704
0
SEQEND
8
0
0
POLYLINE
8
0
66
1
40
0.000000
41
0.000000
0
VERTEX
8
0
10
0.132972
20
-0.276608
0
VERTEX
8
0
10
0.132972
20
-0.039704
0
SEQEND
8
0
0
POLYLINE
8
0
66
1
40
0.000000
41
0.000000
0
VERTEX
8
0
10
0.136909
20
-0.279567
0
VERTEX
8
0
10
0.136909
20
-0.039704
0
SEQEND
8
0
0
POLYLINE
8
0
66
1
40
0.000000
41
0.000000
0
VERTEX
8
0
10
0.140846
20
-0.279567
0
VERTEX
8
0
10
0.140846
20
-0.039704
0
SEQEND
8
0
0
POLYLINE
8
0
66
1
40
0.000000
41
0.000000
0
VERTEX
8
0
10
0.144783
20
-0.279567
0
VERTEX
8
0
10
0.144783
20
-0.039704
0
SEQEND
8
0
0
POLYLINE
8
0
66
1
40
0.000000
41
0.000000
0
VERTEX
8
0
10
0.148720
20
-0.202245
0
VERTEX
8
0
10
0.148720
20
-0.180865
0
SEQEND
8
0
0
POLYLINE
8
0
66
1
40
0.000000
41
0.000000
0
VERTEX
8
0
10
0.148720
20
-0.095946
0
VERTEX
8
0
10
0.148720
20
-0.039704
0
SEQEND
8
0
0
POLYLINE
8
0
66
1
40
0.000000
41
0.000000
0
VERTEX
8
0
10
0.152657
20
-0.198308
0
VERTEX
8
0
10
0.152657
20
-0.184802
0
SEQEND
8
0
0
POLYLINE
8
0
66
1
40
0.000000
41
0.000000
0
VERTEX
8
0
10
0.152657
20
-0.092009
0
VERTEX
8
0
10
0.152657
20
-0.039704
0
SEQEND
8
0
0
POLYLINE
8
0
66
1
40
0.000000
41
0.000000
0
VERTEX
8
0
10
0.156594
20
-0.194371
0
VERTEX
8
0
10
0.156594
20
-0.188739
0
SEQEND
8
0
0
POLYLINE
8
0
66
1
40
0.000000
41
0.000000
0
VERTEX
8
0
10
0.156594
20
-0.088072
0
VERTEX
8
0
10
0.156594
20
-0.039704
0
SEQEND
8
0
0
POLYLINE
8
0
66
1
40
0.000000
41
0.000000
0
VERTEX
8
0
10
0.160531
20
-0.084135
0
VERTEX
8
0
10
0.160531
20
-0.039704
0
SEQEND
8
0
0
POLYLINE
8
0
66
1
40
0.000000
41
0.000000
0
VERTEX
8
0
10
0.164468
20
-0.080198
0
VERTEX
8
0
10
0.164468
20
-0.039704
0
SEQEND
8
0
0
POLYLINE
8
0
66
1
40
0.000000
41
0.000000
0
VERTEX
8
0
10
0.168405
20
-0.076261
0
VERTEX
8
0
10
0.168405
20
-0.039704
0
SEQEND
8
0
0
POLYLINE
8
0
66
1
40
0.000000
41
0.000000
0
VERTEX
8
0
10
0.172342
20
-0.072324
0
VERTEX
8
0
10
0.172342
20
-0.039704
0
SEQEND
8
0
0
POLYLINE
8
0
66
1
40
0.000000
41
0.000000
0
VERTEX
8
0
10
0.176279
20
-0.068387
0
VERTEX
8
0
10
0.176279
20
-0.039704
0
SEQEND
8
0
0
POLYLINE
8
0
66
1
40
0.000000
41
0.000000
0
VERTEX
8
0
10
0.180216
20
-0.064450
0
VERTEX
8
0
10
0.180216
20
-0.039704
0
SEQEND
8
0
0
POLYLINE
8
0
66
1
40
0.000000
41
0.000000
0
VERTEX
8
0
10
0.184153
20
-0.060513
0
VERTEX
8
0
10
0.184153
20
-0.039704
0
SEQEND
8
0
0
POLYLINE
8
0
66
1
40
0.000000
41
0.000000
0
VERTEX
8
0
10
0.188090
20
-0.056576
0
VERTEX
8
0
10
0.188090
20
-0.039704
0
SEQEND
8
0
0
POLYLINE
8
0
66
1
40
0.000000
41
0.000000
0
VERTEX
8
0
10
0.192027
20
-0.052639
0
VERTEX
8
0
10
0.192027
20
-0.039704
0
SEQEND
8
0
0
POLYLINE
8
0
66
1
40
0.000000
41
0.000000
0
VERTEX
8
0
10
0.195964
20
-0.048702
0
VERTEX
8
0
10
0.195964
20
-0.039704
0
SEQEND
8
0
0
POLYLINE
8
0
66
1
40
0.000000
41
0.000000
0
VERTEX
8
0
10
0.199901
20
-0.044765
0
VERTEX
8
0
10
0.199901
20
-0.039704
0
SEQEND
8
0
0
POLYLINE
8
0
66
1
40
0.000000
41
0.000000
0
VERTEX
8
0
10
0.200611
20
-0.044056
0
VERTEX
8
0
10
0.200611
20
-0.039704
0
SEQEND
8
0
0
POLYLINE
8
0
66
1
40
0.060000
41
0.060000
0
VERTEX
8
0
10
0.200611
20
-0.044056
0
VERTEX
8
0
10
0.145611
20
-0.099056
0
VERTEX
8
0
10
0.145611
20
-0.177756
0
VERTEX
8
0
10
0.159410
20
-0.191555
0
VERTEX
8
0
10
0.145611
20
-0.205355
0
VERTEX
8
0
10
0.145611
20
-0.279567
0
VERTEX
8
0
10
0.135931
20
-0.279567
0
VERTEX
8
0
10
0.085610
20
-0.229246
0
VERTEX
8
0
10
0.085610
20
-0.064705
0
VERTEX
8
0
10
0.030610
20
-0.064705
0
VERTEX
8
0
10
0.030610
20
-0.039704
0
VERTEX
8
0
10
0.200611
20
-0.039704
0
VERTEX
8
0
10
0.200611
20
-0.044056
0
SEQEND
8
0
0
POLYLINE
8
0
66
1
40
0.000000
41
0.000000
0
VERTEX
8
0
10
0.441909
20
-0.613848
0
VERTEX
8
0
10
0.441909
20
-0.573282
0
SEQEND
8
0
0
POLYLINE
8
0
66
1
40
0.000000
41
0.000000
0
VERTEX
8
0
10
0.445846
20
-0.609911
0
VERTEX
8
0
10
0.445846
20
-0.577219
0
SEQEND
8
0
0
POLYLINE
8
0
66
1
40
0.000000
41
0.000000
0
VERTEX
8
0
10
0.449783
20
-0.605974
0
VERTEX
8
0
10
0.449783
20
-0.581156
0
SEQEND
8
0
0
POLYLINE
8
0
66
1
40
0.000000
41
0.000000
0
VERTEX
8
0
10
0.453720
20
-0.602037
0
VERTEX
8
0
10
0.453720
20
-0.584704
0
SEQEND
8
0
0
POLYLINE
8
0
66
1
40
0.000000
41
0.000000
0
VERTEX
8
0
10
0.457657
20
-0.598100
0
VERTEX
8
0
10
0.457657
20
-0.584704
0
SEQEND
8
0
0
POLYLINE
8
0
66
1
40
0.000000
41
0.000000
0
VERTEX
8
0
10
0.461594
20
-0.594163
0
VERTEX
8
0
10
0.461594
20
-0.584704
0
SEQEND
8
0
0
POLYLINE
8
0
66
1
40
0.000000
41
0.000000
0
VERTEX
8
0
10
0.465531
20
-0.590226
0
VERTEX
8
0
10
0.465531
20
-0.584704
0
SEQEND
8
0
0
POLYLINE
8
0
66
1
40
0.000000
41
0.000000
0
VERTEX
8
0
10
0.469468
20
-0.586289
0
VERTEX
8
0
10
0.469468
20
-0.584704
0
SEQEND
8
0
0
POLYLINE
8
0
66
1
40
0.000000
41
0.000000
0
VERTEX
8
0
10
0.471053
20
-0.584704
0
VERTEX
8
0
10
0.471053
20
-0.584704
0
SEQEND
8
0
0
POLYLINE
8
0
66
1
40
0.060000
41
0.060000
0
VERTEX
8
0
10
0.453331
20
-0.584704
0
VERTEX
8
0
10
0.471053
20
-0.584704
0
VERTEX
8
0
10
0.441909
20
-0.613848
0
VERTEX
8
0
10
0.441909
20
-0.573282
0
VERTEX
8
0
10
0.453331
20
-0.584704
0
SEQEND
8
0
0
POLYLINE
8
0
66
1
40
0.030000
41
0.030000
0
VERTEX
8
0
10
-0.204389
20
0.055295
0
VERTEX
8
0
10
-0.109390
20
0.055295
0
SEQEND
8
0
0
POLYLINE
8
0
66
1
40
0.030000
41
0.030000
0
VERTEX
8
0
10
0.090610
20
-0.039704
0
VERTEX
8
0
10
0.090610
20
0.055295
0
SEQEND
8
0
0
POLYLINE
8
0
66
1
40
0.030000
41
0.030000
0
VERTEX
8
0
10
0.090610
20
0.150295
0
VERTEX
8
0
10
0.090610
20
0.055295
0
SEQEND
8
0
0
POLYLINE
8
0
66
1
40
0.030000
41
0.030000
0
VERTEX
8
0
10
0.285610
20
0.055295
0
VERTEX
8
0
10
0.190610
20
0.055295
0
SEQEND
8
0
0
POLYLINE
8
0
66
1
40
0.030000
41
0.030000
0
VERTEX
8
0
10
0.190610
20
-0.039704
0
VERTEX
8
0
10
0.190610
20
0.055295
0
SEQEND
8
0
0
POLYLINE
8
0
66
1
40
0.030000
41
0.030000
0
VERTEX
8
0
10
0.190610
20
0.150295
0
VERTEX
8
0
10
0.190610
20
0.055295
0
SEQEND
8
0
0
POLYLINE
8
0
66
1
40
0.030000
41
0.030000
0
VERTEX
8
0
10
0.290610
20
0.045295
0
VERTEX
8
0
10
0.290610
20
-0.044705
0
SEQEND
8
0
0
POLYLINE
8
0
66
1
40
0.030000
41
0.030000
0
VERTEX
8
0
10
0.380610
20
-0.044705
0
VERTEX
8
0
10
0.290610
20
-0.044705
0
SEQEND
8
0
0
POLYLINE
8
0
66
1
40
0.030000
41
0.030000
0
VERTEX
8
0
10
-0.004389
20
0.461594
0
VERTEX
8
0
10
0.090610
20
0.461594
0
SEQEND
8
0
0
POLYLINE
8
0
66
1
40
0.030000
41
0.030000
0
VERTEX
8
0
10
0.185610
20
0.461594
0
VERTEX
8
0
10
0.090610
20
0.461594
0
SEQEND
8
0
0
POLYLINE
8
0
66
1
40
0.030000
41
0.030000
0
VERTEX
8
0
10
0.145611
20
-0.138406
0
VERTEX
8
0
10
0.240610
20
-0.138406
0
SEQEND
8
0
0
POLYLINE
8
0
66
1
40
0.030000
41
0.030000
0
VERTEX
8
0
10
0.335610
20
-0.138406
0
VERTEX
8
0
10
0.240610
20
-0.138406
0
SEQEND
8
0
0
POLYLINE
8
0
66
1
40
0.030000
41
0.030000
0
VERTEX
8
0
10
0.441909
20
-0.594705
0
VERTEX
8
0
10
0.346909
20
-0.594705
0
SEQEND
8
0
0
POLYLINE
8
0
66
1
40
0.030000
41
0.030000
0
VERTEX
8
0
10
0.346909
20
-0.689704
0
VERTEX
8
0
10
0.346909
20
-0.594705
0
SEQEND
8
0
0
POLYLINE
8
0
66
1
40
0.030000
41
0.030000
0
VERTEX
8
0
10
0.490610
20
0.015296
0
VERTEX
8
0
10
0.490610
20
0.105295
0
SEQEND
8
0
0
POLYLINE
8
0
66
1
40
0.030000
41
0.030000
0
VERTEX
8
0
10
0.490610
20
0.195295
0
VERTEX
8
0
10
0.490610
20
0.105295
0
SEQEND
8
0
0
POLYLINE
8
0
66
1
40
0.030000
41
0.030000
0
VERTEX
8
0
10
0.580610
20
0.105295
0
VERTEX
8
0
10
0.490610
20
0.105295
0
SEQEND
8
0
0
POLYLINE
8
0
66
1
40
0.030000
41
0.030000
0
VERTEX
8
0
10
0.400611
20
0.105295
0
VERTEX
8
0
10
0.490610
20
0.105295
0
SEQEND
8
0
0
POLYLINE
8
0
66
1
40
0.030000
41
0.030000
0
VERTEX
8
0
10
0.580610
20
-0.494705
0
VERTEX
8
0
10
0.490610
20
-0.494705
0
SEQEND
8
0
0
INSERT
8
0
2
EPAD
10
-0.574390
20
0.715295
41
0.250000
42
0.250000
0
CIRCLE
8
0
10
-0.574390
20
0.715295
40
0.030000
0
INSERT
8
0
2
EPAD
10
0.575610
20
-0.734705
41
0.250000
42
0.250000
0
CIRCLE
8
0
10
0.575610
20
-0.734705
40
0.030000
0
INSERT
8
0
2
RPAD
10
-0.044390
20
-0.194705
41
0.150000
42
0.150000
50
180.000000
0
CIRCLE
8
0
10
-0.044390
20
-0.194705
40
0.030000
0
INSERT
8
0
2
RPAD
10
-0.259390
20
-0.194705
41
0.150000
42
0.150000
50
180.000000
0
CIRCLE
8
0
10
-0.259390
20
-0.194705
40
0.030000
0
INSERT
8
0
2
RPAD
10
-0.474390
20
-0.194705
41
0.150000
42
0.150000
50
180.000000
0
CIRCLE
8
0
10
-0.474390
20
-0.194705
40
0.030000
0
INSERT
8
0
2
EPAD
10
-0.459390
20
-0.044705
41
0.070000
42
0.070000
0
CIRCLE
8
0
10
-0.459390
20
-0.044705
40
0.025000
0
INSERT
8
0
2
EPAD
10
-0.059390
20
-0.044705
41
0.070000
42
0.070000
0
CIRCLE
8
0
10
-0.059390
20
-0.044705
40
0.025000
0
INSERT
8
0
2
RPAD
10
-0.459390
20
0.055295
41
0.080000
42
0.080000
50
90.000000
0
CIRCLE
8
0
10
-0.459390
20
0.055295
40
0.025000
0
INSERT
8
0
2
RPAD
10
-0.409390
20
-0.444705
41
0.080000
42
0.080000
50
180.000000
0
CIRCLE
8
0
10
-0.409390
20
-0.444705
40
0.025000
0
INSERT
8
0
2
RPAD
10
-0.504390
20
0.205295
41
0.150000
42
0.150000
50
90.000000
0
CIRCLE
8
0
10
-0.504390
20
0.205295
40
0.030000
0
INSERT
8
0
2
RPAD
10
-0.504390
20
0.405295
41
0.150000
42
0.150000
50
90.000000
0
CIRCLE
8
0
10
-0.504390
20
0.405295
40
0.030000
0
INSERT
8
0
2
RPAD
10
-0.109390
20
0.055295
41
0.080000
42
0.080000
50
0.000000
0
CIRCLE
8
0
10
-0.109390
20
0.055295
40
0.025000
0
INSERT
8
0
2
RPAD
10
-0.009390
20
0.055295
41
0.080000
42
0.080000
50
0.000000
0
CIRCLE
8
0
10
-0.009390
20
0.055295
40
0.025000
0
INSERT
8
0
2
RPAD
10
0.090610
20
0.055295
41
0.080000
42
0.080000
50
0.000000
0
CIRCLE
8
0
10
0.090610
20
0.055295
40
0.025000
0
INSERT
8
0
2
RPAD
10
0.190610
20
0.055295
41
0.080000
42
0.080000
50
0.000000
0
CIRCLE
8
0
10
0.190610
20
0.055295
40
0.025000
0
INSERT
8
0
2
EPAD
10
-0.295689
20
0.225295
41
0.080000
42
0.080000
0
CIRCLE
8
0
10
-0.295689
20
0.225295
40
0.025000
0
INSERT
8
0
2
EPAD
10
-0.189390
20
0.225295
41
0.080000
42
0.080000
0
CIRCLE
8
0
10
-0.189390
20
0.225295
40
0.025000
0
INSERT
8
0
2
EPAD
10
-0.087028
20
0.225295
41
0.080000
42
0.080000
0
CIRCLE
8
0
10
-0.087028
20
0.225295
40
0.025000
0
INSERT
8
0
2
EPAD
10
0.290610
20
0.355295
41
0.070000
42
0.070000
0
CIRCLE
8
0
10
0.290610
20
0.355295
40
0.025000
0
INSERT
8
0
2
EPAD
10
0.290610
20
-0.044705
41
0.070000
42
0.070000
0
CIRCLE
8
0
10
0.290610
20
-0.044705
40
0.025000
0
INSERT
8
0
2
EPAD
10
0.090610
20
0.461594
41
0.080000
42
0.080000
0
CIRCLE
8
0
10
0.090610
20
0.461594
40
0.025000
0
INSERT
8
0
2
EPAD
10
0.090610
20
0.355295
41
0.080000
42
0.080000
0
CIRCLE
8
0
10
0.090610
20
0.355295
40
0.025000
0
INSERT
8
0
2
EPAD
10
0.090610
20
0.252933
41
0.080000
42
0.080000
0
CIRCLE
8
0
10
0.090610
20
0.252933
40
0.025000
0
INSERT
8
0
2
RPAD
10
0.440610
20
0.305295
41
0.080000
42
0.080000
50
270.000000
0
CIRCLE
8
0
10
0.440610
20
0.305295
40
0.025000
0
INSERT
8
0
2
EPAD
10
0.240610
20
-0.138406
41
0.080000
42
0.080000
0
CIRCLE
8
0
10
0.240610
20
-0.138406
40
0.025000
0
INSERT
8
0
2
EPAD
10
0.240610
20
-0.244705
41
0.080000
42
0.080000
0
CIRCLE
8
0
10
0.240610
20
-0.244705
40
0.025000
0
INSERT
8
0
2
EPAD
10
0.240610
20
-0.347067
41
0.080000
42
0.080000
0
CIRCLE
8
0
10
0.240610
20
-0.347067
40
0.025000
0
INSERT
8
0
2
EPAD
10
-0.209390
20
-0.494705
41
0.070000
42
0.070000
0
CIRCLE
8
0
10
-0.209390
20
-0.494705
40
0.025000
0
INSERT
8
0
2
EPAD
10
0.190610
20
-0.494705
41
0.070000
42
0.070000
0
CIRCLE
8
0
10
0.190610
20
-0.494705
40
0.025000
0
INSERT
8
0
2
EPAD
10
0.346909
20
-0.594705
41
0.080000
42
0.080000
0
CIRCLE
8
0
10
0.346909
20
-0.594705
40
0.025000
0
INSERT
8
0
2
EPAD
10
0.240610
20
-0.594705
41
0.080000
42
0.080000
0
CIRCLE
8
0
10
0.240610
20
-0.594705
40
0.025000
0
INSERT
8
0
2
EPAD
10
0.138248
20
-0.594705
41
0.080000
42
0.080000
0
CIRCLE
8
0
10
0.138248
20
-0.594705
40
0.025000
0
INSERT
8
0
2
EPAD
10
0.490610
20
-0.294705
41
0.070000
42
0.070000
0
CIRCLE
8
0
10
0.490610
20
-0.294705
40
0.025000
0
INSERT
8
0
2
EPAD
10
0.490610
20
0.105295
41
0.070000
42
0.070000
0
CIRCLE
8
0
10
0.490610
20
0.105295
40
0.025000
0
INSERT
8
0
2
EPAD
10
0.490610
20
-0.494705
41
0.070000
42
0.070000
0
CIRCLE
8
0
10
0.490610
20
-0.494705
40
0.025000
0
INSERT
8
0
2
EPAD
10
0.490610
20
-0.394705
41
0.070000
42
0.070000
0
CIRCLE
8
0
10
0.490610
20
-0.394705
40
0.025000
0
INSERT
8
0
2
EPAD
10
-0.359390
20
-0.694705
41
0.070000
42
0.070000
0
CIRCLE
8
0
10
-0.359390
20
-0.694705
40
0.025000
0
INSERT
8
0
2
EPAD
10
0.040610
20
-0.694705
41
0.070000
42
0.070000
0
CIRCLE
8
0
10
0.040610
20
-0.694705
40
0.025000
0
INSERT
8
0
2
EPAD
10
-0.359390
20
0.555295
41
0.070000
42
0.070000
0
CIRCLE
8
0
10
-0.359390
20
0.555295
40
0.025000
0
INSERT
8
0
2
EPAD
10
-0.059390
20
0.555295
41
0.070000
42
0.070000
0
CIRCLE
8
0
10
-0.059390
20
0.555295
40
0.025000
0
INSERT
8
0
2
RPAD
10
0.045610
20
0.625295
41
0.080000
42
0.080000
50
0.000000
0
CIRCLE
8
0
10
0.045610
20
0.625295
40
0.025000
0
POLYLINE
8
0
66
1
40
0.008000
41
0.008000
0
VERTEX
8
0
10
-0.734193
20
-0.884705
0
VERTEX
8
0
10
0.734193
20
-0.884705
0
VERTEX
8
0
10
0.734193
20
0.884705
0
VERTEX
8
0
10
-0.734193
20
0.884705
0
VERTEX
8
0
10
-0.734193
20
-0.884705
0
SEQEND
8
0
0
ENDSEC
0
EOF

