M48
METRIC,TZ
T01C4.0000
T02C1.6510
T03C0.7620
T04C1.0160
T05C1.5240
%
T01
X-2159Y+40894
X-31369Y+4064
T02
X-15621Y+17780
X-10160Y+17780
X-4699Y+17780
T03
X-5080Y+21590
X-15240Y+21590
X-9238Y+28448
X-11938Y+28448
X-14538Y+28448
X-24130Y+31750
X-24130Y+21590
X-19050Y+34450
X-19050Y+31750
X-19050Y+29150
X-22860Y+19210
X-22860Y+16510
X-22860Y+13910
X-11430Y+10160
X-21590Y+10160
X-25560Y+7620
X-22860Y+7620
X-20260Y+7620
X-29210Y+15240
X-29210Y+25400
X-29210Y+10160
X-29210Y+12700
X-7620Y+5080
X-17780Y+5080
X-7620Y+36830
X-15240Y+36830
T04
X-5080Y+24130
X-6350Y+11430
X-13970Y+24130
X-16510Y+24130
X-19050Y+24130
X-21590Y+24130
X-27940Y+30480
X-17907Y+38608
T05
X-3937Y+27940
X-3937Y+33020
M30
